<svg width="40" height="40" viewBox="0 0 40 40" fill="none" xmlns="http://www.w3.org/2000/svg">
<path d="M19.9813 3.49719C19.4988 3.49719 19.0162 3.60532 18.6424 3.82157L6.70861 10.7247C5.96096 11.1572 5.96096 11.8411 6.70861 12.2736L18.6424 19.1767C19.3901 19.6092 20.5724 19.6092 21.3199 19.1767L33.2538 12.2736C34.0014 11.8412 34.0014 11.1572 33.2538 10.7248L21.3199 3.82165C20.9461 3.60524 20.4637 3.49719 19.9813 3.49719ZM20.0536 9.97024C20.5441 9.97454 21.0216 10.0645 21.4264 10.2289C21.8313 10.3932 22.1455 10.6247 22.33 10.8945C22.5144 11.1642 22.5608 11.4602 22.4634 11.7454C22.366 12.0307 22.1291 12.2927 21.7823 12.4985C21.5512 12.6379 21.2758 12.7487 20.9722 12.8246C20.6685 12.9005 20.3426 12.94 20.0131 12.9408C19.6836 12.9416 19.3571 12.9036 19.0524 12.8292C18.7477 12.7547 18.4709 12.6452 18.2379 12.507C18.0049 12.3687 17.8204 12.2045 17.6949 12.0237C17.5694 11.8429 17.5054 11.6492 17.5067 11.4537C17.508 11.2581 17.5746 11.0647 17.7025 10.8845C17.8304 10.7044 18.0171 10.541 18.252 10.4038C18.4881 10.2637 18.7692 10.1532 19.0787 10.0787C19.3881 10.0042 19.7196 9.96734 20.0535 9.97024H20.0536ZM5.91174 13.5813C5.46229 13.5691 5.15674 13.92 5.15674 14.5406V26.8606C5.15674 27.7241 5.74815 28.7484 6.4958 29.1802L17.9747 35.8089C18.7224 36.2406 19.3138 35.8992 19.3138 35.0359V22.7156C19.3138 21.8522 18.7224 20.8281 17.9747 20.3963L6.4958 13.7676C6.28565 13.6461 6.0876 13.5858 5.91174 13.5811V13.5813ZM34.0971 13.5814C33.9213 13.5861 33.7235 13.6463 33.5132 13.7677L22.0339 20.3964C21.2863 20.8282 20.6949 21.8525 20.6949 22.7159V35.0363C20.6949 35.8995 21.2863 36.2408 22.0339 35.8089L33.5133 29.1805C34.261 28.7487 34.8521 27.7245 34.8521 26.8611V14.5408C34.8521 13.9203 34.5467 13.5695 34.0971 13.5816V13.5814ZM6.97635 15.2945C7.24375 15.276 7.54749 15.3599 7.85689 15.5378C8.16628 15.7157 8.47037 15.9813 8.73842 16.3077C9.00647 16.6341 9.22899 17.0098 9.3835 17.3969C9.53801 17.7839 9.61903 18.1686 9.61838 18.512C9.61865 18.7688 9.57338 18.9969 9.48516 19.1832C9.39694 19.3695 9.26751 19.5103 9.10425 19.5977C8.94099 19.685 8.74712 19.7172 8.53371 19.6923C8.32031 19.6674 8.09156 19.5859 7.86054 19.4525C7.62953 19.3192 7.40078 19.1365 7.18737 18.915C6.97397 18.6935 6.7801 18.4375 6.61685 18.1616C6.4536 17.8858 6.32416 17.5955 6.23595 17.3073C6.14774 17.0191 6.10248 16.7388 6.10275 16.4823C6.10212 16.1395 6.18249 15.8494 6.33581 15.6409C6.48914 15.4325 6.71003 15.313 6.97635 15.2945ZM24.2826 20.3464C24.5489 20.3649 24.7698 20.4843 24.9232 20.6928C25.0765 20.9012 25.1569 21.1914 25.1563 21.5341C25.1557 22.0521 24.9703 22.6553 24.6407 23.2114C24.3111 23.7674 23.8643 24.2308 23.3985 24.4998C22.9326 24.7687 22.4858 24.8212 22.1563 24.6457C21.8267 24.4702 21.6412 24.0811 21.6406 23.5638C21.64 23.2204 21.721 22.8358 21.8755 22.4488C22.03 22.0617 22.2526 21.686 22.5206 21.3596C22.7887 21.0332 23.0927 20.7676 23.4021 20.5897C23.7115 20.4118 24.0153 20.3279 24.2827 20.3464H24.2826ZM11.3513 22.5859C11.6187 22.5674 11.9224 22.6513 12.2318 22.8292C12.5412 23.0071 12.8453 23.2727 13.1133 23.5991C13.3814 23.9255 13.6039 24.3013 13.7584 24.6883C13.9129 25.0753 13.994 25.46 13.9933 25.8034C13.9927 26.3206 13.8073 26.7098 13.4777 26.8853C13.1481 27.0607 12.7013 27.0082 12.2355 26.7393C11.7696 26.4704 11.3228 26.007 10.9932 25.4509C10.6637 24.8948 10.4782 24.2916 10.4777 23.7737C10.477 23.4309 10.5574 23.1408 10.7107 22.9323C10.8641 22.7239 11.085 22.6044 11.3513 22.5859ZM33.0328 24.8813C33.2991 24.8997 33.5199 25.0192 33.6733 25.2277C33.8266 25.4362 33.9069 25.7263 33.9063 26.0691C33.9057 26.587 33.7203 27.1902 33.3907 27.7463C33.0611 28.3023 32.6143 28.7657 32.1485 29.0347C31.6826 29.3036 31.2358 29.3561 30.9062 29.1806C30.5767 29.0051 30.3912 28.616 30.3906 28.0988C30.39 27.7554 30.471 27.3707 30.6255 26.9837C30.78 26.5966 31.0025 26.2209 31.2706 25.8945C31.5386 25.568 31.8427 25.3024 32.1521 25.1245C32.4615 24.9466 32.7653 24.8627 33.0328 24.8813ZM15.7265 29.9331C15.9939 29.9145 16.2976 29.9985 16.607 30.1764C16.9164 30.3543 17.2205 30.6198 17.4885 30.9463C17.7566 31.2727 17.9791 31.6484 18.1336 32.0354C18.2881 32.4225 18.3691 32.8071 18.3685 33.1505C18.3687 33.4073 18.3235 33.6354 18.2352 33.8217C18.147 34.008 18.0176 34.1489 17.8543 34.2362C17.6911 34.3236 17.4972 34.3557 17.2838 34.3308C17.0704 34.3059 16.8416 34.2244 16.6106 34.091C16.3796 33.9577 16.1509 33.775 15.9375 33.5535C15.724 33.332 15.5302 33.076 15.3669 32.8001C15.2037 32.5243 15.0742 32.234 14.986 31.9458C14.8978 31.6577 14.8526 31.3773 14.8528 31.1208C14.8522 30.778 14.9326 30.4879 15.0859 30.2794C15.2392 30.071 15.4602 29.9515 15.7265 29.9331Z" fill="white"/>
</svg>
