<svg width="1439" height="512" viewBox="0 0 1439 512" fill="none" xmlns="http://www.w3.org/2000/svg">
<path d="M1205.64 497.728C1203.94 499.084 1202.81 500.012 1201.67 501.011C1197.56 504.65 1193.3 508.289 1189.19 511.929L1194.15 511.929C1196.14 510.287 1197.98 508.575 1199.83 506.934C1201.67 505.292 1203.52 503.722 1205.36 502.081C1208.34 505.364 1211.18 508.646 1214.16 511.857L1218.84 511.857C1215.43 508.075 1212.03 504.293 1208.62 500.511C1207.77 499.726 1206.92 498.941 1205.64 497.728Z" fill="white" fill-opacity="0.08"/>
<path d="M503.026 492.59C502.175 499.013 501.465 505.506 500.189 511.929L504.444 511.929C505.579 506.22 506.289 500.369 506.998 494.803L507.282 492.733C508.133 486.454 508.842 480.103 509.551 473.966C510.119 469.113 510.686 464.261 511.395 459.337C511.537 459.409 511.679 459.551 511.821 459.623C516.36 462.334 520.474 464.975 524.872 467.472C538.916 475.892 555.229 484.313 577.501 494.803C579.487 495.73 580.196 496.444 580.196 497.586C580.196 497.728 580.196 497.871 580.196 498.085C579.487 502.295 579.203 506.862 579.061 511.929L583.317 511.929C583.459 507.362 583.743 502.795 584.452 498.228C584.452 498.014 584.452 497.8 584.452 497.586C584.452 495.802 583.175 494.517 580.338 493.233C562.038 484.598 544.164 475.75 527.993 466.116C521.751 462.406 515.509 458.552 508.275 454.128C507.707 456.126 507.14 457.339 506.998 458.624C505.721 469.97 504.444 481.244 503.026 492.59Z" fill="white" fill-opacity="0.08"/>
<path d="M475.506 356.58C463.164 372.279 452.667 388.335 445.29 404.819C445.006 405.461 444.864 405.961 444.864 406.532C444.864 407.459 445.29 408.387 446.709 409.315C465.576 422.587 484.301 436.003 503.026 449.347C504.019 450.061 505.296 450.774 507.14 451.773C507.707 450.845 507.991 450.346 508.133 449.918C509.551 445.922 510.828 441.926 512.53 437.93C518.205 424.3 527.283 411.17 538.206 398.397C538.774 397.683 539.199 397.041 539.199 396.399C539.199 395.756 538.774 395.043 537.639 394.329C518.205 381.056 501.324 366.999 484.017 353.012C483.024 352.299 482.031 351.585 480.896 350.8C480.187 351.228 479.761 351.371 479.619 351.514C478.201 353.227 476.782 354.868 475.506 356.58ZM488.556 360.791C502.884 372.422 517.637 384.41 534.234 395.614C534.944 396.113 534.944 396.327 534.944 396.399C534.944 396.684 534.66 397.041 534.234 397.54C522.035 411.741 513.665 424.799 508.275 437.43C507.14 440.07 506.289 442.782 505.296 445.351C505.154 445.85 505.012 446.35 504.728 446.849C499.479 443.067 494.089 439.285 488.84 435.503C476.215 426.441 463.022 417.164 450.113 407.959C449.404 407.459 449.12 406.96 449.12 406.46C449.12 406.103 449.262 405.747 449.404 405.176C456.213 390.048 466.001 374.42 479.336 357.294C479.903 356.509 480.612 355.653 481.322 354.868C483.733 356.866 486.145 358.793 488.556 360.791Z" fill="white" fill-opacity="0.08"/>
<path d="M586.438 493.946C586.438 495.587 587.998 495.73 593.105 498.37C593.673 498.656 594.382 498.941 594.949 499.227C604.028 503.508 612.965 507.718 622.044 511.929L628.286 511.929C623.888 509.859 619.491 507.861 615.235 505.792C609.419 503.08 603.745 500.368 597.928 497.728C597.645 497.585 597.361 497.514 597.077 497.371C596.794 497.229 596.368 497.086 596.084 496.943C594.666 496.23 593.673 495.73 592.68 495.302C591.829 494.874 590.694 494.374 590.552 494.232C590.552 494.232 590.552 494.16 590.552 493.946C590.552 493.518 590.694 492.733 590.977 491.663C591.119 491.306 591.119 490.878 591.261 490.45C594.666 475.892 602.752 460.693 616.937 442.568C617.363 442.782 617.647 442.925 618.072 443.139C624.739 446.492 631.265 449.775 637.932 453.129C655.664 462.049 673.964 471.254 692.122 480.317C693.54 481.03 693.682 481.387 693.682 481.744C693.682 482.029 693.54 482.386 693.398 482.743C687.724 492.59 683.468 502.438 680.773 512L685.029 512C687.724 502.295 691.98 492.733 697.37 483.314C697.654 482.743 697.938 482.172 697.938 481.672C697.938 480.602 697.087 479.746 695.101 478.747C670.276 466.402 645.734 453.985 621.051 441.64C619.491 440.855 617.647 440.07 615.661 439.071C614.809 439.927 613.958 440.57 613.391 441.212C600.907 457.054 590.836 473.252 587.005 490.236C586.722 492.091 586.438 493.161 586.438 493.946Z" fill="white" fill-opacity="0.08"/>
<path d="M415.784 484.384C411.102 493.589 406.421 502.723 401.598 511.929L405.995 511.929C410.251 503.651 414.791 494.731 419.897 484.955C421.032 482.6 422.025 480.174 423.018 477.891C423.302 477.177 423.586 476.392 424.011 475.607L429.26 478.747C447.56 489.665 466.427 500.868 485.152 511.929L490.684 511.929C468.696 499.013 446.992 485.954 425.146 472.967C424.295 472.396 423.728 471.682 423.018 471.04C421.174 472.325 420.607 473.038 420.323 473.752C418.763 477.32 417.628 480.888 415.784 484.384Z" fill="white" fill-opacity="0.08"/>
<path d="M751.985 320.045C722.905 339.811 694.817 359.292 671.694 380.2C680.347 386.551 738.934 420.375 743.616 421.66C761.915 401.608 785.322 383.055 811.991 365.643C791.989 350.372 772.271 335.458 751.985 320.045ZM676.801 379.986C698.647 360.505 724.749 342.237 751.843 323.755L775.959 342.095L806.742 365.5C780.073 383.055 758.936 400.323 742.197 418.02C729.288 411.313 687.866 387.55 676.801 379.986Z" fill="white" fill-opacity="0.08"/>
<path d="M743.048 423.872C742.055 424.799 741.062 425.656 740.353 426.655C725.742 443.067 712.975 459.837 702.193 476.963C701.626 477.819 701.342 478.533 701.342 479.175C701.342 480.602 702.619 481.815 705.314 483.1C724.749 492.662 743.9 502.295 763.192 511.929L769.292 511.929C768.015 511.286 766.88 510.716 765.604 510.073C746.878 500.725 727.444 491.021 708.293 481.53C706.165 480.459 705.598 479.746 705.598 479.104C705.598 478.675 705.74 478.176 706.165 477.534C717.088 460.265 729.856 443.424 744.041 427.511L784.896 449.561L815.254 465.902C804.756 479.603 795.961 494.446 788.159 511.857L792.556 511.857C799.791 495.802 808.586 480.317 820.219 465.474C794.401 451.559 769.008 437.787 743.048 423.872Z" fill="white" fill-opacity="0.08"/>
<path d="M2.26995 242.478C1.56066 242.049 0.851375 241.693 0.142089 241.407L0.142089 244.476C8.93724 249.613 17.5905 254.823 26.2438 259.96C27.5205 260.745 29.081 261.459 31.067 262.529C31.4925 261.53 31.9181 261.102 31.9181 260.603C32.3437 257.32 32.7693 254.038 33.1948 250.684C34.8971 236.84 38.4436 223.068 47.0968 209.795C47.3806 209.296 47.6643 208.796 47.6643 208.368C47.6643 207.298 46.6713 206.513 44.969 205.585C35.8901 200.947 27.095 196.166 18.158 191.456C12.2 188.316 6.24195 185.105 0.283944 181.965L0.283944 185.105C5.24895 187.745 10.0721 190.386 15.0371 192.954C16.7394 193.882 18.4417 194.738 20.144 195.666C27.2368 199.448 34.6134 203.373 41.99 207.084C43.5504 207.868 43.5504 208.154 43.5504 208.368C43.5504 208.582 43.4086 208.796 43.2667 209.153C35.6064 220.927 31.3507 233.7 29.2228 250.541L29.081 251.54C28.7973 253.538 28.5135 255.608 28.2298 257.677C25.5345 256.036 22.6974 254.394 20.0021 252.753C14.0441 249.399 8.22795 245.903 2.26995 242.478Z" fill="white" fill-opacity="0.08"/>
<path d="M0.14209 391.047L0.14209 393.972C0.567661 394.187 0.993233 394.401 1.41881 394.543C4.11409 395.828 6.66752 397.184 10.214 398.896C11.207 395.899 12.0581 393.402 12.7674 390.975C17.3068 374.563 20.144 358.079 22.13 341.524C22.6974 337.028 23.5485 332.604 24.2578 328.108C22.8392 327.395 21.2788 326.752 20.0021 325.967C13.3348 322.114 6.80938 318.332 0.142086 314.479L0.142086 317.761C5.67452 320.972 11.207 324.183 16.7394 327.395C17.7324 327.965 18.8672 328.465 19.8602 328.965C19.7184 330.035 19.5765 331.105 19.2928 332.104C18.7254 335.101 18.2998 338.241 17.8742 341.381C15.7464 360.148 12.7674 375.847 8.65353 390.69C8.36981 391.903 7.94424 393.188 7.51867 394.472C6.52567 393.972 5.53267 393.473 4.53966 392.973C2.97923 392.331 1.56066 391.689 0.14209 391.047Z" fill="white" fill-opacity="0.08"/>
<path d="M844.051 107.895C843.341 108.68 842.916 109.393 842.916 110.107C842.916 110.963 843.625 111.748 845.327 112.462C845.895 112.747 846.462 113.104 847.03 113.461C873.841 129.017 900.794 144.644 927.605 160.201C928.739 160.843 929.449 161.628 930.3 162.341C930.867 162.199 931.435 162.056 932.002 161.913C933.563 160.272 935.123 158.702 936.542 157.061C955.409 135.082 972.006 112.676 988.319 90.1263C989.171 88.9132 989.738 87.7714 989.738 86.7724C989.738 85.2738 988.603 83.9894 985.766 82.7049C985.482 82.5622 985.199 82.3481 984.915 82.2054C959.381 66.7205 933.846 51.307 908.312 35.8221C907.461 35.3226 906.326 34.8945 904.766 34.1809C903.631 35.5367 902.638 36.5357 901.787 37.6061C891.715 50.2366 882.068 62.8671 871.713 75.4263C862.776 86.3442 853.413 97.1194 844.051 107.895ZM905.759 38.4624C905.9 38.3197 906.042 38.1056 906.184 37.9629C928.03 51.1643 949.734 64.2943 971.58 77.4957L981.652 83.6326L981.794 83.704C982.078 83.8467 982.361 84.0607 982.929 84.3462C985.199 85.3452 985.482 86.1301 985.482 86.8437C985.482 87.486 985.057 88.3423 984.347 89.4127C969.594 109.75 952.288 133.37 932.711 156.205C932.002 156.99 931.293 157.774 930.584 158.559C908.312 145.643 885.615 132.513 863.769 119.812L850.434 112.033C850.292 111.962 850.15 111.891 850.009 111.748C849.583 111.463 849.016 111.106 848.306 110.82C847.313 110.392 847.313 110.178 847.313 110.035C847.313 109.75 847.597 109.322 848.023 108.68L850.434 105.968C858.804 96.2631 867.599 86.2015 875.685 76.2113C882.636 67.6482 889.587 58.871 896.254 50.4507C899.375 46.4546 902.496 42.4585 905.759 38.4624Z" fill="white" fill-opacity="0.08"/>
<path d="M887.034 408.316C860.364 426.013 838.093 444.495 822.205 465.117C854.123 480.388 885.899 495.587 918.384 511.144C935.265 490.735 956.685 472.11 981.369 453.771C949.876 438.5 918.526 423.515 887.034 408.316ZM916.965 507.433L894.694 496.801L827.17 464.546C841.214 446.849 860.932 429.438 887.459 411.527L909.731 422.231L975.836 454.057C950.727 472.895 931.86 490.022 916.965 507.433Z" fill="white" fill-opacity="0.08"/>
<path d="M22.2718 110.321C19.2928 108.394 16.172 106.396 13.0511 104.398C8.79538 101.615 4.39781 98.8321 0.142088 96.0491L0.142089 99.5457C3.26295 101.615 6.52567 103.685 9.64653 105.683C11.7744 107.038 13.9022 108.466 16.0301 109.821L17.3068 110.606C12.0581 114.602 6.38381 118.741 0.14209 123.308L0.14209 127.09C7.23495 121.881 14.4697 116.672 21.5625 111.391C21.8463 111.106 21.9881 110.82 22.2718 110.321Z" fill="white" fill-opacity="0.08"/>
<path d="M24.3997 328.18L24.2578 328.108C24.3997 328.108 24.3997 328.108 24.3997 328.18Z" fill="white" fill-opacity="0.08"/>
<path d="M1438.86 255.822C1420.42 243.905 1400.98 232.416 1381.12 221.141C1380.27 220.642 1378.99 220.285 1378.14 219.928C1365.23 233.415 1352.89 246.759 1339.56 259.889C1326.22 273.019 1311.61 285.792 1297.43 298.922C1323.53 316.905 1349.49 334.816 1375.59 352.87C1376.87 351.942 1377.86 351.371 1378.57 350.729C1400.41 333.817 1420.7 316.405 1438.72 298.423L1438.72 293.642C1420.84 311.91 1399.85 330.178 1375.45 349.159L1302.39 298.708C1306.36 295.069 1310.34 291.43 1314.17 287.933C1323.81 279.085 1333.88 269.951 1343.25 260.817C1352.61 251.683 1361.55 242.263 1370.2 233.129C1373.18 229.918 1376.3 226.636 1379.42 223.425C1402.54 236.483 1421.84 248.186 1438.86 259.318L1438.86 255.822Z" fill="white" fill-opacity="0.08"/>
<path d="M30.2158 330.963C56.6013 345.591 82.9867 360.22 109.372 374.848C110.507 375.491 111.926 376.061 113.912 376.918C114.337 375.633 114.621 374.92 114.621 374.206C115.188 368.426 115.614 362.646 116.181 356.937C117.884 342.951 119.586 329.036 121.43 315.05C121.43 314.835 121.43 314.621 121.43 314.479C121.43 312.766 120.295 311.553 117.742 310.268C89.654 296.353 62.4174 281.939 36.3157 266.954C35.4645 266.454 34.3297 266.026 32.6274 265.241C32.3437 266.24 32.06 266.882 32.06 267.453C29.9321 285.65 27.8042 303.918 25.6764 322.114C25.3927 324.112 24.6834 326.11 24.2578 328.108C26.3857 329.107 28.3717 329.964 30.2158 330.963ZM29.081 327.395L28.9391 327.323C29.081 327.038 29.081 326.824 29.2228 326.538C29.6484 325.183 30.074 323.684 30.2158 322.257C31.7762 309.769 33.1948 297.138 34.6134 284.865C35.1808 279.941 35.7482 274.946 36.3157 270.022C60.7151 284.008 87.2424 297.995 114.905 311.767C116.607 312.623 117.316 313.337 117.316 314.407C117.316 314.55 117.316 314.693 117.316 314.835C115.756 326.966 114.053 339.882 112.067 356.723C111.642 360.362 111.358 364.002 111.074 367.57C110.933 369.14 110.791 370.709 110.649 372.279C98.7329 365.643 86.8169 359.078 74.9009 352.442C60.9988 344.735 47.2387 337.099 33.3367 329.393C31.9181 328.75 30.4995 328.108 29.081 327.395Z" fill="white" fill-opacity="0.08"/>
<path d="M454.227 113.461C460.894 108.751 524.73 46.4547 529.27 40.2464C521.751 34.1096 486.712 12.2738 465.859 0.214114L460.185 0.214115C479.194 11.132 514.516 32.8251 524.446 40.4605C516.644 49.5231 466.71 98.2612 453.376 109.964L368.545 65.7929L402.875 36.6785L445.857 0.142727L440.892 0.142727C414.933 22.1213 389.115 44.0998 363.155 66.0784C393.796 81.9914 423.87 97.619 454.227 113.461Z" fill="white" fill-opacity="0.08"/>
<path d="M536.221 286.506C536.221 286.435 536.221 286.363 536.221 286.292C535.937 284.437 532.39 282.581 530.121 280.797C511.537 266.74 493.096 252.682 474.513 238.624C473.236 237.696 471.817 236.84 470.115 235.698C468.98 236.769 468.129 237.34 467.562 238.053C449.546 257.534 431.672 277.015 413.656 296.425C413.088 297.067 412.805 297.638 412.805 298.137C412.805 299.065 413.656 299.779 414.933 300.635C436.637 314.621 456.213 329.393 474.938 344.449C476.499 345.662 478.059 346.947 480.329 348.588C481.464 347.518 482.031 347.09 482.457 346.59C498.912 328.394 515.367 310.268 531.823 292.072C533.241 290.217 536.221 288.29 536.221 286.506ZM478.343 343.379C455.646 325.182 437.062 311.624 418.195 299.422C417.06 298.708 416.919 298.423 416.919 298.209C416.919 297.995 417.06 297.709 417.344 297.353C430.679 283.009 444.297 268.309 457.206 254.18C461.604 249.328 466.143 244.476 470.541 239.623C470.682 239.695 470.682 239.766 470.824 239.837C487.28 252.325 506.856 267.025 526.432 282.01C527.142 282.51 527.709 282.938 528.418 283.438C529.979 284.508 531.681 285.65 531.823 286.435L531.823 286.506C531.823 287.22 530.546 288.361 529.411 289.36C528.702 289.931 527.993 290.573 527.425 291.216C511.396 308.913 495.366 326.61 479.336 344.307C479.194 344.021 478.768 343.664 478.343 343.379Z" fill="white" fill-opacity="0.08"/>
<path d="M615.093 437.573C631.407 417.664 649.706 398.753 669.708 380.486C657.934 372.993 646.585 365.928 635.662 358.65C624.739 351.443 614.1 344.021 602.893 336.314C580.338 356.009 559.201 375.49 541.469 395.828C563.315 410.956 588.424 424.229 615.093 437.573ZM603.319 340.311C605.447 341.738 607.575 343.236 609.561 344.663C617.221 349.944 624.456 355.01 632.116 360.006C639.776 365.001 647.436 369.853 655.522 374.991C658.501 376.846 661.48 378.773 664.601 380.7C645.592 398.111 628.428 415.951 613.533 433.791C587.289 420.518 565.585 408.744 546.292 395.614C563.457 376.133 583.743 357.579 603.319 340.311Z" fill="white" fill-opacity="0.08"/>
<path d="M1299.55 50.3794C1298.7 51.2357 1297.99 52.0206 1297.99 52.8769C1297.99 53.4478 1298.28 54.09 1299.13 54.8036C1314.59 68.0764 1330.34 81.2777 1348.78 93.6228C1350.76 94.9786 1352.89 96.2631 1355.59 98.0471C1357.01 96.6199 1358 95.7636 1358.71 94.9073C1366.09 87.1292 1373.75 79.3511 1380.84 71.4302C1392.9 58.0148 1404.53 44.4566 1416.44 30.9697C1417.15 30.1848 1417.58 29.4712 1417.58 28.6862C1417.58 27.9726 1417.15 27.2591 1416.16 26.4741C1404.95 17.9111 1394.6 9.1339 1384.67 0.142681L1379.85 0.142681C1391.05 10.347 1401.83 19.3382 1412.76 27.6158C1413.47 28.1154 1413.47 28.4008 1413.47 28.6149C1413.47 28.9717 1413.18 29.3998 1412.61 29.9707C1408.5 34.6804 1404.25 39.4614 1400.13 44.1711C1392.61 52.8055 1384.81 61.6541 1377.01 70.3598C1372.04 75.8545 1366.65 81.4205 1361.55 86.7724C1359.28 89.1272 1357.15 91.4107 1354.88 93.7656C1354.88 93.7656 1354.88 93.8369 1354.74 93.8369C1353.74 93.1947 1352.89 92.6238 1352.04 92.0529C1333.88 79.9933 1318.42 66.8633 1302.68 53.4478C1302.11 53.0196 1302.11 52.7342 1302.11 52.5915C1302.11 52.2347 1302.53 51.7352 1303.24 51.0929C1305.65 48.7381 1308.07 46.3833 1310.48 43.9571C1317.71 36.8212 1325.23 29.4712 1332.18 22.1212C1338.57 15.3421 1344.81 8.13487 1351.19 -4.81017e-05L1346.65 -4.79032e-05C1340.98 7.13585 1335.02 14.2717 1328.35 21.1936C1319.27 31.1838 1309.34 40.7459 1299.55 50.3794Z" fill="white" fill-opacity="0.08"/>
<path d="M1067.19 511.929L1072.16 511.929C1072.87 511.286 1073.58 510.644 1074.43 510.002C1074.71 510.216 1074.99 510.359 1075.28 510.573C1075.99 511.072 1076.55 511.501 1077.26 511.929L1082.51 511.929C1079.82 510.073 1077.12 508.147 1074.14 506.077C1071.73 508.004 1069.46 510.002 1067.19 511.929Z" fill="white" fill-opacity="0.08"/>
<path d="M1211.89 122.238C1213.45 121.096 1214.72 120.24 1215.86 119.312C1220.82 115.316 1225.79 111.32 1230.61 107.324C1251.32 90.0549 1272.03 72.7147 1292.89 55.4458C1294.02 54.5182 1294.59 53.6618 1294.59 52.8055C1294.59 51.9492 1294.02 51.1643 1292.89 50.1653C1277.99 38.1056 1263.38 25.9032 1248.49 13.8436C1243.1 9.4907 1237.14 5.3519 1231.32 0.927654C1200.11 24.8329 1169.47 48.4526 1138.69 72.0724C1162.52 89.2699 1185.78 106.039 1211.89 122.238ZM1202.95 26.6169L1231.18 4.92373C1231.89 5.42324 1232.46 5.92276 1233.17 6.35091C1237.28 9.34798 1241.11 12.131 1244.66 15.0567C1251.89 20.9081 1259.13 26.8309 1266.08 32.611C1273.59 38.7478 1281.4 45.1701 1289.06 51.3784C1290.05 52.1633 1290.19 52.5915 1290.19 52.8769C1290.19 53.1624 1290.05 53.5905 1289.06 54.3754C1275.15 65.9356 1260.97 77.7098 1247.35 89.0559C1240.54 94.7646 1233.59 100.473 1226.78 106.253C1222.67 109.607 1218.55 113.032 1214.44 116.386L1212.17 118.242C1212.03 118.384 1211.74 118.527 1211.6 118.67C1188.91 104.398 1168.48 89.9122 1147.06 74.57L1143.65 72.1438L1202.95 26.6169Z" fill="white" fill-opacity="0.08"/>
<path d="M751.985 318.76C753.688 317.761 754.822 317.119 755.815 316.405C788.017 294.498 819.084 272.163 846.179 248.543C848.732 246.331 850.151 245.546 850.151 244.761C850.151 243.976 848.732 243.191 845.611 241.05C822.63 225.28 799.366 209.652 776.101 193.953C774.824 193.097 773.406 192.384 771.42 191.242C746.169 218.287 716.805 243.762 685.312 268.738C707.584 285.436 729.714 301.991 751.985 318.76ZM772.413 195.095C772.413 195.167 772.555 195.167 772.555 195.238C777.803 198.806 783.052 202.302 788.301 205.87C806.033 217.787 824.191 230.132 842.065 242.335C842.632 242.763 843.2 243.12 843.767 243.477C844.476 243.976 845.327 244.547 845.753 244.832C845.469 245.046 845.044 245.403 844.76 245.689C844.193 246.188 843.341 246.759 842.49 247.544C819.084 267.881 791.28 288.718 752.411 315.192L690.561 268.666C724.749 241.336 750.85 217.859 772.413 195.095Z" fill="white" fill-opacity="0.08"/>
<path d="M853.271 244.547C853.271 245.189 853.697 245.903 854.69 246.688C874.55 262.101 894.126 277.586 913.986 293.071C915.263 293.999 916.54 294.926 918.1 295.997C919.661 294.998 920.796 294.355 921.789 293.713C953.99 270.379 982.362 245.974 1006.9 220.428C1007.75 219.5 1008.18 218.715 1008.18 218.001C1008.18 217.074 1007.47 216.146 1006.19 215.218C989.596 203.301 973.425 191.313 956.685 179.468C949.309 174.258 941.081 169.335 932.57 163.84C931.435 164.839 931.009 165.339 930.584 165.767C924.909 171.975 919.519 178.254 913.703 184.463C895.687 204.015 876.394 223.353 855.116 242.049C853.981 242.977 853.271 243.691 853.271 244.547ZM928.456 172.974C930.016 171.261 931.577 169.477 933.137 167.765C934.414 168.621 935.691 169.406 936.967 170.191C942.642 173.759 947.89 177.113 952.855 180.609C962.502 187.46 972.29 194.524 981.652 201.303C988.461 206.227 995.412 211.294 1002.36 216.289C1003.5 217.074 1003.64 217.573 1003.64 217.859C1003.64 218.287 1003.36 218.786 1002.79 219.357C978.531 244.618 950.16 269.094 918.1 292.286C917.816 292.143 917.675 291.929 917.391 291.786C912.142 287.648 906.894 283.509 901.503 279.37C887.317 268.238 872.706 256.678 858.095 245.403C857.385 244.832 857.385 244.547 857.385 244.476C857.385 244.19 857.669 243.762 858.52 243.048C877.813 226.065 896.963 207.155 917.249 185.248C921.079 181.252 924.909 177.041 928.456 172.974Z" fill="white" fill-opacity="0.08"/>
<path d="M667.58 6.27962C667.58 7.56408 668.715 8.7058 670.843 9.91891C697.796 25.3324 724.607 40.8173 751.418 56.2308C752.127 56.659 753.262 56.9444 754.681 57.5866C770.001 38.3197 785.18 19.2669 800.217 0.285448L795.677 0.285448L780.499 19.3383L752.978 53.9473C745.034 49.3804 737.09 44.8134 729.288 40.3178C711.131 29.8994 692.547 19.1242 673.964 8.56307C671.978 7.42133 671.694 6.85049 671.694 6.27962C671.694 5.85147 671.978 5.35194 672.403 4.70972C673.538 3.21118 674.531 1.71265 675.666 0.214115L671.127 0.214115C670.276 1.42722 669.424 2.71164 668.431 3.92474C667.864 4.78105 667.58 5.56603 667.58 6.27962Z" fill="white" fill-opacity="0.08"/>
<path d="M31.3507 511.929L37.1668 511.929C25.6764 505.72 14.0441 499.37 2.41181 493.161C1.70252 492.805 0.851375 492.448 0.142089 492.162L0.142089 495.088C10.4977 500.654 20.9951 506.291 31.3507 511.929Z" fill="white" fill-opacity="0.08"/>
<path d="M198.175 511.286C198.458 511.501 198.884 511.715 199.168 511.929L204.416 511.929C203.14 511.072 201.863 510.145 200.586 509.288C199.168 508.361 198.175 507.076 195.054 506.648C194.77 507.576 194.628 508.289 194.486 509.003C194.203 510.002 193.919 510.93 193.777 511.929L198.033 511.929C198.033 511.715 198.175 511.501 198.175 511.286Z" fill="white" fill-opacity="0.08"/>
<path d="M0.992998 435.86C4.39757 427.939 7.66029 419.947 10.923 412.169C11.916 409.885 12.909 407.531 13.7602 405.247C24.825 411.241 35.748 417.164 46.8129 423.158C63.2683 432.149 80.4331 441.426 97.3141 450.56C98.7327 451.345 99.0164 451.845 99.0164 452.487C99.0164 452.701 99.0164 452.915 98.8745 453.129C93.2002 472.467 84.6888 491.877 72.9146 511.929L77.3122 511.929C88.5189 492.733 97.3141 473.252 102.988 453.414C103.13 453.058 103.13 452.772 103.13 452.487C103.13 451.202 102.137 450.132 100.293 449.133C71.6379 433.648 43.1246 418.092 14.4694 402.607C13.6183 402.107 12.3416 401.822 10.923 401.251C10.3556 402.536 9.93 403.463 9.64629 404.391C6.38357 412.098 3.26271 419.733 -3.69313e-06 427.44L-3.26268e-06 437.287C0.425569 436.859 0.709283 436.36 0.992998 435.86Z" fill="white" fill-opacity="0.08"/>
<path d="M1433.61 511.929C1435.31 510.716 1437.16 509.502 1438.86 508.218L1438.86 504.579C1435.31 507.005 1431.91 509.502 1428.36 511.929L1433.61 511.929Z" fill="white" fill-opacity="0.08"/>
<path d="M1370.91 357.722C1364.38 362.575 1358 367.498 1351.47 372.351C1328.49 389.405 1305.51 406.532 1284.8 424.3C1283.67 425.299 1283.1 426.155 1283.1 427.083C1283.1 427.939 1283.67 428.796 1284.8 429.866C1303.24 445.993 1321.4 462.192 1339.7 478.319C1340.41 479.032 1341.54 479.603 1342.82 480.531C1375.45 456.982 1408.5 434.076 1439 410.028L1439 404.534C1419.42 387.479 1398.57 370.924 1375.73 354.368C1373.6 355.795 1372.19 356.723 1370.91 357.722ZM1437.16 407.388C1413.61 426.013 1387.93 444.423 1363.11 462.192C1356.44 466.973 1349.63 471.896 1342.82 476.749C1337.71 472.182 1332.61 467.686 1327.5 463.119C1314.73 451.844 1301.68 440.213 1288.49 428.796C1287.5 427.868 1287.35 427.368 1287.35 427.083C1287.35 426.798 1287.5 426.298 1288.49 425.37C1308.78 408.101 1331.47 391.189 1353.46 374.777L1355.16 373.492C1359.28 370.495 1363.25 367.356 1367.22 364.43C1369.63 362.575 1372.19 360.719 1374.6 358.864C1374.88 358.578 1375.31 358.364 1375.59 358.079C1397.44 374.135 1417.58 390.262 1437.16 407.388Z" fill="white" fill-opacity="0.08"/>
<path d="M689.852 136.081C689.143 136.795 688.859 137.366 688.859 137.937C688.859 138.864 689.71 139.649 691.27 140.577C716.237 155.848 741.062 171.119 765.887 186.461C767.448 187.46 769.008 188.387 771.136 189.672C772.555 188.245 773.69 187.246 774.683 186.175C795.961 161.699 817.24 137.295 838.66 112.818C839.228 112.176 839.511 111.605 839.511 111.106C839.511 110.249 838.66 109.465 837.242 108.537C811.282 93.052 785.322 77.4244 759.362 61.9395C758.085 61.1546 756.525 60.441 754.539 59.3706C752.978 61.2259 751.843 62.7245 750.709 64.1516C731.558 88.4137 711.84 112.533 689.852 136.081ZM756.241 63.2953C764.043 67.9337 771.704 72.572 779.506 77.2817C797.38 87.9855 815.821 99.0461 834.121 109.964C835.397 110.678 835.397 111.034 835.397 111.106C835.397 111.32 835.256 111.605 834.972 111.962C819.935 129.088 804.756 146.571 790.003 163.483C783.62 170.762 777.378 178.04 770.994 185.319C770.852 185.462 770.71 185.604 770.569 185.819C770.143 185.604 769.718 185.319 769.434 185.105C763.76 181.68 758.227 178.183 752.553 174.758C733.686 163.126 714.109 151.067 694.675 139.221C693.398 138.436 693.256 138.079 693.256 137.937C693.256 137.723 693.398 137.437 693.824 137.009C716.521 112.818 736.523 88.1282 754.964 65.008C755.248 64.4371 755.674 63.8662 756.241 63.2953C756.099 63.2953 756.099 63.2953 756.241 63.2953Z" fill="white" fill-opacity="0.08"/>
<path d="M535.937 161.913C535.086 162.841 534.66 163.697 534.66 164.482C534.66 165.553 535.511 166.552 537.213 167.693C556.364 180.538 575.231 193.454 594.24 206.299C598.496 209.224 603.035 212.007 607.858 215.147C617.505 208.368 683.326 143.289 685.596 138.294C658.36 122.166 630.981 106.039 603.319 89.6268C600.624 92.5525 598.212 95.1927 595.801 97.7617C575.799 119.169 555.939 140.577 535.937 161.913ZM680.773 138.722C677.794 142.504 665.452 155.42 645.734 175.043C628.853 191.67 614.242 205.585 607.433 211.365C607.149 211.151 606.865 211.008 606.582 210.794C603.461 208.796 600.482 206.869 597.645 204.871C591.261 200.519 584.878 196.237 578.494 191.884C566.152 183.464 553.243 174.758 540.618 166.266C539.058 165.267 538.916 164.696 538.916 164.34C538.916 163.911 539.199 163.412 539.909 162.698C555.939 145.644 572.11 128.303 587.715 111.534C591.687 107.252 595.801 102.9 599.773 98.618C601.333 96.9767 602.893 95.2641 604.454 93.4801L680.773 138.722Z" fill="white" fill-opacity="0.08"/>
<path d="M105.684 151.067C134.055 131.086 162.285 111.034 190.514 91.054C178.315 84.2749 165.973 77.7812 154.341 71.0021C142.708 64.1516 131.785 57.0158 120.295 49.8799C88.0933 70.1458 56.3173 90.1263 24.3994 110.178C36.8829 118.884 96.6048 148.783 105.684 151.067ZM127.388 57.8007C135.048 62.6531 142.992 67.6482 151.078 72.4293C159.164 77.1389 167.817 81.8486 176.045 86.3442C179.024 87.9141 182.003 89.5554 184.982 91.1967L162.71 106.896L104.407 148.07C90.9305 142.718 44.1176 119.383 29.79 110.178L120.295 53.3051C122.706 54.875 125.118 56.3022 127.388 57.8007Z" fill="white" fill-opacity="0.08"/>
<path d="M993.852 83.9181C993.426 84.489 993.285 84.9885 993.285 85.488C993.285 86.2729 993.852 86.9865 995.271 87.7001C996.264 88.271 997.115 88.8418 997.966 89.4841C1020.66 103.756 1042.23 118.456 1062.37 133.655C1064.92 135.582 1067.48 137.58 1071.16 140.292C1088.9 115.958 1110.03 93.3374 1136.99 72.3579C1122.23 60.1556 1060.24 19.5523 1052.86 17.2689C1051.73 18.1965 1050.59 19.0528 1049.6 19.9805C1026.9 40.3891 1009.6 62.0109 993.852 83.9181ZM1131.88 72.3579C1108.33 90.9112 1088.05 111.677 1070.03 135.582C1068.47 134.44 1067.19 133.441 1065.92 132.442C1046.48 117.742 1024.64 102.828 1001.23 88.0569C1000.94 87.8428 1000.66 87.7001 1000.38 87.486C999.81 87.0579 999.101 86.6297 998.25 86.2016C997.398 85.7734 997.398 85.5593 997.398 85.4166C997.398 85.2025 997.54 84.9171 997.824 84.6317C1010.59 66.7919 1028.47 43.3862 1053.29 21.0509C1053.43 20.9081 1053.57 20.7654 1053.72 20.6227C1067.62 28.1868 1116.13 59.8701 1131.88 72.3579Z" fill="white" fill-opacity="0.08"/>
<path d="M285.133 132.799C310.384 110.678 335.634 88.5564 361.027 66.1497C333.223 52.0206 306.27 37.3921 281.303 21.1936C253.357 45.2416 224.276 68.3619 192.784 90.4831C199.593 95.1215 274.068 129.231 285.133 132.799ZM282.012 25.047C302.298 38.0343 325.42 50.9503 355.92 66.5065L315.065 102.257L283.856 129.659C266.833 122.951 210.516 97.1195 198.316 90.4117C226.546 70.5026 253.924 49.0236 282.012 25.047Z" fill="white" fill-opacity="0.08"/>
<path d="M658.927 6.92184C659.92 7.56407 659.92 7.84953 659.92 8.0636C659.92 8.27768 659.778 8.63446 659.494 8.99126C640.344 37.5348 621.619 62.0823 602.184 84.0608C587.005 74.4274 572.394 64.5085 558.35 54.9464C551.116 50.0226 543.739 44.9561 536.22 40.0324C536.504 39.6756 536.788 39.2474 537.072 38.962C549.13 25.9747 560.053 13.0587 569.557 0.35681L565.018 0.35681C555.371 13.1301 544.732 25.6893 533.1 38.0343C532.39 38.8193 531.823 39.6042 531.255 40.3892C555.088 56.2309 577.927 72.2866 602.752 87.9856C604.028 86.7725 605.021 85.9875 605.731 85.1312C627.577 60.5124 646.302 35.2513 663.325 9.77619C663.75 9.20532 663.892 8.63445 663.892 8.13494C663.892 7.27863 663.325 6.56503 662.048 5.70873C659.211 3.92475 656.515 2.14078 653.678 0.356806L648.288 0.356806C651.976 2.49758 655.522 4.70971 658.927 6.92184Z" fill="white" fill-opacity="0.08"/>
<path d="M1068.04 390.619C1039.81 411.669 1011.58 432.72 983.071 453.985C1014.99 470.041 1045.77 486.525 1073.86 504.935C1098.83 483.671 1124.79 463.333 1147.34 442.068C1138.12 433.434 1079.25 395.328 1068.04 390.619ZM1094 483.956C1087.19 489.593 1080.24 495.373 1073.43 501.153C1045.06 482.814 1014.85 466.973 988.603 453.7L995.696 448.419L1068.75 393.972C1084.64 402.321 1131.74 433.077 1142.52 442.14C1127.34 456.197 1111.17 469.684 1094 483.956Z" fill="white" fill-opacity="0.08"/>
<path d="M120.721 44.8848C120.437 44.6707 120.153 44.528 119.869 44.3139C104.833 32.8251 87.8097 19.8378 71.3543 7.06456C70.7868 6.63641 70.2194 6.27961 69.652 5.85146C68.2334 4.78107 66.3893 3.49662 66.3893 2.78303C66.3893 2.35488 68.3753 1.21315 69.3683 0.570923C69.5101 0.428203 69.7938 0.356846 69.9357 0.214126L64.4033 0.214126C63.1265 1.07043 62.1335 1.85538 62.1335 2.71169C62.1335 2.71169 62.1335 2.71167 62.1335 2.78303C62.1335 4.567 65.5381 6.4937 67.8078 8.27767C83.9796 20.6941 100.151 33.1105 116.465 45.4556C117.742 46.3833 119.16 47.2396 120.862 48.3814C144.694 32.8251 166.399 16.7694 186.259 0.214121L181.294 0.214121C162.568 15.6276 142.567 30.3989 120.721 44.8848Z" fill="white" fill-opacity="0.08"/>
<path d="M54.3311 2.7117C54.0474 2.99714 53.6218 3.21121 53.3381 3.42529C36.4571 14.1291 18.8668 25.1184 0.141601 36.964L0.141602 40.3892C19.0086 28.5436 37.8756 16.6267 56.7427 4.78108C57.5938 4.21021 58.3031 3.56801 59.4379 2.7117C58.3031 1.92675 57.3101 1.07043 56.1752 0.285482L51.0684 0.285482L54.3311 2.7117Z" fill="white" fill-opacity="0.08"/>
<path d="M1425.67 28.829C1425.1 28.4722 1425.1 28.2581 1425.1 28.1154C1425.1 27.7586 1425.52 27.2591 1425.81 26.6882C1430.63 20.5514 1434.89 14.6999 1438.72 8.99123L1438.72 2.28347C1433.61 10.2043 1427.94 18.1252 1421.84 25.9033C1421.27 26.6882 1420.84 27.4018 1420.84 28.0441C1420.84 28.6863 1421.27 29.3285 1422.26 30.0421C1427.79 33.9668 1433.33 37.9629 1438.86 41.959L1438.86 38.177C1434.46 35.1086 1430.06 31.9688 1425.67 28.829Z" fill="white" fill-opacity="0.08"/>
<path d="M1436.59 142.86C1436.59 143.717 1437.44 144.359 1438.72 145.073L1438.72 139.364C1438.15 140.149 1437.58 140.934 1437.01 141.647C1436.73 142.147 1436.59 142.575 1436.59 142.86Z" fill="white" fill-opacity="0.08"/>
<path d="M1056.84 7.92087C1055.42 9.13397 1054 10.3471 1052.44 11.7029C1052.3 11.6315 1052.16 11.5602 1052.01 11.4888C1045.77 7.70679 1039.67 3.99614 1033.43 0.214117L1027.9 0.214117C1034.85 4.42429 1041.8 8.63443 1048.75 12.8446C1050.03 13.6296 1051.45 14.2718 1053.15 15.2708C1055.84 12.916 1058.11 10.9893 1060.38 9.06259C1063.93 6.13688 1067.48 3.13983 1071.16 0.214115L1066.2 0.214115C1063.08 2.78304 1059.96 5.35195 1056.84 7.92087Z" fill="white" fill-opacity="0.08"/>
<path d="M913.561 14.0577C911.149 17.1261 908.879 20.1946 906.752 23.263C905.475 24.9756 904.34 26.6169 903.063 28.3295C903.063 28.3295 903.063 28.3295 902.921 28.2582C895.545 23.9053 888.31 19.5524 880.934 15.1995C872.706 10.2757 864.194 5.2806 855.825 0.214119L850.292 0.214119C866.748 9.99029 883.345 19.8378 899.801 29.6139C901.077 30.3989 902.638 31.1125 904.34 32.1115C905.333 31.0411 906.184 30.2562 906.752 29.4713C910.44 24.5475 913.986 19.6237 917.675 14.7713C921.505 9.9189 925.193 4.99514 929.023 0.142731L924.484 0.142731C920.654 4.85242 917.107 9.49075 913.561 14.0577Z" fill="white" fill-opacity="0.08"/>
<path d="M304 0.214159L299.177 0.214159C292.793 5.85151 286.835 11.1321 280.877 16.2699C273.075 11.0607 265.273 5.78015 257.613 0.214161L252.364 0.214161C261.585 6.85054 271.231 13.4869 281.303 20.0519C289.105 13.4155 296.624 6.77918 304 0.214159Z" fill="white" fill-opacity="0.08"/>
<path d="M363.58 355.653C365.283 353.012 366.701 350.872 368.12 348.802C378.901 332.532 393.087 316.976 407.556 301.563C408.407 300.635 408.833 299.85 408.833 299.136C408.833 298.137 407.982 297.21 406.279 296.139C379.752 279.513 350.529 264.099 320.03 249.328C318.895 248.757 317.477 248.329 316.2 247.901C299.035 258.747 258.89 296.353 256.478 303.989C293.645 320.187 330.102 336.814 363.58 355.653ZM317.193 250.898C350.955 267.168 379.043 282.367 403.158 297.495C404.577 298.352 404.719 298.851 404.719 299.136C404.719 299.493 404.435 299.993 403.868 300.635C387.554 317.904 374.503 332.604 364.148 348.16C363.438 349.23 362.729 350.372 361.878 351.585C328.683 333.317 292.794 317.048 261.301 303.275C266.266 294.284 300.028 262.672 317.193 250.898Z" fill="white" fill-opacity="0.08"/>
<path d="M132.211 279.085C127.672 288.861 125.828 298.922 123.7 308.913C123.558 309.269 123.558 309.626 123.558 309.983C123.558 311.696 124.551 312.98 127.246 314.265C159.306 329.749 191.224 345.306 223.142 360.791C224.277 361.361 225.695 361.79 227.823 362.646C234.207 342.451 240.023 322.756 254.208 304.06C218.035 287.933 182.145 272.02 145.829 255.893C144.978 256.821 144.269 257.463 143.843 258.176C139.871 265.098 135.474 272.02 132.211 279.085ZM206.403 285.65L249.243 304.703C236.476 322.043 230.66 339.882 224.702 358.65C215.34 354.154 206.119 349.587 196.756 345.092C174.91 334.459 152.355 323.541 130.083 312.766C128.239 311.91 127.672 311.196 127.672 309.983C127.672 309.698 127.672 309.412 127.814 309.127L128.239 307.129C130.083 297.995 132.069 288.575 136.183 279.584C138.595 274.589 141.574 269.594 144.411 264.67C145.404 262.958 146.539 261.174 147.532 259.461L206.403 285.65Z" fill="white" fill-opacity="0.08"/>
<path d="M104.549 153.85C101.286 156.347 98.0236 158.845 95.0446 161.414C78.4473 174.972 63.4104 188.958 52.2037 203.944C51.4944 204.871 51.2107 205.585 51.2107 206.299C51.2107 207.654 52.4874 208.796 55.0408 210.009C81.5682 222.925 107.812 236.055 134.197 249.043C137.602 250.755 141.29 252.325 145.546 254.252C161.718 234.343 183.847 216.503 205.551 198.592C205.835 198.306 205.835 197.95 206.119 197.45C173.066 182.679 140.013 167.907 106.535 152.922C105.4 153.422 104.833 153.636 104.549 153.85ZM173.35 185.819L201.012 198.164L198.742 200.019C179.166 216.075 159.022 232.63 143.702 250.684C141.29 249.613 139.02 248.614 136.892 247.544C128.097 243.262 119.444 238.91 110.649 234.628C93.3423 226.065 75.3264 217.216 57.5943 208.582C55.3246 207.44 55.0408 206.869 55.0408 206.37C55.0408 205.942 55.3246 205.371 55.7501 204.729C65.5383 191.741 79.0147 178.326 98.3073 162.556C100.861 160.415 103.698 158.274 106.251 156.205L106.535 155.991L173.35 185.819Z" fill="white" fill-opacity="0.08"/>
<path d="M336.344 417.235C336.344 418.306 337.478 419.091 338.897 419.876C344.146 422.801 349.394 425.727 354.501 428.796C374.929 441.212 395.356 453.7 415.784 466.188C417.202 467.044 418.763 467.9 421.032 469.256C422.593 465.189 423.869 461.763 425.146 458.338C430.82 442.14 436.353 425.941 442.169 409.743C442.311 409.315 442.453 408.958 442.453 408.601C442.453 407.531 441.743 406.603 440.467 405.675C418.053 389.976 394.931 374.491 369.538 359.863C368.12 359.078 366.985 358.15 364.999 356.794C363.722 358.65 362.871 359.649 362.303 360.648C351.806 379.058 344.997 397.897 336.769 416.522C336.344 416.736 336.344 417.021 336.344 417.235ZM366.134 361.219C393.654 377.132 418.337 393.972 436.637 406.817C437.63 407.531 437.913 408.03 437.913 408.53C437.913 408.744 437.913 409.029 437.771 409.315C433.658 420.732 429.686 432.292 425.714 443.496C424.011 448.277 422.309 453.129 420.749 457.91C420.039 460.051 419.188 462.192 418.337 464.475C411.812 460.479 405.286 456.483 398.761 452.487C385.284 444.28 371.382 435.717 357.622 427.368C353.508 424.871 349.111 422.373 344.855 420.018C343.862 419.448 342.869 418.948 341.876 418.377C340.741 417.735 340.457 417.45 340.457 417.164C340.457 417.093 340.457 416.95 340.599 416.879C343.011 411.313 345.422 405.675 347.692 400.252C353.225 387.407 358.757 374.135 366.134 361.219Z" fill="white" fill-opacity="0.08"/>
<path d="M602.61 334.816C629.988 312.481 656.657 290.716 683.61 268.666C659.92 251.041 634.953 233.914 608.426 216.646C583.884 239.909 560.904 262.886 538.632 286.221C559.343 302.49 580.338 318.617 602.61 334.816ZM608.993 220.57C634.811 237.482 657.65 253.253 678.503 268.666L641.762 298.637L602.326 330.82C584.594 317.832 566.152 303.846 543.455 286.006C565.159 263.243 586.722 241.835 608.993 220.57Z" fill="white" fill-opacity="0.08"/>
<path d="M221.865 385.838C217.325 400.609 212.928 415.38 208.246 430.151C208.104 430.508 208.104 430.865 208.104 431.15C208.104 432.506 209.097 433.577 211.083 434.718C239.597 451.559 268.11 468.4 296.623 485.24C297.475 485.74 298.609 486.168 300.17 486.81C301.872 483.742 303.291 481.102 304.709 478.461C314.356 459.337 323.86 440.142 333.648 421.017C333.932 420.447 334.074 419.947 334.074 419.519C334.074 418.306 333.081 417.307 331.095 416.165C300.17 398.968 267.259 382.698 233.923 366.642C232.646 366 231.085 365.429 229.099 364.573C228.532 365.786 228.106 366.571 227.823 367.356C225.695 373.635 223.709 379.772 221.865 385.838ZM327.69 417.664C329.251 418.52 329.534 419.019 329.534 419.59C329.534 419.876 329.392 420.161 329.251 420.589C322.3 434.147 315.49 447.991 308.681 461.335C305.844 466.901 303.149 472.467 300.312 478.033C299.461 479.603 298.609 481.173 297.758 482.814C288.821 477.462 279.742 472.182 270.805 466.83C252.222 455.841 233.071 444.495 214.204 433.363C212.502 432.435 212.218 431.793 212.218 431.15C212.218 430.936 212.218 430.722 212.36 430.508C215.623 420.018 218.886 409.386 222.148 399.039C223.425 394.757 224.844 390.404 226.12 386.123C227.964 379.986 229.95 373.849 231.653 368.569C263.145 383.839 296.482 400.323 327.69 417.664Z" fill="white" fill-opacity="0.08"/>
<path d="M917.958 297.352C884.906 321.258 848.165 342.879 813.693 365.429C835.256 380.842 859.797 394.401 886.466 407.174C905.049 397.041 979.666 347.946 985.057 342.237C961.083 328.251 938.669 313.551 917.958 297.352ZM886.182 404.105C859.371 391.047 837.383 378.345 818.942 365.5C830.007 358.293 841.497 351.014 852.704 343.95C874.408 330.249 896.822 316.049 917.675 301.206C935.974 315.192 956.26 328.75 979.808 342.523C969.027 351.3 907.319 391.903 886.182 404.105Z" fill="white" fill-opacity="0.08"/>
<path d="M530.972 165.267C530.972 164.554 530.404 163.911 529.411 163.198C524.304 159.773 519.339 156.276 514.374 152.851C497.068 140.934 479.052 129.302 459.759 118.17C458.199 117.243 457.206 115.958 453.518 115.744C431.388 137.937 409.116 160.201 386.845 182.607C416.351 198.806 443.446 215.718 469.406 233.843C470.54 232.915 471.25 232.487 471.675 231.988C491.252 210.295 510.686 188.602 530.262 166.908C530.688 166.338 530.972 165.767 530.972 165.267ZM468.838 229.847C444.297 212.792 419.046 197.165 391.952 182.251L455.362 118.741C455.362 118.741 455.362 118.741 455.362 118.813C455.645 119.027 456.071 119.312 456.497 119.598C473.945 129.659 491.677 140.934 510.828 154.135C512.388 155.277 514.091 156.347 515.651 157.489C518.914 159.773 522.46 162.199 525.865 164.482C526.574 164.982 526.574 165.196 526.574 165.267C526.574 165.481 526.432 165.767 526.149 166.052C512.105 181.608 497.919 197.379 484.159 212.65C479.194 218.43 473.945 224.138 468.838 229.847Z" fill="white" fill-opacity="0.08"/>
<path d="M316.2 246.26C341.451 225.637 364.006 204.515 385.426 182.821C354.218 165.624 320.598 149.854 285.559 134.369C259.599 155.705 234.207 176.613 208.672 197.664C244.42 213.791 280.026 229.918 316.2 246.26ZM285.984 138.079L286.552 137.651C325.421 154.92 354.502 169.049 380.32 183.178C358.048 205.585 336.769 225.209 315.207 242.977L214.205 197.307L285.984 138.079Z" fill="white" fill-opacity="0.08"/>
<path d="M1212.03 123.808C1210.61 124.949 1209.33 125.877 1208.06 126.876C1183.37 147.499 1161.53 168.906 1141.81 190.814C1140.96 191.741 1140.53 192.526 1140.53 193.24C1140.53 194.239 1141.38 195.238 1142.94 196.237C1159.54 207.226 1176 218.215 1192.59 229.205C1200.11 234.2 1207.91 239.195 1216.43 244.69C1242.24 219.643 1266.93 194.952 1289.77 169.905C1263.95 154.563 1238.27 139.293 1212.03 123.808ZM1215.86 240.765C1214.58 239.909 1213.31 239.052 1212.03 238.267C1206.5 234.699 1201.25 231.346 1196.14 227.92C1189.19 223.353 1182.24 218.644 1175.43 214.148C1165.92 207.868 1156.14 201.303 1146.49 194.952C1145.21 194.096 1144.93 193.597 1144.93 193.24C1144.93 192.812 1145.21 192.312 1145.78 191.67C1166.49 168.621 1188.05 147.784 1211.89 127.946C1212.17 127.732 1212.31 127.59 1212.6 127.376L1244.23 146.214L1284.8 170.262C1266.08 190.885 1244.66 212.792 1215.86 240.765Z" fill="white" fill-opacity="0.08"/>
<path d="M1138.97 321.115C1139.96 320.187 1140.53 319.331 1140.53 318.475C1140.53 317.476 1139.68 316.548 1137.84 315.692C1137.13 315.335 1136.56 314.835 1135.85 314.407C1118.54 302.49 1101.1 290.645 1083.93 278.728C1079.68 275.802 1075.85 272.734 1071.02 269.166C1046.2 294.998 1019.24 319.402 987.043 342.523C1014 358.008 1040.52 373.278 1067.48 388.835C1069.46 387.193 1071.16 385.98 1072.58 384.696C1084.64 373.635 1096.98 362.646 1108.61 351.514C1119.11 341.381 1128.76 331.177 1138.97 321.115ZM1068.75 383.625C1068.19 384.125 1067.62 384.696 1066.91 385.195L1050.17 375.562L992.433 342.38C1020.24 322.257 1045.49 300.207 1071.59 273.447C1071.73 273.519 1071.87 273.59 1071.87 273.661C1074.71 275.873 1077.55 277.943 1080.38 279.941C1093.29 288.861 1106.63 297.995 1119.4 306.7C1123.79 309.698 1128.05 312.623 1132.45 315.62C1132.59 315.692 1132.73 315.834 1132.87 315.906C1133.44 316.334 1134.01 316.762 1135 317.19C1136.42 317.832 1136.42 318.261 1136.42 318.475C1136.42 318.903 1136.13 319.402 1135.43 320.116C1131.03 324.469 1126.63 328.893 1122.37 333.246C1116.84 338.883 1111.03 344.806 1105.07 350.444C1096.56 358.507 1087.62 366.642 1078.97 374.491C1075.42 377.56 1072.16 380.557 1068.75 383.625Z" fill="white" fill-opacity="0.08"/>
<path d="M112.067 411.099C110.223 423.658 107.67 436.217 105.4 448.776C105.4 448.99 105.258 449.276 105.258 449.49C105.258 450.56 105.825 451.416 107.528 452.273C109.23 453.058 110.649 453.985 112.209 454.913C134.339 468.043 156.61 481.102 178.74 494.232C183.563 497.086 187.961 500.083 192.5 503.009C193.068 502.937 193.635 502.937 194.061 502.866C194.344 501.296 194.912 499.798 195.054 498.228C198.033 477.32 199.877 456.411 205.551 435.646C205.693 435.289 205.693 435.004 205.693 434.718C205.693 433.077 204.416 431.793 202.147 430.508C191.082 424.015 180.301 417.378 169.378 410.885C153.348 401.465 137.318 392.046 121.146 382.626C119.586 381.77 118.451 380.486 115.33 380.343C115.188 381.342 114.904 382.198 114.904 383.055C114.053 392.331 113.486 401.751 112.067 411.099ZM166.257 412.169C171.931 415.523 177.605 418.948 183.138 422.302C188.386 425.442 193.635 428.653 199.026 431.864C200.87 432.934 201.437 433.719 201.437 434.718C201.437 434.932 201.437 435.147 201.295 435.361C196.898 451.773 194.628 468.471 192.642 484.598C192.075 489.023 191.507 493.589 190.798 498.085C190.798 498.228 190.798 498.299 190.798 498.442C187.961 496.587 184.982 494.66 181.861 492.876C164.838 482.814 147.532 472.61 130.792 462.691L115.33 453.557C114.904 453.343 114.621 453.129 114.195 452.915C113.06 452.201 111.783 451.416 110.223 450.703C109.656 450.417 109.372 450.203 109.372 449.561C109.372 449.418 109.372 449.204 109.372 449.062C109.939 445.993 110.507 442.853 111.074 439.785C112.776 430.508 114.621 420.875 116.039 411.384C117.032 404.962 117.6 398.397 118.167 392.046C118.451 389.62 118.593 387.122 118.876 384.624C134.339 393.402 150.369 402.75 166.257 412.169Z" fill="white" fill-opacity="0.08"/>
<path d="M1135.85 196.166C1136.56 195.381 1136.99 194.667 1136.99 194.025C1136.99 193.168 1136.42 192.384 1135 191.456C1131.74 189.315 1128.9 187.103 1125.92 184.82C1109.47 171.832 1093.15 158.845 1076.7 145.858C1075.14 144.644 1073.43 143.503 1071.31 141.933C1069.6 144.002 1068.47 145.429 1067.33 146.928C1050.31 170.12 1033.29 193.24 1012.29 215.575C1011.73 216.217 1011.3 216.86 1011.3 217.431C1011.3 218.073 1011.73 218.715 1012.58 219.429C1030.73 234.485 1048.89 249.613 1067.05 264.67C1068.04 265.455 1069.18 266.169 1070.88 267.31C1072.16 266.169 1073.01 265.526 1073.58 264.884C1081.66 256.178 1089.89 247.473 1097.83 238.695C1110.6 224.638 1123.08 210.366 1135.85 196.166ZM1070.45 263.457C1064.5 258.533 1058.54 253.609 1052.58 248.614C1040.66 238.695 1028.32 228.491 1016.27 218.43C1015.7 218.001 1015.7 217.716 1015.7 217.573C1015.7 217.359 1015.84 217.002 1016.27 216.574C1037.97 193.454 1055.84 169.192 1071.45 147.713C1071.73 147.285 1072.16 146.857 1072.44 146.428C1072.72 146.642 1073.01 146.857 1073.29 147.071C1080.24 152.565 1087.19 158.06 1094.14 163.626C1103.65 171.119 1113.01 178.611 1122.52 186.104C1125.35 188.316 1128.33 190.6 1131.74 192.883C1132.73 193.525 1132.87 193.882 1132.87 194.096C1132.87 194.453 1132.59 194.81 1132.16 195.381C1125.78 202.516 1119.25 209.866 1113.01 216.931C1106.91 223.853 1100.53 231.06 1094.14 238.125C1088.47 244.476 1082.51 250.898 1076.7 257.106C1074.43 259.104 1072.44 261.245 1070.45 263.457Z" fill="white" fill-opacity="0.08"/>
<path d="M1355.3 99.6883C1333.88 123.094 1312.61 146.357 1291.33 169.763C1319.98 185.89 1348.21 201.803 1377.29 218.215C1398.43 193.311 1416.02 168.407 1434.18 144.002C1407.79 129.088 1381.83 114.602 1355.3 99.6883ZM1418.86 158.631C1405.52 176.827 1391.62 195.595 1376.02 214.219L1296.29 169.335L1356.44 103.47L1429.35 144.359C1425.81 149.14 1422.26 153.992 1418.86 158.631Z" fill="white" fill-opacity="0.08"/>
<path d="M1216.85 245.974C1214.58 248.115 1212.74 249.756 1211.04 251.469C1189.33 272.805 1167.63 294.07 1145.92 315.406C1144.93 316.334 1144.22 317.119 1144.22 317.975C1144.22 318.689 1144.79 319.402 1146.06 320.259C1170.18 336.029 1193.02 352.299 1214.01 369.14C1214.58 369.639 1215.57 369.996 1216.99 370.781C1240.54 345.805 1268.2 322.399 1295.58 298.851C1269.34 281.154 1243.8 263.528 1216.85 245.974ZM1283.95 304.56C1260.69 324.54 1236.71 345.234 1216 366.785C1196.28 351.014 1174.44 335.387 1149.33 319.046C1148.48 318.475 1148.48 318.189 1148.48 318.047C1148.48 317.69 1148.9 317.119 1149.61 316.405C1164.36 301.991 1179.26 287.291 1193.73 273.09C1200.68 266.24 1207.77 259.318 1214.72 252.468C1215.57 251.611 1216.43 250.826 1217.42 249.899C1236.85 262.529 1255.72 275.445 1274.02 287.862C1279.41 291.572 1284.94 295.283 1290.33 298.922C1288.21 300.849 1286.08 302.704 1283.95 304.56Z" fill="white" fill-opacity="0.08"/>
<path d="M294.212 511.929C295.914 507.719 297.9 503.437 299.886 499.298C300.879 497.3 301.73 495.302 302.723 493.233C310.242 497.871 317.76 502.509 325.137 507.148C327.69 508.718 330.244 510.287 332.797 511.857L338.33 511.857C326.839 504.793 315.491 497.657 304 490.592C303.149 490.093 302.014 489.736 300.737 489.094C300.17 489.879 299.603 490.378 299.461 490.878C296.34 497.871 292.793 504.793 289.956 511.786L294.212 511.786L294.212 511.929Z" fill="white" fill-opacity="0.08"/>
<path d="M1279.27 427.012C1279.27 426.298 1278.7 425.584 1277.71 424.799C1275.72 423.301 1274.02 421.66 1272.32 420.09C1255.15 405.318 1237.99 390.547 1220.82 375.776C1219.69 374.848 1218.41 373.921 1216.71 372.707C1215.57 373.706 1214.87 374.206 1214.3 374.777C1207.91 381.627 1201.67 388.549 1195.01 395.328C1180.68 410.028 1166.21 424.657 1151.6 439.285C1150.75 440.213 1150.18 440.998 1150.18 441.783C1150.18 442.639 1150.75 443.424 1152.02 444.28C1155.85 447.063 1159.4 450.061 1162.8 452.986C1177.84 465.688 1190.75 478.961 1202.67 492.376C1203.52 493.304 1204.51 494.232 1206.07 495.73C1209.47 492.662 1212.31 490.093 1215.15 487.524C1236.14 468.043 1257 448.562 1277.99 429.152C1278.84 428.367 1279.27 427.725 1279.27 427.012ZM1211.46 486.525C1209.76 488.023 1208.06 489.593 1206.35 491.163C1191.88 475.036 1179.54 462.905 1166.49 451.844L1166.21 451.63C1162.8 448.776 1159.4 445.85 1155.57 443.067C1154.72 442.425 1154.58 441.997 1154.58 441.783C1154.58 441.426 1154.86 440.927 1155.57 440.284C1170.04 425.798 1184.65 411.027 1198.98 396.327C1203.38 391.76 1207.77 387.122 1211.89 382.626C1213.73 380.7 1215.43 378.773 1217.28 376.846C1234.44 391.546 1251.46 406.175 1268.49 420.875L1268.77 421.089C1269.34 421.588 1269.91 422.159 1270.62 422.659C1271.75 423.729 1273.03 424.799 1274.45 425.87C1275.15 426.441 1275.3 426.726 1275.3 426.869C1275.3 427.154 1275.01 427.511 1274.59 428.011C1259.27 442.14 1243.8 456.554 1228.91 470.469C1222.81 475.892 1217.14 481.244 1211.46 486.525Z" fill="white" fill-opacity="0.08"/>
<path d="M1337.71 485.098C1325.8 494.018 1313.74 503.009 1301.82 511.929L1306.93 511.929C1311.19 508.789 1315.3 505.649 1319.56 502.581C1326.79 497.157 1334.03 491.734 1341.4 486.311C1341.4 486.239 1341.54 486.239 1341.54 486.168L1362.82 504.793L1370.91 511.929L1375.87 511.929C1364.67 502.081 1353.32 492.234 1341.97 482.315C1340.27 483.456 1338.99 484.241 1337.71 485.098Z" fill="white" fill-opacity="0.08"/>
</svg>
