<svg width="109" height="258" viewBox="0 0 109 258" fill="none" xmlns="http://www.w3.org/2000/svg">
<path d="M4.59621 49.6C2.05987 49.6 0 51.6599 0 54.1962C0 56.7402 2.05987 58.8 4.59621 58.8C7.14023 58.8 9.2 56.7402 9.2 54.1962C9.2 51.6599 7.14023 49.6 4.59621 49.6Z" fill="#FF1A2D" fill-opacity="0.08"/>
<path d="M29.5999 49.6C26.9511 49.6 24.8 51.6599 24.8 54.1962C24.8 56.7402 26.9511 58.8 29.5999 58.8C32.2488 58.8 34.4 56.7402 34.4 54.1962C34.4 51.6599 32.2488 49.6 29.5999 49.6Z" fill="#FF1A2D" fill-opacity="0.08"/>
<path d="M54.404 49.6C51.7493 49.6 49.6 51.6599 49.6 54.1962C49.6 56.7402 51.7493 58.8 54.404 58.8C57.0506 58.8 59.2 56.7402 59.2 54.1962C59.2 51.6599 57.0506 49.6 54.404 49.6Z" fill="#FF1A2D" fill-opacity="0.08"/>
<path d="M79.3962 49.6C76.8599 49.6 74.8 51.6599 74.8 54.1962C74.8 56.7402 76.8599 58.8 79.3962 58.8C81.9402 58.8 84 56.7402 84 54.1962C84 51.6599 81.9402 49.6 79.3962 49.6Z" fill="#FF1A2D" fill-opacity="0.08"/>
<path d="M104.2 58.8C106.738 58.8 108.8 56.7402 108.8 54.1962C108.8 51.6599 106.738 49.6 104.2 49.6C101.654 49.6 99.6 51.6599 99.6 54.1962C99.6 56.7402 101.654 58.8 104.2 58.8Z" fill="#FF1A2D" fill-opacity="0.08"/>
<path d="M4.59621 74.4C2.05987 74.4 0 76.4538 0 79C0 81.5384 2.05987 83.6 4.59621 83.6C7.14023 83.6 9.2 81.5384 9.2 79C9.2 76.4538 7.14023 74.4 4.59621 74.4Z" fill="#FF1A2D" fill-opacity="0.08"/>
<path d="M29.5999 74.4C26.9511 74.4 24.8 76.4538 24.8 79C24.8 81.5384 26.9511 83.6 29.5999 83.6C32.2488 83.6 34.4 81.5384 34.4 79C34.4 76.4538 32.2488 74.4 29.5999 74.4Z" fill="#FF1A2D" fill-opacity="0.08"/>
<path d="M54.404 74.4C51.7493 74.4 49.6 76.4538 49.6 79C49.6 81.5384 51.7493 83.6 54.404 83.6C57.0506 83.6 59.2 81.5384 59.2 79C59.2 76.4538 57.0506 74.4 54.404 74.4Z" fill="#FF1A2D" fill-opacity="0.08"/>
<path d="M79.3962 74.4C76.8599 74.4 74.8 76.4538 74.8 79C74.8 81.5384 76.8599 83.6 79.3962 83.6C81.9402 83.6 84 81.5384 84 79C84 76.4538 81.9402 74.4 79.3962 74.4Z" fill="#FF1A2D" fill-opacity="0.08"/>
<path d="M104.2 74.4C101.654 74.4 99.6 76.4538 99.6 79C99.6 81.5384 101.654 83.6 104.2 83.6C106.738 83.6 108.8 81.5384 108.8 79C108.8 76.4538 106.738 74.4 104.2 74.4Z" fill="#FF1A2D" fill-opacity="0.08"/>
<path d="M4.59621 99.2C2.05987 99.2 0 101.349 0 104.004C0 106.651 2.05987 108.8 4.59621 108.8C7.14023 108.8 9.2 106.651 9.2 104.004C9.2 101.349 7.14023 99.2 4.59621 99.2Z" fill="#FF1A2D" fill-opacity="0.08"/>
<path d="M29.5999 99.2C26.9511 99.2 24.8 101.349 24.8 104.004C24.8 106.651 26.9511 108.8 29.5999 108.8C32.2488 108.8 34.4 106.651 34.4 104.004C34.4 101.349 32.2488 99.2 29.5999 99.2Z" fill="#FF1A2D" fill-opacity="0.08"/>
<path d="M54.404 99.2C51.7493 99.2 49.6 101.349 49.6 104.004C49.6 106.651 51.7493 108.8 54.404 108.8C57.0506 108.8 59.2 106.651 59.2 104.004C59.2 101.349 57.0506 99.2 54.404 99.2Z" fill="#FF1A2D" fill-opacity="0.08"/>
<path d="M79.3962 99.2C76.8599 99.2 74.8 101.349 74.8 104.004C74.8 106.651 76.8599 108.8 79.3962 108.8C81.9402 108.8 84 106.651 84 104.004C84 101.349 81.9402 99.2 79.3962 99.2Z" fill="#FF1A2D" fill-opacity="0.08"/>
<path d="M54.404 1.23978e-05C51.7493 1.23978e-05 49.6 2.06153 49.6 4.59997C49.6 7.14612 51.7493 9.20001 54.404 9.20001C57.0506 9.20001 59.2 7.14612 59.2 4.59997C59.2 2.06153 57.0506 1.23978e-05 54.404 1.23978e-05Z" fill="#FF1A2D" fill-opacity="0.08"/>
<path d="M29.5999 24.8C26.9511 24.8 24.8 26.8598 24.8 29.4038C24.8 31.9402 26.9511 34 29.5999 34C32.2488 34 34.4 31.9402 34.4 29.4038C34.4 26.8598 32.2488 24.8 29.5999 24.8Z" fill="#FF1A2D" fill-opacity="0.08"/>
<path d="M54.404 24.8C51.7493 24.8 49.6 26.8598 49.6 29.4038C49.6 31.9402 51.7493 34 54.404 34C57.0506 34 59.2 31.9402 59.2 29.4038C59.2 26.8598 57.0506 24.8 54.404 24.8Z" fill="#FF1A2D" fill-opacity="0.08"/>
<path d="M79.3962 24.8C76.8599 24.8 74.8 26.8598 74.8 29.4038C74.8 31.9402 76.8599 34 79.3962 34C81.9402 34 84 31.9402 84 29.4038C84 26.8598 81.9402 24.8 79.3962 24.8Z" fill="#FF1A2D" fill-opacity="0.08"/>
<path d="M79.3962 149.2C76.8599 149.2 74.8 151.26 74.8 153.804C74.8 156.34 76.8599 158.4 79.3962 158.4C81.9402 158.4 84 156.34 84 153.804C84 151.26 81.9402 149.2 79.3962 149.2Z" fill="#FF1A2D" fill-opacity="0.08"/>
<path d="M54.404 149.2C51.7493 149.2 49.6 151.26 49.6 153.804C49.6 156.34 51.7493 158.4 54.404 158.4C57.0506 158.4 59.2 156.34 59.2 153.804C59.2 151.26 57.0506 149.2 54.404 149.2Z" fill="#FF1A2D" fill-opacity="0.08"/>
<path d="M29.5999 149.2C26.9511 149.2 24.8 151.26 24.8 153.804C24.8 156.34 26.9511 158.4 29.5999 158.4C32.2488 158.4 34.4 156.34 34.4 153.804C34.4 151.26 32.2488 149.2 29.5999 149.2Z" fill="#FF1A2D" fill-opacity="0.08"/>
<path d="M56.385 174.792C55.7433 174.477 55.1739 174 54.404 174C51.7493 174 49.6 176.06 49.6 178.596C49.6 181.14 51.7493 183.2 54.404 183.2C57.0506 183.2 59.2 181.14 59.2 178.596C59.2 176.805 57.9569 175.545 56.385 174.792Z" fill="#FF1A2D" fill-opacity="0.08"/>
<path d="M104.2 99.2C101.654 99.2 99.6 101.349 99.6 104.004C99.6 106.651 101.654 108.8 104.2 108.8C106.738 108.8 108.8 106.651 108.8 104.004C108.8 101.349 106.738 99.2 104.2 99.2Z" fill="#FF1A2D" fill-opacity="0.08"/>
<path d="M4.59621 124.4C2.05987 124.4 0 126.462 0 129C0 131.546 2.05987 133.6 4.59621 133.6C7.14023 133.6 9.2 131.546 9.2 129C9.2 126.462 7.14023 124.4 4.59621 124.4Z" fill="#FF1A2D" fill-opacity="0.08"/>
<path d="M29.5999 124.4C26.9511 124.4 24.8 126.462 24.8 129C24.8 131.546 26.9511 133.6 29.5999 133.6C32.2488 133.6 34.4 131.546 34.4 129C34.4 126.462 32.2488 124.4 29.5999 124.4Z" fill="#FF1A2D" fill-opacity="0.08"/>
<path d="M54.404 124.4C51.7493 124.4 49.6 126.462 49.6 129C49.6 131.546 51.7493 133.6 54.404 133.6C57.0506 133.6 59.2 131.546 59.2 129C59.2 126.462 57.0506 124.4 54.404 124.4Z" fill="#FF1A2D" fill-opacity="0.08"/>
<path d="M79.3962 124.4C76.8599 124.4 74.8 126.462 74.8 129C74.8 131.546 76.8599 133.6 79.3962 133.6C81.9402 133.6 84 131.546 84 129C84 126.462 81.9402 124.4 79.3962 124.4Z" fill="#FF1A2D" fill-opacity="0.08"/>
<path d="M104.2 124.4C101.654 124.4 99.6 126.462 99.6 129C99.6 131.546 101.654 133.6 104.2 133.6C106.738 133.6 108.8 131.546 108.8 129C108.8 126.462 106.738 124.4 104.2 124.4Z" fill="#FF1A2D" fill-opacity="0.08"/>
<path d="M4.59621 149.2C2.05987 149.2 0 151.26 0 153.804C0 156.34 2.05987 158.4 4.59621 158.4C7.14023 158.4 9.2 156.34 9.2 153.804C9.2 151.26 7.14023 149.2 4.59621 149.2Z" fill="#FF1A2D" fill-opacity="0.08"/>
<path d="M104.2 149.2C101.654 149.2 99.6 151.26 99.6 153.804C99.6 156.34 101.654 158.4 104.2 158.4C106.738 158.4 108.8 156.34 108.8 153.804C108.8 151.26 106.738 149.2 104.2 149.2Z" fill="#FF1A2D" fill-opacity="0.08"/>
<path d="M79.3962 198.8C76.8599 198.8 74.8 200.861 74.8 203.4C74.8 205.946 76.8599 208 79.3962 208C81.9402 208 84 205.946 84 203.4C84 200.861 81.9402 198.8 79.3962 198.8Z" fill="#FF1A2D" fill-opacity="0.08"/>
<path d="M54.404 198.8C51.7493 198.8 49.6 200.861 49.6 203.4C49.6 205.946 51.7493 208 54.404 208C57.0506 208 59.2 205.946 59.2 203.4C59.2 200.861 57.0506 198.8 54.404 198.8Z" fill="#FF1A2D" fill-opacity="0.08"/>
<path d="M29.5999 198.8C26.9511 198.8 24.8 200.861 24.8 203.4C24.8 205.946 26.9511 208 29.5999 208C32.2488 208 34.4 205.946 34.4 203.4C34.4 200.861 32.2488 198.8 29.5999 198.8Z" fill="#FF1A2D" fill-opacity="0.08"/>
<path d="M54.404 248.4C51.7493 248.4 49.6 250.549 49.6 253.196C49.6 255.851 51.7493 258 54.404 258C57.0506 258 59.2 255.851 59.2 253.196C59.2 250.549 57.0506 248.4 54.404 248.4Z" fill="#FF1A2D" fill-opacity="0.08"/>
<path d="M79.3962 223.6C76.8599 223.6 74.8 225.749 74.8 228.404C74.8 231.051 76.8599 233.2 79.3962 233.2C81.9402 233.2 84 231.051 84 228.404C84 225.749 81.9402 223.6 79.3962 223.6Z" fill="#FF1A2D" fill-opacity="0.08"/>
<path d="M54.404 223.6C51.7493 223.6 49.6 225.749 49.6 228.404C49.6 231.051 51.7493 233.2 54.404 233.2C57.0506 233.2 59.2 231.051 59.2 228.404C59.2 225.749 57.0506 223.6 54.404 223.6Z" fill="#FF1A2D" fill-opacity="0.08"/>
<path d="M29.5999 223.6C26.9511 223.6 24.8 225.749 24.8 228.404C24.8 231.051 26.9511 233.2 29.5999 233.2C32.2488 233.2 34.4 231.051 34.4 228.404C34.4 225.749 32.2488 223.6 29.5999 223.6Z" fill="#FF1A2D" fill-opacity="0.08"/>
<path d="M4.59621 174C2.05987 174 0 176.06 0 178.596C0 181.14 2.05987 183.2 4.59621 183.2C7.14023 183.2 9.2 181.14 9.2 178.596C9.2 176.06 7.14023 174 4.59621 174Z" fill="#FF1A2D" fill-opacity="0.08"/>
<path d="M29.5999 174C28.2755 174 27.0715 174.515 26.2047 175.345C25.3378 176.183 24.8 177.328 24.8 178.596C24.8 181.14 26.9511 183.2 29.5999 183.2C32.2488 183.2 34.4 181.14 34.4 178.596C34.4 177.328 33.8622 176.183 32.9953 175.345C32.1284 174.515 30.9244 174 29.5999 174Z" fill="#FF1A2D" fill-opacity="0.08"/>
<path d="M79.3962 174C78.128 174 76.9751 174.515 76.145 175.345C75.3149 176.183 74.8 177.328 74.8 178.596C74.8 181.14 76.8599 183.2 79.3962 183.2C81.9402 183.2 84 181.14 84 178.596C84 177.328 83.4851 176.183 82.6473 175.345C81.8172 174.515 80.6721 174 79.3962 174Z" fill="#FF1A2D" fill-opacity="0.08"/>
<path d="M104.2 174C101.654 174 99.6 176.06 99.6 178.596C99.6 181.14 101.654 183.2 104.2 183.2C106.738 183.2 108.8 181.14 108.8 178.596C108.8 176.06 106.738 174 104.2 174Z" fill="#FF1A2D" fill-opacity="0.08"/>
<path d="M4.59621 198.8C2.05987 198.8 0 200.854 0 203.4C0 205.938 2.05987 208 4.59621 208C7.14023 208 9.2 205.938 9.2 203.4C9.2 200.854 7.14023 198.8 4.59621 198.8Z" fill="#FF1A2D" fill-opacity="0.08"/>
<path d="M104.2 198.8C101.654 198.8 99.6 200.854 99.6 203.4C99.6 205.938 101.654 208 104.2 208C106.738 208 108.8 205.938 108.8 203.4C108.8 200.854 106.738 198.8 104.2 198.8Z" fill="#FF1A2D" fill-opacity="0.08"/>
</svg>
