<svg width="1353" height="8" viewBox="0 0 1353 8" fill="none" xmlns="http://www.w3.org/2000/svg">
<path d="M3.99861 4.76837e-07C1.7908 4.76837e-07 0 1.79009 0 3.99651C0 6.20987 1.7908 8 3.99861 8C6.20711 8 7.99724 6.20987 7.99724 3.99651C7.99724 1.79009 6.20711 4.76837e-07 3.99861 4.76837e-07Z" fill="#FF1A2D" fill-opacity="0.08"/>
<path d="M123.999 4.76837e-07C121.791 4.76837e-07 120 1.79009 120 3.99651C120 6.20987 121.791 8 123.999 8C126.207 8 127.997 6.20987 127.997 3.99651C127.997 1.79009 126.207 4.76837e-07 123.999 4.76837e-07Z" fill="#FF1A2D" fill-opacity="0.08"/>
<path d="M243.999 4.76837e-07C241.791 4.76837e-07 240 1.79009 240 3.99651C240 6.20987 241.791 8 243.999 8C246.207 8 247.997 6.20987 247.997 3.99651C247.997 1.79009 246.207 4.76837e-07 243.999 4.76837e-07Z" fill="#FF1A2D" fill-opacity="0.08"/>
<path d="M363.999 4.76837e-07C361.791 4.76837e-07 360 1.79009 360 3.99651C360 6.20987 361.791 8 363.999 8C366.207 8 367.997 6.20987 367.997 3.99651C367.997 1.79009 366.207 4.76837e-07 363.999 4.76837e-07Z" fill="#FF1A2D" fill-opacity="0.08"/>
<path d="M483.999 4.76837e-07C481.791 4.76837e-07 480 1.79009 480 3.99651C480 6.20987 481.791 8 483.999 8C486.207 8 487.997 6.20987 487.997 3.99651C487.997 1.79009 486.207 4.76837e-07 483.999 4.76837e-07Z" fill="#FF1A2D" fill-opacity="0.08"/>
<path d="M603.999 4.76837e-07C601.791 4.76837e-07 600 1.79009 600 3.99651C600 6.20987 601.791 8 603.999 8C606.207 8 607.997 6.20987 607.997 3.99651C607.997 1.79009 606.207 4.76837e-07 603.999 4.76837e-07Z" fill="#FF1A2D" fill-opacity="0.08"/>
<path d="M723.999 4.76837e-07C721.791 4.76837e-07 720 1.79009 720 3.99651C720 6.20987 721.791 8 723.999 8C726.207 8 727.997 6.20987 727.997 3.99651C727.997 1.79009 726.207 4.76837e-07 723.999 4.76837e-07Z" fill="#FF1A2D" fill-opacity="0.08"/>
<path d="M843.999 4.76837e-07C841.791 4.76837e-07 840 1.79009 840 3.99651C840 6.20987 841.791 8 843.999 8C846.207 8 847.997 6.20987 847.997 3.99651C847.997 1.79009 846.207 4.76837e-07 843.999 4.76837e-07Z" fill="#FF1A2D" fill-opacity="0.08"/>
<path d="M963.999 4.76837e-07C961.791 4.76837e-07 960 1.79009 960 3.99651C960 6.20987 961.791 8 963.999 8C966.207 8 967.997 6.20987 967.997 3.99651C967.997 1.79009 966.207 4.76837e-07 963.999 4.76837e-07Z" fill="#FF1A2D" fill-opacity="0.08"/>
<path d="M27.9937 4.76837e-07C25.7859 4.76837e-07 23.9944 1.79009 23.9944 3.99651C23.9944 6.20987 25.7859 8 27.9937 8C30.2015 8 31.9923 6.20987 31.9923 3.99651C31.9923 1.79009 30.2015 4.76837e-07 27.9937 4.76837e-07Z" fill="#FF1A2D" fill-opacity="0.08"/>
<path d="M147.994 4.76837e-07C145.786 4.76837e-07 143.994 1.79009 143.994 3.99651C143.994 6.20987 145.786 8 147.994 8C150.202 8 151.992 6.20987 151.992 3.99651C151.992 1.79009 150.202 4.76837e-07 147.994 4.76837e-07Z" fill="#FF1A2D" fill-opacity="0.08"/>
<path d="M267.994 4.76837e-07C265.786 4.76837e-07 263.994 1.79009 263.994 3.99651C263.994 6.20987 265.786 8 267.994 8C270.202 8 271.992 6.20987 271.992 3.99651C271.992 1.79009 270.202 4.76837e-07 267.994 4.76837e-07Z" fill="#FF1A2D" fill-opacity="0.08"/>
<path d="M387.994 4.76837e-07C385.786 4.76837e-07 383.994 1.79009 383.994 3.99651C383.994 6.20987 385.786 8 387.994 8C390.202 8 391.992 6.20987 391.992 3.99651C391.992 1.79009 390.202 4.76837e-07 387.994 4.76837e-07Z" fill="#FF1A2D" fill-opacity="0.08"/>
<path d="M507.994 4.76837e-07C505.786 4.76837e-07 503.994 1.79009 503.994 3.99651C503.994 6.20987 505.786 8 507.994 8C510.202 8 511.992 6.20987 511.992 3.99651C511.992 1.79009 510.202 4.76837e-07 507.994 4.76837e-07Z" fill="#FF1A2D" fill-opacity="0.08"/>
<path d="M627.994 4.76837e-07C625.786 4.76837e-07 623.994 1.79009 623.994 3.99651C623.994 6.20987 625.786 8 627.994 8C630.202 8 631.992 6.20987 631.992 3.99651C631.992 1.79009 630.202 4.76837e-07 627.994 4.76837e-07Z" fill="#FF1A2D" fill-opacity="0.08"/>
<path d="M747.994 4.76837e-07C745.786 4.76837e-07 743.994 1.79009 743.994 3.99651C743.994 6.20987 745.786 8 747.994 8C750.202 8 751.992 6.20987 751.992 3.99651C751.992 1.79009 750.202 4.76837e-07 747.994 4.76837e-07Z" fill="#FF1A2D" fill-opacity="0.08"/>
<path d="M867.994 4.76837e-07C865.786 4.76837e-07 863.994 1.79009 863.994 3.99651C863.994 6.20987 865.786 8 867.994 8C870.202 8 871.992 6.20987 871.992 3.99651C871.992 1.79009 870.202 4.76837e-07 867.994 4.76837e-07Z" fill="#FF1A2D" fill-opacity="0.08"/>
<path d="M987.994 4.76837e-07C985.786 4.76837e-07 983.994 1.79009 983.994 3.99651C983.994 6.20987 985.786 8 987.994 8C990.202 8 991.992 6.20987 991.992 3.99651C991.992 1.79009 990.202 4.76837e-07 987.994 4.76837e-07Z" fill="#FF1A2D" fill-opacity="0.08"/>
<path d="M51.9882 4.76837e-07C49.7803 4.76837e-07 47.9902 1.79009 47.9902 3.99651C47.9902 6.20987 49.7803 8 51.9882 8C54.1967 8 55.9875 6.20987 55.9875 3.99651C55.9875 1.79009 54.1967 4.76837e-07 51.9882 4.76837e-07Z" fill="#FF1A2D" fill-opacity="0.08"/>
<path d="M171.988 4.76837e-07C169.78 4.76837e-07 167.99 1.79009 167.99 3.99651C167.99 6.20987 169.78 8 171.988 8C174.197 8 175.987 6.20987 175.987 3.99651C175.987 1.79009 174.197 4.76837e-07 171.988 4.76837e-07Z" fill="#FF1A2D" fill-opacity="0.08"/>
<path d="M291.988 4.76837e-07C289.78 4.76837e-07 287.99 1.79009 287.99 3.99651C287.99 6.20987 289.78 8 291.988 8C294.197 8 295.987 6.20987 295.987 3.99651C295.987 1.79009 294.197 4.76837e-07 291.988 4.76837e-07Z" fill="#FF1A2D" fill-opacity="0.08"/>
<path d="M411.988 4.76837e-07C409.78 4.76837e-07 407.99 1.79009 407.99 3.99651C407.99 6.20987 409.78 8 411.988 8C414.197 8 415.987 6.20987 415.987 3.99651C415.987 1.79009 414.197 4.76837e-07 411.988 4.76837e-07Z" fill="#FF1A2D" fill-opacity="0.08"/>
<path d="M531.988 4.76837e-07C529.78 4.76837e-07 527.99 1.79009 527.99 3.99651C527.99 6.20987 529.78 8 531.988 8C534.197 8 535.987 6.20987 535.987 3.99651C535.987 1.79009 534.197 4.76837e-07 531.988 4.76837e-07Z" fill="#FF1A2D" fill-opacity="0.08"/>
<path d="M651.988 4.76837e-07C649.78 4.76837e-07 647.99 1.79009 647.99 3.99651C647.99 6.20987 649.78 8 651.988 8C654.197 8 655.987 6.20987 655.987 3.99651C655.987 1.79009 654.197 4.76837e-07 651.988 4.76837e-07Z" fill="#FF1A2D" fill-opacity="0.08"/>
<path d="M771.988 4.76837e-07C769.78 4.76837e-07 767.99 1.79009 767.99 3.99651C767.99 6.20987 769.78 8 771.988 8C774.197 8 775.987 6.20987 775.987 3.99651C775.987 1.79009 774.197 4.76837e-07 771.988 4.76837e-07Z" fill="#FF1A2D" fill-opacity="0.08"/>
<path d="M891.988 4.76837e-07C889.78 4.76837e-07 887.99 1.79009 887.99 3.99651C887.99 6.20987 889.78 8 891.988 8C894.197 8 895.987 6.20987 895.987 3.99651C895.987 1.79009 894.197 4.76837e-07 891.988 4.76837e-07Z" fill="#FF1A2D" fill-opacity="0.08"/>
<path d="M1011.99 4.76837e-07C1009.78 4.76837e-07 1007.99 1.79009 1007.99 3.99651C1007.99 6.20987 1009.78 8 1011.99 8C1014.2 8 1015.99 6.20987 1015.99 3.99651C1015.99 1.79009 1014.2 4.76837e-07 1011.99 4.76837e-07Z" fill="#FF1A2D" fill-opacity="0.08"/>
<path d="M75.9835 4.76837e-07C73.775 4.76837e-07 71.9849 1.79009 71.9849 3.99651C71.9849 6.20987 73.775 8 75.9835 8C78.1913 8 79.9828 6.20987 79.9828 3.99651C79.9828 1.79009 78.1913 4.76837e-07 75.9835 4.76837e-07Z" fill="#FF1A2D" fill-opacity="0.08"/>
<path d="M195.983 4.76837e-07C193.775 4.76837e-07 191.985 1.79009 191.985 3.99651C191.985 6.20987 193.775 8 195.983 8C198.191 8 199.983 6.20987 199.983 3.99651C199.983 1.79009 198.191 4.76837e-07 195.983 4.76837e-07Z" fill="#FF1A2D" fill-opacity="0.08"/>
<path d="M315.983 4.76837e-07C313.775 4.76837e-07 311.985 1.79009 311.985 3.99651C311.985 6.20987 313.775 8 315.983 8C318.191 8 319.983 6.20987 319.983 3.99651C319.983 1.79009 318.191 4.76837e-07 315.983 4.76837e-07Z" fill="#FF1A2D" fill-opacity="0.08"/>
<path d="M435.983 4.76837e-07C433.775 4.76837e-07 431.985 1.79009 431.985 3.99651C431.985 6.20987 433.775 8 435.983 8C438.191 8 439.983 6.20987 439.983 3.99651C439.983 1.79009 438.191 4.76837e-07 435.983 4.76837e-07Z" fill="#FF1A2D" fill-opacity="0.08"/>
<path d="M555.983 4.76837e-07C553.775 4.76837e-07 551.985 1.79009 551.985 3.99651C551.985 6.20987 553.775 8 555.983 8C558.191 8 559.983 6.20987 559.983 3.99651C559.983 1.79009 558.191 4.76837e-07 555.983 4.76837e-07Z" fill="#FF1A2D" fill-opacity="0.08"/>
<path d="M675.983 4.76837e-07C673.775 4.76837e-07 671.985 1.79009 671.985 3.99651C671.985 6.20987 673.775 8 675.983 8C678.191 8 679.983 6.20987 679.983 3.99651C679.983 1.79009 678.191 4.76837e-07 675.983 4.76837e-07Z" fill="#FF1A2D" fill-opacity="0.08"/>
<path d="M795.983 4.76837e-07C793.775 4.76837e-07 791.985 1.79009 791.985 3.99651C791.985 6.20987 793.775 8 795.983 8C798.191 8 799.983 6.20987 799.983 3.99651C799.983 1.79009 798.191 4.76837e-07 795.983 4.76837e-07Z" fill="#FF1A2D" fill-opacity="0.08"/>
<path d="M915.983 4.76837e-07C913.775 4.76837e-07 911.985 1.79009 911.985 3.99651C911.985 6.20987 913.775 8 915.983 8C918.191 8 919.983 6.20987 919.983 3.99651C919.983 1.79009 918.191 4.76837e-07 915.983 4.76837e-07Z" fill="#FF1A2D" fill-opacity="0.08"/>
<path d="M1035.98 4.76837e-07C1033.77 4.76837e-07 1031.98 1.79009 1031.98 3.99651C1031.98 6.20987 1033.77 8 1035.98 8C1038.19 8 1039.98 6.20987 1039.98 3.99651C1039.98 1.79009 1038.19 4.76837e-07 1035.98 4.76837e-07Z" fill="#FF1A2D" fill-opacity="0.08"/>
<path d="M99.9786 8C102.188 8 103.977 6.20987 103.977 3.99651C103.977 1.79009 102.188 4.76837e-07 99.9786 4.76837e-07C97.7708 4.76837e-07 95.9807 1.79009 95.9807 3.99651C95.9807 6.20987 97.7708 8 99.9786 8Z" fill="#FF1A2D" fill-opacity="0.08"/>
<path d="M219.979 8C222.188 8 223.977 6.20987 223.977 3.99651C223.977 1.79009 222.188 4.76837e-07 219.979 4.76837e-07C217.771 4.76837e-07 215.981 1.79009 215.981 3.99651C215.981 6.20987 217.771 8 219.979 8Z" fill="#FF1A2D" fill-opacity="0.08"/>
<path d="M339.979 8C342.188 8 343.977 6.20987 343.977 3.99651C343.977 1.79009 342.188 4.76837e-07 339.979 4.76837e-07C337.771 4.76837e-07 335.981 1.79009 335.981 3.99651C335.981 6.20987 337.771 8 339.979 8Z" fill="#FF1A2D" fill-opacity="0.08"/>
<path d="M459.979 8C462.188 8 463.977 6.20987 463.977 3.99651C463.977 1.79009 462.188 4.76837e-07 459.979 4.76837e-07C457.771 4.76837e-07 455.981 1.79009 455.981 3.99651C455.981 6.20987 457.771 8 459.979 8Z" fill="#FF1A2D" fill-opacity="0.08"/>
<path d="M579.979 8C582.188 8 583.977 6.20987 583.977 3.99651C583.977 1.79009 582.188 4.76837e-07 579.979 4.76837e-07C577.771 4.76837e-07 575.981 1.79009 575.981 3.99651C575.981 6.20987 577.771 8 579.979 8Z" fill="#FF1A2D" fill-opacity="0.08"/>
<path d="M699.979 8C702.188 8 703.977 6.20987 703.977 3.99651C703.977 1.79009 702.188 4.76837e-07 699.979 4.76837e-07C697.771 4.76837e-07 695.981 1.79009 695.981 3.99651C695.981 6.20987 697.771 8 699.979 8Z" fill="#FF1A2D" fill-opacity="0.08"/>
<path d="M819.979 8C822.188 8 823.977 6.20987 823.977 3.99651C823.977 1.79009 822.188 4.76837e-07 819.979 4.76837e-07C817.771 4.76837e-07 815.981 1.79009 815.981 3.99651C815.981 6.20987 817.771 8 819.979 8Z" fill="#FF1A2D" fill-opacity="0.08"/>
<path d="M939.979 8C942.188 8 943.977 6.20987 943.977 3.99651C943.977 1.79009 942.188 4.76837e-07 939.979 4.76837e-07C937.771 4.76837e-07 935.981 1.79009 935.981 3.99651C935.981 6.20987 937.771 8 939.979 8Z" fill="#FF1A2D" fill-opacity="0.08"/>
<path d="M1059.98 8C1062.19 8 1063.98 6.20987 1063.98 3.99651C1063.98 1.79009 1062.19 4.76837e-07 1059.98 4.76837e-07C1057.77 4.76837e-07 1055.98 1.79009 1055.98 3.99651C1055.98 6.20987 1057.77 8 1059.98 8Z" fill="#FF1A2D" fill-opacity="0.08"/>
<path d="M1084 8C1086.21 8 1088 6.20987 1088 3.99651C1088 1.79009 1086.21 4.76837e-07 1084 4.76837e-07C1081.79 4.76837e-07 1080 1.79009 1080 3.99651C1080 6.20987 1081.79 8 1084 8Z" fill="#FF1A2D" fill-opacity="0.08"/>
<path d="M1108.02 8C1110.23 8 1112.02 6.20987 1112.02 3.99651C1112.02 1.79009 1110.23 4.76837e-07 1108.02 4.76837e-07C1105.81 4.76837e-07 1104.02 1.79009 1104.02 3.99651C1104.02 6.20987 1105.81 8 1108.02 8Z" fill="#FF1A2D" fill-opacity="0.08"/>
<path d="M1132.04 8C1134.25 8 1136.04 6.20987 1136.04 3.99651C1136.04 1.79009 1134.25 4.76837e-07 1132.04 4.76837e-07C1129.83 4.76837e-07 1128.04 1.79009 1128.04 3.99651C1128.04 6.20987 1129.83 8 1132.04 8Z" fill="#FF1A2D" fill-opacity="0.08"/>
<path d="M1156.06 8C1158.26 8 1160.05 6.20987 1160.05 3.99651C1160.05 1.79009 1158.26 4.76837e-07 1156.06 4.76837e-07C1153.85 4.76837e-07 1152.06 1.79009 1152.06 3.99651C1152.06 6.20987 1153.85 8 1156.06 8Z" fill="#FF1A2D" fill-opacity="0.08"/>
<path d="M1180.08 8C1182.28 8 1184.07 6.20987 1184.07 3.99651C1184.07 1.79009 1182.28 4.76837e-07 1180.08 4.76837e-07C1177.87 4.76837e-07 1176.08 1.79009 1176.08 3.99651C1176.08 6.20987 1177.87 8 1180.08 8Z" fill="#FF1A2D" fill-opacity="0.08"/>
<path d="M1204.09 8C1206.3 8 1208.09 6.20987 1208.09 3.99651C1208.09 1.79009 1206.3 4.76837e-07 1204.09 4.76837e-07C1201.89 4.76837e-07 1200.1 1.79009 1200.1 3.99651C1200.1 6.20987 1201.89 8 1204.09 8Z" fill="#FF1A2D" fill-opacity="0.08"/>
<path d="M1228.11 8C1230.32 8 1232.11 6.20987 1232.11 3.99651C1232.11 1.79009 1230.32 4.76837e-07 1228.11 4.76837e-07C1225.91 4.76837e-07 1224.12 1.79009 1224.12 3.99651C1224.12 6.20987 1225.91 8 1228.11 8Z" fill="#FF1A2D" fill-opacity="0.08"/>
<path d="M1252.13 8C1254.34 8 1256.13 6.20987 1256.13 3.99651C1256.13 1.79009 1254.34 4.76837e-07 1252.13 4.76837e-07C1249.93 4.76837e-07 1248.14 1.79009 1248.14 3.99651C1248.14 6.20987 1249.93 8 1252.13 8Z" fill="#FF1A2D" fill-opacity="0.08"/>
<path d="M1276.15 8C1278.36 8 1280.15 6.20987 1280.15 3.99651C1280.15 1.79009 1278.36 4.76837e-07 1276.15 4.76837e-07C1273.94 4.76837e-07 1272.15 1.79009 1272.15 3.99651C1272.15 6.20987 1273.94 8 1276.15 8Z" fill="#FF1A2D" fill-opacity="0.08"/>
<path d="M1300.17 8C1302.38 8 1304.17 6.20987 1304.17 3.99651C1304.17 1.79009 1302.38 4.76837e-07 1300.17 4.76837e-07C1297.96 4.76837e-07 1296.17 1.79009 1296.17 3.99651C1296.17 6.20987 1297.96 8 1300.17 8Z" fill="#FF1A2D" fill-opacity="0.08"/>
<path d="M1324.19 8C1326.4 8 1328.19 6.20987 1328.19 3.99651C1328.19 1.79009 1326.4 4.76837e-07 1324.19 4.76837e-07C1321.98 4.76837e-07 1320.19 1.79009 1320.19 3.99651C1320.19 6.20987 1321.98 8 1324.19 8Z" fill="#FF1A2D" fill-opacity="0.08"/>
<path d="M1348.21 8C1350.42 8 1352.21 6.20987 1352.21 3.99651C1352.21 1.79009 1350.42 4.76837e-07 1348.21 4.76837e-07C1346 4.76837e-07 1344.21 1.79009 1344.21 3.99651C1344.21 6.20987 1346 8 1348.21 8Z" fill="#FF1A2D" fill-opacity="0.08"/>
</svg>
