<svg width="1439" height="735" viewBox="0 0 1439 735" fill="none" xmlns="http://www.w3.org/2000/svg">
<path d="M2.69476 2.50237C8.65159 -7.28385 14.4666 -17.07 20.2816 -26.8562C20.5652 -27.4235 20.5652 -28.2745 20.5652 -28.8419C18.4378 -27.7072 17.3032 -26.1471 16.1685 -24.4452C12.9065 -19.1975 9.78622 -13.8079 6.52415 -8.41841C4.39671 -5.15634 2.12744 -1.89437 -1.61194e-07 1.22587C-1.05398e-07 2.50234 -4.95964e-08 3.77894 0 4.91357C0.992805 4.0626 2.12744 3.35335 2.69476 2.50237Z" fill="#FF1A2D" fill-opacity="0.08"/>
<path d="M267.206 79.3741C243.379 79.5159 219.41 79.6576 195.583 79.7995C193.739 79.7995 191.611 79.0904 189.626 81.5015C191.186 81.927 192.179 82.2107 193.172 82.2107C206.645 82.4943 219.977 82.7779 233.451 83.3452C256.002 84.338 278.695 83.6289 301.387 83.6289C303.373 83.6289 305.359 83.487 307.486 83.3452C307.202 78.9485 304.508 79.3741 302.096 79.3741C290.466 79.3741 278.836 79.3741 267.206 79.3741Z" fill="#FF1A2D" fill-opacity="0.08"/>
<path d="M39.8541 544.149C40.8469 542.447 41.9815 540.745 43.6835 538.334C56.5899 559.75 69.0709 580.457 81.5519 601.164C83.112 598.469 81.5519 596.909 80.5591 595.207C69.9219 577.337 59.2847 559.466 48.3638 541.738C45.8109 537.483 45.5272 534.362 48.222 529.966C60.9866 509.259 73.4676 488.268 85.9486 467.419C86.9414 465.859 87.9342 464.44 89.4943 462.171C91.7636 465.859 93.7492 468.979 95.593 472.241C105.096 488.126 114.598 504.011 124.243 519.896C125.235 521.598 125.944 523.867 129.774 525.002C127.93 521.74 126.937 519.896 125.803 517.91C115.307 500.465 104.954 482.878 94.1747 465.575C91.4799 461.178 91.6218 457.916 94.3165 453.661C107.223 432.813 119.704 411.68 132.469 390.689C133.32 389.413 134.312 388.136 135.305 387.002C135.873 387.427 136.156 387.427 136.298 387.569C148.353 407.283 160.267 426.998 172.323 446.712C172.606 447.279 173.032 447.705 173.599 448.13C173.741 448.272 174.025 448.272 174.166 448.272C174.308 448.272 174.45 448.13 175.301 447.705C174.308 445.861 173.174 443.875 172.039 442.032C161.26 424.019 150.481 406.007 139.56 387.995C137.716 385.016 137.291 382.747 139.276 379.485C152.608 357.643 165.798 335.66 178.989 313.818C179.698 312.683 180.691 311.832 181.825 310.556C194.59 331.405 207.071 351.828 219.552 372.252C219.552 372.393 219.977 372.393 220.119 372.252C220.261 372.252 220.403 372.11 221.112 371.542C220.261 369.84 219.268 367.997 218.275 366.295C207.354 348.14 196.434 329.845 185.371 311.832C183.385 308.57 183.243 306.017 185.371 302.755C190.619 294.529 195.583 286.019 200.547 277.651C201.398 276.233 201.965 274.531 202.674 272.971C202.249 272.687 201.681 272.404 201.256 272.262C194.873 282.757 188.349 293.253 181.683 304.457C180.265 302.613 179.272 301.62 178.563 300.486C165.657 279.07 152.892 257.653 139.844 236.379C137.716 232.975 138.142 230.422 140.127 227.302C145.375 218.792 150.481 210.282 155.587 201.631C156.296 200.354 156.863 198.936 157.431 197.518C157.005 197.234 156.438 197.092 156.012 196.809C149.346 207.304 143.106 218.225 136.298 229.146C135.305 228.011 134.596 227.444 134.171 226.877C120.697 204.609 107.365 182.342 93.891 160.075C92.3309 157.664 92.4727 155.678 94.0328 153.267C99.2805 144.757 104.386 136.248 109.492 127.596C110.485 125.894 111.194 124.192 112.187 122.49C111.762 122.206 111.336 122.065 110.769 121.781C103.535 131.993 98.1459 143.339 90.7708 153.693C89.778 152.558 89.0688 151.991 88.6433 151.281C75.3114 129.156 62.1213 107.031 48.6475 85.0473C46.9455 82.3525 47.2292 80.225 48.7893 77.6721C54.3206 68.8787 59.5683 59.9435 64.9578 51.0082C65.667 49.7318 66.0925 48.3135 66.6598 46.8952C66.2343 46.6115 65.8088 46.4697 65.3833 46.186C58.8592 56.8232 52.335 67.6022 45.3854 78.9485C43.6834 76.2538 42.407 74.5518 41.4142 72.8499C29.2169 52.7101 17.1614 32.5704 4.96405 12.4306C3.68758 10.3032 1.98563 8.60126 0.425511 6.6156L0.425511 10.3032C1.41832 11.5796 2.55295 12.8561 3.40393 14.2744C15.8849 34.9815 28.2241 55.6885 40.8469 76.112C43.258 79.9413 43.258 82.9198 40.8469 86.7491C28.0822 107.456 15.7431 128.305 3.12027 149.154C2.41113 150.431 1.41832 151.423 0.425517 152.558L0.425517 156.246C1.84381 154.544 3.40393 152.842 4.53857 150.998C16.7359 130.858 28.7914 110.718 40.9887 90.5785C42.2652 88.5929 43.5416 86.6073 45.2436 84.0544C46.9455 86.7491 48.0802 88.4512 49.2148 90.1531C61.5539 110.577 73.7513 131.142 86.3741 151.565C88.6433 155.253 88.7852 157.948 86.5159 161.635C73.6094 182.484 61.1284 203.616 48.5056 224.607C47.5128 226.167 46.3782 227.586 44.9599 229.713C43.5416 227.586 42.2652 225.884 41.2724 224.182C29.075 204.042 17.0195 183.902 4.82223 163.763C3.68759 161.919 2.12747 160.217 0.709176 158.515C0.709176 159.791 0.709176 161.068 0.709176 162.202C1.70198 163.479 2.83662 164.755 3.68759 166.174C15.8849 186.455 28.0822 206.879 40.4214 227.16C42.9743 231.273 42.9743 234.393 40.4214 238.506C28.2241 258.363 16.3104 278.36 4.25491 298.358C3.12028 300.06 1.84382 301.762 0.709182 303.464C0.709182 304.741 0.709183 306.017 0.709183 307.152C2.12748 305.308 3.6876 303.748 4.82223 301.762C17.0195 281.623 29.075 261.483 41.1305 241.485C42.2652 239.641 43.5416 237.797 44.9599 235.528C46.0946 237.088 46.8037 237.797 47.2292 238.648C60.2775 260.348 73.3258 282.19 86.5159 303.748C88.5015 307.152 88.2179 309.563 86.3741 312.825C73.1839 334.525 60.1357 356.225 47.0874 377.925C46.3782 379.059 45.3854 379.91 44.2508 381.187C42.8325 378.917 41.6979 377.216 40.5632 375.372C28.6496 355.657 16.7359 335.801 4.82223 316.087C3.6876 314.243 2.12748 312.541 0.709183 310.839L0.709183 314.527C1.84382 316.087 3.12028 317.364 3.97126 319.066C16.1686 339.205 28.2241 359.345 40.2796 379.343C41.6978 381.754 43.5416 383.882 41.4142 387.285C27.6568 409.553 14.183 431.962 0.56736 454.371L0.56736 458.058C2.12748 455.931 3.82943 453.803 5.24773 451.534C17.0196 431.962 28.7914 412.389 40.705 392.817C41.6979 391.115 42.9743 389.413 44.3926 387.285C45.8109 389.129 46.8037 390.264 47.6547 391.682C60.4193 412.815 73.0421 434.089 85.9486 455.222C87.9342 458.626 87.7924 461.178 85.8068 464.299C72.7585 485.857 59.852 507.415 46.8037 528.973C46.0946 530.108 45.1018 531.242 43.8253 532.944C41.9815 529.966 40.4214 527.555 38.8613 525.143C27.5149 506.28 16.1686 487.417 4.68041 468.554C3.54578 466.71 1.98565 465.008 0.56736 463.306L0.56736 466.993C4.96407 473.943 9.50261 480.893 13.8993 487.984C22.6927 502.309 31.2025 516.917 39.9959 531.242C41.9815 534.504 42.1233 536.915 40.1377 540.319C27.9404 560.175 16.0268 580.173 4.1131 600.029C3.12029 601.59 1.84383 602.866 0.709196 604.284L0.709196 607.972C2.41115 605.986 4.25493 604.142 5.67322 601.873C16.7359 582.726 28.3659 563.437 39.8541 544.149ZM86.5159 300.06C73.8931 279.212 61.5539 258.363 48.7893 237.656C46.6619 234.252 46.3782 231.557 48.5056 228.011C61.5539 206.737 74.3186 185.321 87.225 164.046C88.076 162.628 89.0688 161.493 90.4871 159.649C91.9054 161.635 93.04 163.053 93.891 164.613C106.514 185.604 119.137 206.595 131.901 227.586C133.603 230.28 134.029 232.691 132.327 235.67C118.711 258.079 105.237 280.488 91.7636 302.897C91.3381 303.606 90.7708 304.032 89.778 305.024C88.5015 303.039 87.3669 301.621 86.5159 300.06ZM93.4655 304.174C106.939 282.19 120.129 260.065 133.461 237.939C134.029 237.088 134.596 236.379 135.589 235.103C136.723 236.379 137.716 237.372 138.425 238.506C151.474 260.065 164.38 281.623 177.428 303.181C178.847 305.592 179.698 307.719 177.996 310.556C164.38 332.965 150.906 355.374 137.433 377.783C137.007 378.492 136.44 379.059 135.163 380.478C133.178 377.357 131.618 374.804 130.199 372.393C118.144 352.395 106.23 332.539 94.1747 312.541C92.1891 309.847 91.3381 307.436 93.4655 304.174ZM86.3741 452.385C73.6094 431.253 60.8448 409.978 48.0802 388.846C46.0946 385.583 45.8109 383.172 47.9383 379.768C61.1285 358.069 74.1768 336.369 87.225 314.669C87.7924 313.676 88.6433 312.683 89.778 311.265C90.9126 312.825 92.0473 313.96 92.8982 315.236C105.805 336.652 118.569 358.069 131.476 379.343C133.036 381.896 133.603 383.882 131.901 386.718C118.144 409.269 104.528 431.962 90.9126 454.513C90.629 455.08 90.2035 455.505 89.4943 456.924C88.076 454.796 87.2251 453.662 86.3741 452.385Z" fill="#FF1A2D" fill-opacity="0.08"/>
<path d="M158.99 -75.9291C203.241 -75.9291 246.215 -75.9291 289.048 -75.9291C289.332 -79.6167 287.913 -81.035 285.219 -81.3187C283.375 -81.4605 281.531 -81.4605 279.545 -81.4605C240.4 -81.4605 201.256 -81.6023 162.253 -81.3187C157.572 -81.3187 154.736 -82.5952 152.324 -86.7083C129.774 -124.577 106.939 -162.303 84.2464 -200.172C67.6524 -227.687 51.0584 -255.343 34.4643 -282.858L28.082 -282.858C38.861 -264.846 49.7819 -246.833 60.7028 -228.821C88.9268 -181.876 117.151 -135.072 145.233 -88.1265C146.368 -86.2828 147.219 -84.2971 148.779 -81.4605C141.404 -81.4605 135.163 -81.4605 128.923 -81.4605C122.824 -81.4605 116.867 -81.6023 110.768 -81.4605C104.67 -81.3186 98.4293 -81.8861 92.1889 -81.0351C92.7562 -76.0711 95.7346 -75.9291 98.9967 -75.9291C114.598 -75.9291 130.199 -75.7874 145.8 -76.0711C150.906 -76.2129 153.601 -74.369 156.154 -70.1141C175.868 -37.0679 195.724 -4.16361 215.58 28.8826C216.715 30.7264 217.708 32.4284 218.842 34.1304C220.403 36.3997 222.246 36.8252 225.367 34.6977C203.525 -1.89421 181.683 -38.3443 158.99 -75.9291Z" fill="#FF1A2D" fill-opacity="0.08"/>
<path d="M131.759 -12.673C130.625 -11.1129 129.49 -9.83645 128.497 -8.27633C113.463 16.6856 98.4295 41.6476 83.5374 66.6096C80.559 71.5736 80.7008 71.9991 85.6648 76.6794C86.374 75.9703 87.0831 75.2612 87.6504 74.4102C103.393 48.4555 118.995 22.3589 134.596 -3.5959C137.007 -7.56711 136.582 -8.13446 131.759 -12.673Z" fill="#FF1A2D" fill-opacity="0.08"/>
<path d="M390.882 -34.6568C384.641 -45.4359 378.117 -56.073 371.593 -66.7102C328.193 -138.759 284.793 -210.809 241.535 -282.858L234.728 -282.858C283.8 -201.023 333.015 -119.187 382.23 -37.3516C383.506 -35.2242 384.641 -33.0968 386.343 -30.1184C377.833 -30.1184 370.316 -30.1184 362.941 -30.1184C355.708 -30.1184 348.333 -30.2602 341.099 -30.1184C333.724 -29.9765 326.349 -30.6856 318.832 -29.6928C320.96 -24.0196 320.96 -23.8778 326.775 -23.8778C345.638 -23.8779 364.643 -23.736 383.506 -24.0196C388.47 -24.0196 391.449 -22.4596 394.002 -18.2047C402.795 -3.02895 411.872 11.8631 420.949 26.7551C422.084 28.5989 423.36 30.301 424.637 32.0029C428.892 28.8827 427.615 26.188 425.913 23.3514C417.687 9.87759 409.603 -3.73816 401.377 -17.2119C400.242 -19.0557 399.25 -21.0412 397.973 -23.4523C409.319 -24.7288 419.957 -23.0269 430.736 -24.587C429.885 -29.6929 427.19 -30.2602 423.644 -30.2602C415.276 -30.1183 407.05 -30.402 398.682 -30.1184C395.136 -30.1184 392.867 -31.3948 390.882 -34.6568Z" fill="#FF1A2D" fill-opacity="0.08"/>
<path d="M884.164 406.858C877.214 394.802 869.839 382.889 862.747 370.975C861.613 369.131 860.336 367.429 858.918 365.444C854.521 370.55 854.379 370.691 857.074 375.088C863.173 385.3 869.271 395.37 875.37 405.581C876.363 407.283 877.356 409.127 878.49 411.255C876.079 411.964 874.094 412.389 871.966 412.957C872.959 417.07 874.661 419.764 879.2 419.481C881.752 419.339 883.88 419.906 885.866 422.175C887.709 424.303 891.822 424.445 892.39 422.743C894.092 418.346 897.212 419.764 900.048 419.622C905.012 419.197 906.005 418.346 906.856 412.106C902.46 412.106 898.063 411.822 893.808 412.247C889.128 412.531 886.433 410.687 884.164 406.858Z" fill="#FF1A2D" fill-opacity="0.08"/>
<path d="M1395.88 634.919C1390.35 625.984 1384.96 616.765 1379.43 607.688C1377.87 604.993 1376.17 602.44 1374.18 599.32C1370.35 602.157 1370.35 604.851 1372.34 607.972C1379.01 618.751 1385.39 629.672 1392.05 640.592C1392.62 641.585 1393.19 642.72 1393.9 643.854C1397.87 640.592 1397.87 638.04 1395.88 634.919Z" fill="#FF1A2D" fill-opacity="0.08"/>
<path d="M1300.29 235.812C1302.13 235.954 1303.55 236.237 1304.97 236.237C1327.81 236.237 1350.64 236.237 1373.47 236.237C1374.33 236.237 1375.18 236.237 1376.03 236.237C1379.29 236.095 1380.57 234.252 1380.57 230.422C1377.87 230.422 1375.6 230.422 1373.47 230.422C1356.88 230.422 1340.29 230.422 1323.69 230.422C1317.88 230.422 1312.06 230.422 1306.25 230.422C1302.84 230.422 1300.57 231.415 1300.29 235.812Z" fill="#FF1A2D" fill-opacity="0.08"/>
<path d="M1425.1 27.0389C1424.96 29.0245 1424.68 29.7336 1424.96 30.1591C1429.5 37.5342 1434.04 44.9093 1438.57 52.2844L1438.57 47.3204C1435.6 42.64 1432.48 38.1016 1429.5 33.4212C1428.22 31.7193 1426.94 29.8755 1425.1 27.0389Z" fill="#FF1A2D" fill-opacity="0.08"/>
<path d="M1426.24 160.5C1430.21 167.024 1434.46 173.265 1438.57 179.789L1438.57 168.585C1435.31 163.62 1432.19 158.798 1428.79 153.692C1425.95 155.82 1424.53 157.806 1426.24 160.5Z" fill="#FF1A2D" fill-opacity="0.08"/>
<path d="M1324.4 418.913C1307.52 418.913 1290.65 418.913 1273.91 418.913C1271.93 418.913 1269.09 418.772 1268.1 419.906C1265.26 423.168 1261.86 422.601 1258.31 422.601C1225.41 422.601 1192.64 422.601 1159.74 422.601C1157.61 422.601 1155.48 422.459 1153.5 422.885C1152.65 423.026 1151.8 424.019 1150.95 424.728C1151.09 425.154 1151.09 425.579 1151.23 426.147C1162.15 426.147 1172.93 426.289 1184.84 426.289C1183.28 429.125 1182.43 430.969 1181.3 432.671C1151.09 482.878 1120.88 533.228 1090.67 583.435C1062.02 630.948 1033.37 678.603 1004.86 726.257C1003.44 728.669 1002.73 731.505 1001.74 734.058C1003.44 734.058 1005 734.058 1006.7 734.058C1008.26 731.363 1009.68 728.527 1011.24 725.974C1061.45 642.578 1111.52 559.183 1161.72 475.787C1170.38 461.32 1179.31 446.996 1187.68 432.387C1190.52 427.565 1193.78 425.296 1199.17 426.147C1199.59 426.147 1200.02 426.147 1200.44 426.147C1277.03 426.147 1353.48 426.147 1430.06 426.147C1432.9 426.147 1435.88 425.721 1438.72 425.579L1438.72 419.339C1436.31 419.197 1433.75 418.913 1431.34 418.913C1395.46 418.913 1359.86 418.913 1324.4 418.913Z" fill="#FF1A2D" fill-opacity="0.08"/>
<path d="M695.105 425.012C694.254 426.288 693.545 427.423 692.836 428.7C680.781 448.839 668.442 468.837 656.67 489.261C653.833 494.225 650.571 496.068 644.898 496.068C611.568 495.785 578.38 495.927 545.05 495.927C542.781 495.927 540.512 495.927 538.242 496.068C535.122 496.352 533.562 498.196 534.129 502.167C540.512 502.167 546.752 502.167 552.992 502.167C559.375 502.167 565.899 502.167 572.281 502.167C578.522 502.167 584.762 502.167 591.003 502.167C597.243 502.167 603.484 502.167 609.724 502.167C616.107 502.167 622.631 502.025 629.013 502.167C635.112 502.309 641.352 501.316 647.876 502.876C646.6 505.146 645.749 506.989 644.614 508.691C600.789 581.592 556.822 654.492 512.997 727.392C511.72 729.52 510.727 731.789 509.593 734.058C512.146 734.058 514.557 734.058 517.11 734.058C518.244 731.647 518.953 729.094 520.372 726.825C564.197 653.924 608.164 581.024 651.848 508.124C654.542 503.585 657.521 502.025 662.768 502.025C722.053 502.167 781.338 502.167 840.622 502.167C844.168 502.167 847.714 502.167 851.259 502.167C854.522 502.167 856.082 500.465 856.507 496.494C853.529 496.352 850.692 495.927 847.856 495.927C788.004 495.927 728.01 495.927 668.158 495.927C665.747 495.927 663.336 495.927 659.364 495.927C674.257 471.107 688.156 447.705 702.339 424.161C699.077 422.459 696.807 422.459 695.105 425.012Z" fill="#FF1A2D" fill-opacity="0.08"/>
<path d="M1002.31 418.062C1001.46 419.481 1001.03 420.899 1000.32 422.459C1004.44 424.586 1006.42 422.601 1008.26 419.622C1024.01 393.384 1039.75 367.146 1055.49 341.049C1056.06 340.056 1056.2 338.922 1056.77 337.078C1054.64 337.078 1052.94 337.078 1051.38 337.078C1050.81 337.645 1050.25 338.354 1049.82 338.922C1034.08 365.302 1018.19 391.682 1002.31 418.062Z" fill="#FF1A2D" fill-opacity="0.08"/>
<path d="M700.211 338.071C695.389 335.66 693.971 338.638 692.269 341.333C683.334 356.083 674.256 370.833 665.605 385.725C663.336 389.555 660.783 390.689 656.67 390.689C640.076 390.548 623.34 390.548 606.746 390.548C605.044 390.548 603.484 390.548 601.782 390.548C598.803 390.689 597.385 392.25 597.385 396.079C599.796 396.079 602.065 396.079 604.335 396.079C620.503 396.079 636.814 396.079 652.982 396.079C654.684 396.079 656.386 396.363 658.655 396.646C653.833 406.007 647.876 413.808 643.905 422.601C647.876 424.445 649.578 422.743 651.138 420.19C654.684 414.233 658.513 408.56 661.634 402.461C664.187 397.639 667.449 395.937 672.98 395.937C726.024 396.221 779.068 396.079 832.112 396.079C833.956 396.079 835.8 396.079 837.786 396.079C840.764 395.937 842.182 394.235 841.757 390.548C830.127 390.548 818.781 390.548 807.434 390.548C795.946 390.548 784.6 390.548 773.111 390.548C761.623 390.548 750.277 390.548 738.789 390.548C727.301 390.548 715.954 390.548 704.466 390.548C693.12 390.548 681.915 390.689 669.292 390.406C673.405 383.598 676.809 377.925 680.213 372.252C683.617 366.579 687.163 360.905 690.425 355.09C693.687 349.417 697.375 344.028 700.211 338.071Z" fill="#FF1A2D" fill-opacity="0.08"/>
<path d="M1143.85 -103.728C1141.02 -103.728 1140.17 -101.458 1139.03 -99.4728C1131.66 -87.4173 1124.42 -75.2199 1117.19 -63.1644C1115.49 -60.186 1113.5 -58.6259 1109.81 -58.6259C1085.28 -58.7678 1060.74 -58.7677 1036.2 -58.7677C1034.93 -58.7677 1033.65 -59.3351 1031.81 -59.7606C1034.22 -63.8737 1036.35 -67.4194 1038.47 -71.107C1040.6 -74.6527 1042.73 -78.1984 1044.86 -81.7442C1046.98 -85.2899 1049.25 -88.8356 1051.24 -92.5232C1053.08 -95.9271 1056.2 -98.7636 1056.06 -103.16C1054.5 -101.742 1053.37 -100.04 1052.37 -98.3381C1045.42 -86.7081 1038.33 -75.2199 1031.52 -63.5899C1029.68 -60.4697 1027.55 -58.7677 1023.72 -58.7677C999.329 -58.9095 975.076 -58.7677 950.682 -58.9095C949.405 -58.9095 947.987 -59.335 945.718 -59.6187C948.98 -65.15 951.816 -69.8305 954.653 -74.6527C957.489 -79.3331 960.326 -83.8715 963.021 -88.5519C965.574 -93.2322 969.403 -97.4872 970.254 -103.019C968.694 -101.6 967.418 -100.04 966.425 -98.3381C959.475 -86.7081 952.384 -75.2199 945.576 -63.5899C943.59 -60.186 941.179 -58.6259 937.208 -58.7677C913.097 -58.9095 888.986 -58.9095 864.733 -58.9095C863.315 -58.9095 862.038 -59.1932 859.769 -59.6186C868.137 -74.6526 877.214 -88.2683 884.589 -103.16C882.745 -101.884 881.469 -100.04 880.334 -98.1963C873.385 -86.5663 866.293 -75.0782 859.486 -63.4481C857.784 -60.4697 855.798 -58.9095 852.11 -58.9095C827.29 -59.0513 802.612 -58.9097 777.792 -59.0515C776.657 -59.0515 775.664 -59.4769 773.962 -59.9024C782.188 -74.7945 791.549 -88.2683 798.499 -103.16C796.797 -101.884 795.52 -100.324 794.528 -98.6217C787.578 -87.2754 780.628 -75.9291 773.962 -64.2991C771.693 -60.4697 769.14 -58.7677 764.602 -58.9095C741.058 -59.0513 717.514 -59.0515 694.113 -59.0515C692.269 -59.0515 690.567 -59.335 687.588 -59.4769C696.382 -74.3689 704.892 -88.4101 713.259 -102.593C712.834 -102.877 712.267 -103.16 711.841 -103.586C710.707 -101.884 709.43 -100.04 708.295 -98.3381C701.346 -86.7081 694.254 -75.2199 687.447 -63.5899C685.745 -60.6115 683.759 -59.0514 680.071 -59.1933C655.251 -59.3351 630.573 -59.1932 605.753 -59.3351C604.618 -59.3351 603.625 -59.7605 601.923 -60.186C604.476 -64.2991 606.604 -67.8448 608.731 -71.3905C610.859 -74.9363 612.986 -78.482 615.114 -82.0278C617.241 -85.5735 619.51 -89.1192 621.496 -92.8067C623.34 -96.2106 626.46 -99.0472 626.176 -103.444C624.474 -101.884 623.34 -99.8983 622.063 -98.0545C615.114 -86.4245 608.022 -74.9364 601.214 -63.3064C599.512 -60.4698 597.527 -59.1932 594.265 -59.3351C569.728 -59.4769 545.192 -59.335 520.655 -59.4768C519.379 -59.4768 518.102 -60.0442 516.259 -60.6116C524.627 -75.3618 533.562 -88.8355 540.653 -103.586C538.809 -102.167 537.533 -100.465 536.398 -98.6217C529.591 -87.4172 522.783 -76.2128 516.259 -64.8664C513.989 -61.037 511.436 -59.1932 506.898 -59.4768C499.806 -59.7605 492.715 -59.6187 485.623 -59.4768C484.205 -59.4768 482.645 -58.9095 481.227 -58.7677C481.227 -58.2004 481.369 -57.7749 481.369 -57.2076C490.871 -57.0658 500.374 -56.9239 510.585 -56.7821C509.876 -54.9383 509.593 -54.0873 509.025 -53.2363C495.835 -31.2528 482.645 -9.4112 469.455 12.5723C467.895 15.2671 465.767 16.2599 462.789 16.1181C455.698 15.9762 448.606 16.1181 441.515 16.1181C439.529 16.1181 437.543 16.4018 435.558 16.4018C435.558 16.8273 435.558 17.3946 435.558 17.8201C445.344 17.9619 454.988 18.1037 465.342 18.1037C464.633 19.8057 464.491 20.6567 464.065 21.2241C450.733 43.3494 437.402 65.4747 424.211 87.6001C422.651 90.2948 420.524 91.1458 417.545 91.1458C409.603 91.004 401.802 91.1458 393.86 91.1458C392.725 91.1458 391.449 91.7131 390.314 91.9967C390.314 92.4222 390.456 92.9895 390.456 93.415C395.136 93.415 399.817 93.4152 404.497 93.557C409.319 93.6988 414.283 92.9895 419.247 94.1242C418.964 95.4006 418.964 96.1099 418.68 96.5354C405.49 118.661 392.158 140.786 378.968 162.911C377.408 165.606 375.138 166.315 372.16 166.315C365.069 166.173 357.977 166.315 350.886 166.315C349.042 166.315 347.056 166.741 345.213 166.883C345.213 167.45 345.354 167.875 345.354 168.443C354.857 169.294 364.501 168.159 374.429 169.152C373.862 170.57 373.578 171.563 373.153 172.414C359.963 194.398 346.773 216.239 333.583 238.223C332.022 240.918 330.037 241.91 327.058 241.91C319.116 241.769 311.315 241.91 303.373 241.91C302.096 241.91 300.962 242.336 299.685 242.62C299.685 243.045 299.827 243.471 299.827 243.896C304.507 243.896 309.33 243.754 314.01 243.896C318.832 244.038 323.938 242.903 328.902 244.889C328.335 246.165 328.051 247.158 327.626 248.009C314.577 269.709 301.387 291.409 288.481 313.25C286.779 316.229 284.51 317.08 281.389 317.08C274.298 316.938 267.206 317.08 260.115 317.08C258.129 317.08 256.286 317.364 254.3 317.364C254.3 317.789 254.3 318.356 254.3 318.782C258.98 320.342 263.802 319.207 268.625 319.491C273.447 319.916 278.411 318.64 283.517 320.484C280.822 325.448 278.269 329.986 275.858 334.667C276.283 334.95 276.851 335.234 277.276 335.518C279.829 331.547 282.382 327.717 284.651 323.604C286.212 320.626 288.339 319.633 291.601 319.633C316.421 319.775 341.099 319.633 365.92 319.775C367.054 319.775 368.189 320.2 369.749 320.626C366.912 325.732 364.359 330.27 361.807 334.809C362.232 335.092 362.799 335.376 363.225 335.66C365.636 331.83 368.189 328.284 370.316 324.313C372.16 321.051 374.429 319.633 378.259 319.633C402.653 319.775 426.906 319.633 451.301 319.775C452.577 319.775 453.996 320.2 455.981 320.484C453.003 325.732 450.45 330.27 447.755 334.809C448.181 335.092 448.748 335.376 449.173 335.66C452.01 332.256 454.137 328.426 456.265 324.455C458.109 320.909 460.803 319.633 464.775 319.633C488.886 319.775 512.997 319.633 537.249 319.775C538.668 319.775 539.944 320.058 541.504 320.342C540.086 326.157 535.122 329.703 534.98 335.518C537.675 332.114 540.228 328.568 542.213 324.739C544.057 321.193 546.468 319.633 550.581 319.775C574.976 319.917 599.229 319.916 623.623 319.916C624.9 319.916 626.176 320.342 627.736 320.626C625.609 326.157 621.638 330.128 620.645 335.66C623.482 332.397 626.034 328.852 628.02 325.022C630.006 321.335 632.559 319.775 636.955 319.775C660.924 320.058 684.752 319.916 708.721 319.916C710.281 319.916 711.841 320.2 714.111 320.484C711.132 325.873 708.437 330.554 705.884 335.234C706.452 335.518 706.877 335.801 707.444 336.085C709.856 332.114 712.55 328.143 714.82 324.03C716.522 320.909 718.791 319.775 722.337 319.775C746.448 319.917 770.558 319.775 794.811 319.916C796.371 319.916 797.932 320.342 800.201 320.626C798.499 323.604 797.081 325.873 795.946 328.284C794.811 330.554 792.684 332.539 793.109 335.518C795.946 332.114 798.499 328.568 800.484 324.739C802.47 320.909 805.307 319.775 809.42 319.775C832.963 319.917 856.507 319.775 879.909 319.916C881.753 319.916 883.455 320.2 885.582 320.342C884.589 326.299 879.2 329.703 879.2 335.518C881.894 332.114 884.447 328.568 886.433 324.881C888.419 321.051 891.113 319.775 895.368 319.916C918.912 320.058 942.456 320.058 965.857 320.058C967.701 320.058 969.403 320.342 972.098 320.484C969.261 325.873 966.708 330.554 964.156 335.234C964.581 335.518 965.148 335.801 965.574 335.943C967.985 331.972 970.68 328.001 972.949 323.888C974.509 320.909 976.637 319.916 980.04 319.916C1004.58 320.058 1029.11 319.916 1053.65 320.058C1054.93 320.058 1056.2 320.626 1058.05 320.909C1056.34 323.888 1055.07 326.157 1053.65 328.426C1052.66 330.27 1051.52 331.972 1050.53 333.816C1049.68 335.518 1050.67 336.085 1052.09 336.085C1054.22 332.256 1056.49 328.568 1058.33 324.739C1060.03 321.051 1062.73 319.916 1066.7 319.916C1090.67 320.058 1114.49 320.058 1138.46 320.058C1140.02 320.058 1141.58 320.342 1143.43 320.626C1142.01 326.299 1137.19 329.986 1136.9 335.659C1139.74 332.256 1142.29 328.71 1144.14 324.88C1146.12 320.909 1148.96 319.916 1153.07 319.916C1176.62 320.058 1200.16 319.916 1223.56 320.058C1225.41 320.058 1227.11 320.342 1229.52 320.484C1227.96 326.299 1223.28 329.986 1222.71 335.801C1224.98 333.39 1226.68 330.554 1228.38 327.859C1233.91 319.065 1231.65 320.342 1242 320.2C1243.98 320.2 1246.4 321.051 1248.52 318.214C1243.84 317.789 1240.01 317.505 1235.47 317.222C1236.33 315.236 1236.75 314.101 1237.46 313.109C1250.37 291.692 1263.27 270.276 1276.04 248.86C1277.88 245.882 1280.01 244.321 1283.56 244.605C1286.82 244.747 1290.22 244.463 1293.48 244.321C1293.48 243.896 1293.48 243.47 1293.48 243.045C1289.51 242.761 1285.4 242.619 1280.86 242.336C1281.43 240.776 1281.57 239.783 1282.14 238.932C1295.33 216.948 1308.52 195.107 1321.71 173.123C1323.27 170.57 1325.25 169.294 1328.23 169.436C1331.78 169.577 1335.32 169.294 1338.87 169.294C1338.87 168.726 1338.87 168.159 1338.87 167.45C1334.76 167.166 1330.78 166.883 1325.68 166.457C1329.08 160.784 1331.78 156.104 1334.47 151.565C1344.97 134.12 1355.6 116.675 1365.96 99.0882C1368.09 95.4006 1370.64 93.6987 1374.89 93.9823C1378.58 94.266 1382.41 93.9823 1386.24 93.9823C1389.08 96.2516 1389.93 102.634 1396.45 99.0882C1394.61 94.6914 1392.62 90.5785 1388.93 87.3164C1384.11 94.1242 1377.73 90.8622 1371.35 91.4295C1371.91 89.8694 1372.2 89.0183 1372.62 88.3092C1385.96 66.1838 1399.29 44.2004 1412.48 21.9331C1414.18 18.9548 1416.45 18.1036 1419.71 18.2455C1422.97 18.3873 1426.38 18.1037 1429.64 17.9619C1425.67 15.2671 1421.13 17.5364 1416.87 14.8417C1423.12 4.34632 1429.21 -5.72365 1435.31 -15.9354C1436.31 -17.6373 1437.72 -19.1974 1439 -20.8994L1439 -24.5869C1437.58 -22.885 1436.02 -21.1831 1434.89 -19.3393C1428.65 -9.12758 1422.41 1.22602 1416.31 11.5795C1414.61 14.4161 1412.76 16.26 1408.93 16.26C1384.25 16.1181 1359.43 16.118 1334.76 16.118C1333.76 16.118 1332.77 15.8345 1331.21 15.6926C1331.78 14.1325 1332.06 12.7142 1332.77 11.5795C1345.53 -9.83666 1358.58 -31.111 1371.21 -52.5272C1373.33 -56.073 1375.89 -57.0658 1379.86 -57.0658C1399.57 -56.924 1419.29 -57.0658 1439 -57.0658L1439 -59.6187C1418.29 -59.6187 1397.59 -59.6187 1375.6 -59.6187C1380.57 -67.9866 1384.82 -75.0781 1389.08 -82.1696C1393.19 -89.261 1397.73 -96.069 1400.85 -103.728C1399.15 -102.593 1397.87 -101.033 1396.88 -99.3309C1389.79 -87.559 1382.55 -75.9292 1375.74 -64.0155C1373.76 -60.7535 1371.49 -59.4769 1367.8 -59.4769C1343.41 -59.6187 1319.15 -59.4769 1294.76 -59.6187C1293.48 -59.6187 1292.06 -60.0442 1290.08 -60.3278C1293.34 -65.7173 1296.18 -70.5397 1299.01 -75.3619C1301.85 -80.0422 1304.55 -84.5807 1307.38 -89.261C1310.08 -93.9414 1313.34 -98.3382 1314.76 -103.728C1313.06 -102.451 1311.78 -100.749 1310.79 -99.0473C1303.84 -87.4173 1296.75 -75.9291 1289.94 -64.2991C1288.09 -61.037 1285.82 -59.6187 1281.99 -59.6187C1257.88 -59.7605 1233.77 -59.7606 1209.66 -59.7606C1208.1 -59.7606 1206.68 -60.1861 1204.27 -60.6116C1207.53 -66.1429 1210.37 -70.9651 1213.35 -75.6455C1216.19 -80.3258 1219.02 -84.8644 1221.72 -89.5448C1224.27 -94.2252 1228.1 -98.4799 1228.95 -104.153C1227.25 -102.593 1225.97 -100.749 1224.84 -98.9055C1217.89 -87.2755 1210.8 -75.7873 1203.99 -64.1573C1202.29 -61.1789 1200.3 -59.6187 1196.61 -59.6187C1172.08 -59.7605 1147.54 -59.6188 1123 -59.7606C1121.73 -59.7606 1120.45 -60.3279 1118.61 -60.7534C1126.69 -74.7945 1135.34 -89.2611 1143.85 -103.728ZM581.5 245.172C582.918 245.172 584.337 245.456 586.322 245.598C585.755 247.3 585.471 248.576 584.762 249.711C571.856 271.269 558.807 292.827 545.901 314.385C544.341 316.938 542.639 318.356 539.519 318.356C514.557 318.215 489.595 318.356 464.633 318.214C463.64 318.214 462.647 317.931 460.945 317.505C462.08 315.236 462.789 313.676 463.64 312.258C476.121 291.551 488.602 270.985 500.941 250.278C503.069 246.733 505.338 244.889 509.734 245.031C533.704 245.172 557.531 245.031 581.5 245.172ZM495.552 245.172C496.97 245.172 498.388 245.456 500.374 245.74C499.523 247.583 499.097 249.144 498.246 250.42C485.482 271.695 472.717 292.827 460.094 314.102C458.534 316.796 456.69 318.356 453.286 318.356C428.324 318.215 403.363 318.214 378.401 318.214C377.55 318.214 376.84 317.931 374.855 317.647C376.131 315.094 376.982 313.392 378.117 311.549C390.456 291.125 402.795 270.56 414.993 250.136C416.978 246.732 419.106 244.889 423.219 245.031C447.33 245.172 471.441 245.031 495.552 245.172ZM294.012 318.214C292.594 318.214 291.176 317.931 289.19 317.789C290.041 315.945 290.466 314.385 291.176 313.109C303.94 291.834 316.705 270.702 329.328 249.427C331.03 246.449 333.157 245.031 336.845 245.031C361.239 245.172 385.492 245.031 409.887 245.172C411.305 245.172 412.581 245.598 414.567 245.882C413.574 247.867 413.007 249.285 412.298 250.704C399.675 271.694 387.052 292.685 374.429 313.818C372.586 316.938 370.316 318.498 366.487 318.498C342.234 318.215 318.123 318.214 294.012 318.214ZM550.581 318.214C549.589 318.214 548.596 317.931 546.752 317.789C548.028 315.52 548.738 313.96 549.588 312.683C562.069 291.976 574.55 271.411 586.748 250.704C589.159 246.591 591.854 245.031 596.676 245.031C619.936 245.314 643.196 245.172 666.456 245.172C668.3 245.172 670.002 245.456 672.555 245.598C671.704 247.584 671.136 249.144 670.285 250.42C657.662 271.411 645.04 292.402 632.417 313.534C630.573 316.654 628.587 318.498 624.616 318.498C599.938 318.215 575.26 318.214 550.581 318.214ZM725.173 318.214C723.329 318.214 721.486 318.073 719.075 317.931C719.926 315.945 720.493 314.385 721.344 313.109C733.967 292.118 746.589 271.127 759.212 249.995C761.056 247.016 762.9 244.889 766.871 245.031C791.407 245.172 815.944 245.172 840.48 245.172C841.615 245.172 842.891 245.456 845.161 245.74C843.601 248.434 842.608 250.278 841.615 251.98C829.56 272.12 817.362 292.118 805.307 312.399C802.896 316.513 800.201 318.498 795.095 318.498C771.693 318.073 748.433 318.214 725.173 318.214ZM1269.51 245.172C1270.93 245.172 1272.35 245.456 1274.48 245.74C1273.49 247.725 1272.92 249.427 1272.07 250.987C1259.44 271.978 1246.68 292.969 1234.2 314.102C1232.35 317.08 1230.37 318.498 1226.82 318.498C1202.43 318.356 1178.18 318.498 1153.78 318.356C1152.36 318.356 1151.09 318.073 1149.1 317.789C1149.95 315.803 1150.52 314.385 1151.37 312.967C1163.99 291.976 1176.76 270.985 1189.24 249.853C1191.08 246.733 1193.21 245.172 1197.18 245.172C1221.29 245.172 1245.4 245.03 1269.51 245.172ZM1183 245.172C1184.56 245.172 1186.26 245.456 1188.53 245.598C1187.82 247.3 1187.54 248.718 1186.83 249.853C1174.06 271.269 1161.16 292.543 1148.25 313.96C1146.69 316.654 1144.99 318.356 1141.44 318.356C1116.48 318.215 1091.52 318.356 1066.56 318.214C1065.56 318.214 1064.57 317.931 1063.01 317.647C1064 315.52 1064.71 313.96 1065.71 312.399C1078.19 291.692 1090.67 271.127 1103.01 250.42C1105.13 246.874 1107.4 245.031 1111.8 245.172C1135.49 245.172 1159.17 245.031 1183 245.172ZM1095.06 245.031C1097.33 245.031 1099.46 245.031 1102.72 245.031C1101.73 247.583 1101.16 249.002 1100.45 250.42C1087.69 271.836 1074.78 293.111 1062.02 314.669C1060.46 317.363 1058.47 318.356 1055.49 318.356C1030.82 318.215 1006 318.356 981.317 318.356C980.182 318.356 979.048 318.073 977.204 317.789C978.48 315.52 979.189 313.676 980.324 311.974C992.521 291.692 1004.86 271.411 1016.92 250.987C1019.47 246.591 1022.45 245.172 1027.41 245.172C1049.68 245.172 1072.37 245.031 1095.06 245.031ZM1010.25 245.172C1012.09 245.172 1013.8 245.456 1016.35 245.74C1015.5 247.867 1015.07 249.285 1014.22 250.704C1001.46 271.836 988.692 293.111 976.069 314.243C974.367 316.938 972.665 318.498 969.261 318.498C944.299 318.356 919.337 318.498 894.375 318.356C893.525 318.356 892.815 318.214 890.83 317.931C892.106 315.378 893.099 313.534 894.092 311.832C906.431 291.409 918.77 270.844 930.967 250.42C933.095 246.874 935.506 245.172 939.903 245.172C963.305 245.172 986.848 245.031 1010.25 245.172ZM925.011 245.172C926.571 245.172 928.273 245.314 930.542 245.456C929.833 247.158 929.549 248.576 928.84 249.711C916.075 271.127 903.169 292.402 890.404 313.818C888.702 316.654 886.859 318.498 883.171 318.356C858.493 318.215 833.673 318.214 808.994 318.214C808.001 318.214 807.009 318.073 804.881 317.789C806.3 315.094 807.292 313.25 808.285 311.549C820.482 291.267 832.822 270.985 844.877 250.562C847.288 246.449 849.983 244.889 854.805 244.889C878.065 245.172 901.467 245.031 925.011 245.172ZM752.972 245.172C754.532 245.172 756.234 245.314 758.503 245.598C757.652 247.442 757.227 249.002 756.517 250.278C743.753 271.553 730.988 292.685 718.365 313.818C716.805 316.371 715.245 318.356 711.699 318.356C686.312 318.215 660.925 318.214 635.679 318.214C635.112 318.214 634.544 317.931 632.984 317.647C634.119 315.378 634.97 313.818 635.962 312.258C648.302 291.834 660.641 271.411 672.838 250.846C675.249 246.732 677.802 245.031 682.766 245.031C705.884 245.172 729.428 245.031 752.972 245.172ZM340.107 243.045C338.263 243.045 336.561 242.761 334.008 242.62C335.143 240.35 335.852 238.648 336.703 237.23C349.184 216.523 361.665 195.958 373.862 175.251C376.131 171.421 378.826 169.861 383.365 169.861C406.908 170.003 430.31 170.003 453.854 170.003C455.698 170.003 457.399 170.287 459.811 170.428C458.818 172.414 458.25 173.974 457.399 175.251C444.918 196.1 432.296 216.948 419.815 237.797C417.545 241.627 414.992 243.187 410.454 243.187C387.194 242.903 363.65 243.045 340.107 243.045ZM713.118 170.003C714.536 170.003 715.812 170.287 717.94 170.57C716.947 172.698 716.238 174.4 715.245 175.96C702.764 196.809 690.141 217.658 677.66 238.506C675.817 241.627 673.689 243.187 669.718 243.187C645.607 243.045 621.496 243.045 597.385 243.045C595.967 243.045 594.548 242.761 592.563 242.62C593.414 240.776 593.839 239.216 594.548 237.939C607.313 216.665 620.078 195.532 632.7 174.258C634.402 171.279 636.388 169.861 640.076 169.861C664.328 170.003 688.723 169.861 713.118 170.003ZM767.155 243.045C766.304 243.045 765.595 242.761 763.751 242.478C767.297 236.663 770.275 231.699 773.253 226.735C783.749 209.29 794.244 191.845 804.739 174.258C806.441 171.279 808.427 169.719 812.114 169.719C836.651 169.861 861.187 169.861 885.724 169.861C886.859 169.861 888.135 170.145 889.837 170.287C889.128 171.989 888.702 173.407 887.993 174.541C875.087 195.958 862.322 217.374 849.416 238.79C847.855 241.485 846.153 243.187 842.608 243.187C817.504 243.045 792.258 243.045 767.155 243.045ZM1057.76 170.003C1058.9 170.003 1060.17 170.287 1062.02 170.428C1060.74 172.839 1059.89 174.541 1058.9 176.243C1046.56 196.809 1034.22 217.232 1022.02 237.797C1019.75 241.627 1017.2 243.187 1012.66 243.187C989.117 243.045 965.716 243.045 942.172 243.045C940.328 243.045 938.626 242.761 936.073 242.62C937.208 240.35 937.917 238.79 938.91 237.23C951.391 216.381 964.014 195.532 976.495 174.683C978.338 171.563 980.324 169.719 984.295 169.861C1008.69 170.003 1033.23 169.861 1057.76 170.003ZM853.387 243.045C852.536 243.045 851.827 242.903 850.408 242.62C850.976 241.059 851.259 239.783 851.969 238.648C864.733 217.232 877.64 195.816 890.546 174.4C892.106 171.847 893.525 169.719 897.212 169.719C922.599 169.861 947.987 169.861 973.374 169.861C973.942 169.861 974.651 170.145 976.069 170.428C974.935 172.698 974.083 174.258 973.233 175.818C960.752 196.525 948.271 217.09 935.931 237.797C934.088 240.776 932.528 243.045 928.273 243.045C903.311 243.045 878.349 243.045 853.387 243.045ZM424.07 243.045C423.077 243.045 422.084 242.903 420.098 242.62C421.233 240.35 421.8 238.79 422.651 237.514C435.274 216.523 448.039 195.532 460.52 174.4C462.222 171.563 464.065 169.861 467.895 169.861C492.857 170.003 517.819 170.003 542.781 170.003C543.632 170.003 544.341 170.145 545.901 170.287C545.05 171.989 544.624 173.549 543.773 174.825C531.151 195.816 518.386 216.807 505.905 237.939C503.919 241.201 501.934 243.187 497.679 243.187C473.142 243.045 448.606 243.045 424.07 243.045ZM512.855 243.045C510.869 243.045 508.883 242.761 506.331 242.62C507.182 240.634 507.607 239.357 508.316 238.081C521.223 216.665 534.129 195.39 546.894 173.974C548.738 170.854 551.007 169.861 554.411 169.861C578.947 170.003 603.484 169.861 628.02 170.003C629.155 170.003 630.289 170.287 632.133 170.428C631.14 172.414 630.431 173.832 629.722 175.251C617.241 196.1 604.476 216.948 592.137 237.797C589.868 241.627 587.315 243.329 582.777 243.187C559.375 242.903 536.115 243.045 512.855 243.045ZM1027.55 243.045C1026.13 243.045 1024.72 243.045 1022.59 243.045C1023.16 241.201 1023.44 239.783 1024.01 238.79C1037.06 217.09 1050.1 195.248 1063.15 173.549C1064.57 171.279 1066.13 169.861 1069.11 169.861C1094.64 170.003 1120.31 170.003 1145.84 170.003C1146.26 170.003 1146.69 170.145 1147.97 170.57C1146.97 172.556 1146.12 174.258 1145.27 175.818C1132.79 196.525 1120.31 217.09 1108.11 237.797C1105.84 241.627 1103.29 243.187 1098.75 243.187C1074.92 243.045 1051.24 243.045 1027.55 243.045ZM1318.59 170.145C1318.73 170.145 1319.01 170.286 1320.01 170.712C1319.01 172.698 1318.16 174.258 1317.31 175.818C1304.83 196.525 1292.35 217.09 1280.15 237.939C1277.88 241.91 1275.19 243.329 1270.79 243.329C1247.53 243.187 1224.27 243.187 1200.87 243.187C1199.02 243.187 1197.18 243.187 1194.49 243.187C1195.34 241.059 1195.76 239.499 1196.47 238.223C1209.24 216.807 1222.14 195.39 1234.91 173.974C1236.33 171.563 1238.03 169.861 1241.29 169.861C1267.1 170.003 1292.77 170.003 1318.59 170.145ZM1230.09 169.861C1231.08 169.861 1232.07 170.003 1233.77 170.145C1233.21 171.705 1232.92 173.123 1232.21 174.258C1219.31 195.816 1206.26 217.374 1193.35 238.932C1191.65 241.627 1189.95 243.187 1186.54 243.187C1161.58 243.045 1136.62 243.045 1111.66 243.045C1110.81 243.045 1110.1 242.903 1108.11 242.62C1109.53 240.067 1110.38 238.223 1111.37 236.521C1123.71 215.956 1136.05 195.532 1148.25 174.967C1150.24 171.705 1152.22 169.719 1156.48 169.719C1181.01 170.003 1205.55 169.861 1230.09 169.861ZM797.932 170.003C799.775 170.003 801.477 170.287 804.03 170.428C802.896 172.698 802.186 174.4 801.336 175.818C788.855 196.667 776.232 217.516 763.751 238.365C761.907 241.485 759.78 243.187 755.95 243.187C731.839 243.045 707.728 243.187 683.617 243.045C682.199 243.045 680.781 242.761 678.228 242.478C679.646 239.783 680.497 237.939 681.632 236.237C693.829 215.956 706.168 195.674 718.223 175.251C720.493 171.421 722.904 169.719 727.584 169.719C750.844 170.003 774.388 169.861 797.932 170.003ZM471.724 167.45C469.88 167.45 468.179 167.166 465.626 167.024C466.76 164.755 467.469 163.053 468.32 161.635C480.801 140.928 493.282 120.363 505.621 99.6556C507.891 95.968 510.444 94.5497 514.698 94.6915C538.242 94.8333 561.644 94.6915 585.188 94.8333C587.031 94.8333 588.733 95.117 591.286 95.2589C590.152 97.5281 589.443 99.2302 588.592 100.648C576.394 120.93 564.055 141.212 552 161.635C549.589 165.89 546.752 167.734 541.646 167.734C518.244 167.308 494.984 167.45 471.724 167.45ZM672.555 94.6915C673.831 94.6915 674.966 94.8334 677.377 94.9753C676.242 97.2445 675.675 98.8046 674.824 100.081C662.343 120.93 649.72 141.779 637.239 162.628C635.253 166.032 632.842 167.592 628.729 167.45C604.76 167.308 580.933 167.45 556.964 167.308C555.403 167.308 553.843 167.025 551.716 166.741C552.709 164.755 553.276 163.195 554.127 161.919C566.608 141.07 579.231 120.221 591.712 99.3719C593.839 95.8262 596.25 94.5497 600.222 94.5497C624.333 94.6915 648.444 94.5497 672.555 94.6915ZM729.995 167.45C728.152 167.45 726.45 167.166 723.897 167.024C724.748 165.039 725.315 163.479 726.166 162.06C738.647 141.212 751.27 120.363 763.751 99.5137C765.736 96.1098 768.006 94.5497 772.119 94.5497C795.662 94.6915 819.064 94.6915 842.608 94.6915C844.452 94.6915 846.295 94.9752 849.274 95.1171C847.997 97.67 847.288 99.3719 846.437 100.932C834.098 121.497 821.759 141.921 809.562 162.486C807.434 166.174 804.881 167.592 800.626 167.592C776.941 167.45 753.397 167.45 729.995 167.45ZM1015.5 94.6915C1017.06 94.6915 1018.76 94.9752 1021.45 95.2588C1019.89 98.0954 1019.04 99.9392 1018.05 101.641C1006 121.781 993.798 141.921 981.742 162.06C979.473 165.89 977.062 167.734 972.382 167.592C948.838 167.308 925.294 167.45 901.892 167.45C900.049 167.45 898.347 167.166 895.794 166.883C896.928 164.613 897.638 162.911 898.489 161.351C910.97 140.644 923.45 120.079 935.79 99.2301C937.917 95.6844 940.328 94.4079 944.299 94.4079C967.985 94.6916 991.67 94.5497 1015.5 94.6915ZM1028.97 94.5497C1053.79 94.6915 1078.47 94.5497 1103.29 94.6915C1104.28 94.6915 1105.28 94.9752 1107.26 95.2588C1106.13 97.5281 1105.56 98.9464 1104.71 100.365C1092.23 121.214 1079.6 142.062 1067.12 162.911C1065.14 166.173 1062.87 167.592 1059.18 167.592C1035.21 167.45 1011.38 167.592 987.415 167.45C985.855 167.45 984.295 167.024 982.026 166.883C982.877 164.897 983.444 163.337 984.295 162.06C996.918 141.07 1009.54 119.937 1022.16 98.9464C1023.72 96.1098 1025.57 94.5497 1028.97 94.5497ZM814.384 167.45C813.107 167.45 811.973 167.166 809.987 167.024C810.696 165.181 811.122 163.621 811.831 162.344C824.595 141.07 837.36 119.937 849.983 98.6628C851.543 96.1099 853.245 94.5497 856.365 94.5497C881.327 94.6915 906.289 94.5497 931.251 94.6915C932.244 94.6915 933.237 95.117 934.939 95.4007C933.946 97.5281 933.379 98.8046 932.669 100.081C920.188 120.93 907.566 141.779 895.085 162.628C893.241 165.748 891.255 167.592 887.284 167.45C863.173 167.45 838.778 167.45 814.384 167.45ZM1074.5 167.45C1072.51 167.45 1070.53 167.166 1067.83 166.883C1068.97 164.472 1069.68 162.77 1070.53 161.209C1083.01 140.502 1095.49 119.937 1107.83 99.2301C1109.67 95.9681 1111.94 94.5497 1115.77 94.5497C1140.17 94.6915 1164.42 94.6915 1188.81 94.6915C1189.95 94.6915 1191.22 94.9752 1193.49 95.2588C1192.08 97.9536 1191.08 99.7974 1190.09 101.499C1178.03 121.639 1165.84 141.779 1153.78 161.919C1151.51 165.748 1149.1 167.592 1144.42 167.45C1121.16 167.308 1097.9 167.45 1074.5 167.45ZM1160.02 167.45C1158.18 167.45 1156.48 167.024 1154.06 166.883C1155.06 164.755 1155.63 163.195 1156.33 161.919C1168.82 141.07 1181.44 120.221 1193.92 99.3719C1195.9 96.1099 1198.03 94.6915 1201.86 94.6915C1226.26 94.8333 1250.51 94.6915 1274.9 94.6915C1276.04 94.6915 1277.31 94.9752 1279.16 95.2588C1278.45 97.1026 1277.88 98.6628 1277.17 99.9393C1264.55 120.93 1251.79 141.921 1239.3 163.053C1237.32 166.315 1235.05 167.592 1231.22 167.592C1207.39 167.45 1183.71 167.45 1160.02 167.45ZM1358.87 94.6915C1360.71 94.6915 1362.55 94.8334 1364.97 94.9752C1364.26 96.6772 1363.97 98.0955 1363.4 99.2301C1350.64 120.505 1337.88 141.637 1325.25 162.911C1323.55 165.748 1321.71 167.592 1317.88 167.592C1292.92 167.45 1267.95 167.45 1242.99 167.45C1242.14 167.45 1241.43 167.166 1239.59 166.883C1241.01 164.33 1241.86 162.486 1242.85 160.784C1254.91 140.786 1266.96 120.93 1278.73 100.932C1281.29 96.5353 1284.26 94.5497 1289.51 94.5497C1312.77 94.8333 1335.75 94.6915 1358.87 94.6915ZM757.794 94.6915C759.354 94.6915 760.914 94.9752 763.183 95.2589C762.049 97.3863 761.481 99.0883 760.489 100.648C748.008 121.356 735.527 141.921 723.188 162.628C721.202 166.032 718.933 167.734 714.82 167.734C690.709 167.592 666.598 167.592 642.487 167.592C641.068 167.592 639.65 167.308 637.523 167.024C638.799 164.755 639.65 162.911 640.643 161.209C652.698 141.07 664.896 121.072 676.951 100.79C679.504 96.5354 682.199 94.6915 687.305 94.6915C710.848 94.6915 734.25 94.5497 757.794 94.6915ZM498.388 94.6915C500.374 94.6915 502.359 94.9753 505.054 95.1171C504.203 97.1027 503.778 98.5209 503.069 99.6556C490.446 120.646 477.681 141.637 465.2 162.77C463.214 166.173 460.803 167.592 456.69 167.592C433.005 167.45 409.319 167.45 385.634 167.45C384.074 167.45 382.372 167.166 379.535 166.883C381.237 163.904 382.23 161.919 383.365 159.933C395.42 139.935 407.476 120.079 419.247 100.081C421.517 96.2517 423.928 94.5497 428.608 94.5497C451.868 94.6916 475.128 94.5497 498.388 94.6915ZM1232.78 18.9546C1234.62 18.9546 1236.47 19.0965 1238.88 19.2384C1238.17 20.9403 1237.74 22.3586 1237.04 23.4932C1224.13 44.9095 1211.36 66.3256 1198.46 87.6C1196.9 90.153 1195.34 92.1387 1191.79 92.1387C1166.69 91.9968 1141.44 91.9967 1116.34 91.9967C1115.49 91.9967 1114.78 91.7132 1112.93 91.4295C1115.49 87.0328 1117.47 83.4869 1119.6 79.9412C1130.8 61.3616 1142.01 42.9239 1152.93 24.3442C1155.2 20.5148 1157.61 18.8128 1162.29 18.8128C1185.69 19.0965 1209.24 18.9546 1232.78 18.9546ZM517.535 92.1387C515.691 92.1387 513.848 91.9968 511.295 91.8549C512.004 90.0112 512.429 88.4511 513.28 87.1747C526.045 65.9003 538.809 44.7677 551.432 23.4933C553.134 20.6567 554.978 18.9546 558.807 18.9546C583.344 19.0965 607.88 19.0966 632.417 19.0966C633.551 19.0966 634.828 19.3801 636.955 19.6638C635.679 22.2167 634.828 23.9188 633.835 25.4789C621.496 46.0442 609.015 66.4675 596.959 87.0327C594.69 90.8621 591.995 92.4223 587.599 92.2805C564.055 91.9968 540.795 92.1387 517.535 92.1387ZM644.472 18.9546C669.434 19.0965 694.396 19.0966 719.358 19.0966C720.209 19.0966 720.918 19.2383 722.762 19.522C721.769 21.6494 721.06 23.2095 720.351 24.486C707.728 45.4768 695.105 66.6093 682.483 87.6C680.781 90.4366 678.937 92.2805 675.249 92.2805C650.145 92.1387 624.9 92.1387 599.796 92.1387C599.229 92.1387 598.52 91.9968 597.385 91.8549C597.952 90.4366 598.236 89.1602 598.803 88.0256C611.71 66.4675 624.758 44.9095 637.664 23.3515C639.225 20.5149 640.927 18.9546 644.472 18.9546ZM1032.94 92.1387C1031.24 92.1387 1029.68 92.1387 1027.27 92.1387C1027.84 90.2949 1028.12 89.0184 1028.69 87.8838C1041.59 66.3257 1054.64 44.7675 1067.55 23.2095C1069.39 20.0893 1071.52 18.9546 1075.07 18.9546C1099.89 19.0965 1124.56 18.9548 1149.38 19.0966C1150.24 19.0966 1151.09 19.2383 1152.93 19.3802C1151.8 21.5076 1151.23 23.0677 1150.38 24.3442C1137.9 45.1931 1125.13 66.042 1112.79 86.8909C1110.52 90.7203 1107.83 92.2805 1103.43 92.1387C1080.03 91.9968 1056.49 92.1387 1032.94 92.1387ZM1060.03 18.9546C1062.02 18.9546 1064 18.9546 1066.84 18.9546C1065.85 21.2239 1065.28 22.7841 1064.57 24.0606C1051.81 45.335 1039.04 66.4674 1026.28 87.7418C1024.72 90.4366 1023.16 92.1387 1019.61 92.1387C994.507 91.9968 969.261 91.9967 944.158 91.9967C943.307 91.9967 942.597 91.7132 940.895 91.4295C942.172 89.0184 943.023 87.3165 944.016 85.7564C956.355 65.1911 968.694 44.7677 980.891 24.2024C983.302 20.0894 986.139 18.671 990.819 18.671C1013.94 19.0965 1036.91 18.9546 1060.03 18.9546ZM933.662 92.1387C908.275 91.9968 882.887 91.9967 857.5 91.9967C856.933 91.9967 856.365 91.7132 854.947 91.4295C855.798 89.5858 856.365 88.1673 857.074 87.0327C869.839 65.7583 882.604 44.6259 895.226 23.3515C897.212 20.0894 899.34 18.8128 903.169 18.8128C927.564 18.9547 951.816 18.9546 976.211 18.9546C977.346 18.9546 978.622 19.0966 980.324 19.2384C979.757 20.6567 979.615 21.9331 979.048 22.9259C965.999 44.6258 952.951 66.3257 939.903 88.1674C938.484 90.7203 936.924 92.2805 933.662 92.1387ZM889.411 18.9546C890.972 18.9546 892.532 19.2383 894.659 19.522C893.666 21.5076 893.099 23.0678 892.248 24.3442C879.625 45.3349 866.861 66.3257 854.38 87.4582C852.536 90.5785 850.408 92.2805 846.579 92.2805C821.759 92.1386 797.081 92.1387 772.26 92.1387C771.41 92.1387 770.559 91.9968 768.715 91.8549C769.849 89.5857 770.559 87.8837 771.551 86.3235C784.032 65.4746 796.655 44.6258 809.136 23.7769C811.122 20.373 813.533 18.9546 817.646 18.9546C841.615 19.0965 865.584 18.9546 889.411 18.9546ZM804.172 18.9546C805.449 18.9546 806.583 19.0965 808.711 19.3802C807.718 21.5076 807.15 22.7842 806.441 24.0606C793.677 45.335 780.912 66.4674 768.289 87.7418C766.587 90.5784 764.744 92.2805 760.914 92.2805C735.952 92.1387 710.99 92.1387 686.028 92.1387C685.177 92.1387 684.326 91.9968 683.05 91.8549C683.617 90.2948 684.043 89.0184 684.61 87.8838C697.375 66.4676 710.281 45.1931 723.046 23.6351C724.889 20.5148 727.017 18.9546 730.988 18.9546C755.525 19.0965 779.919 18.9546 804.172 18.9546ZM430.736 92.1387C429.034 92.1387 427.474 91.9968 425.204 91.8549C426.055 90.0112 426.481 88.4511 427.19 87.1747C439.954 65.9003 452.719 44.7677 465.484 23.4933C467.186 20.6567 469.029 18.9546 472.859 18.9546C497.253 19.0965 521.506 18.9548 545.901 19.0966C547.319 19.0966 548.596 19.3801 550.865 19.6638C549.73 22.0749 548.879 23.777 547.887 25.4789C535.689 45.7605 523.35 66.0421 511.295 86.4655C508.883 90.4367 506.331 92.2805 501.508 92.2805C477.823 91.9968 454.279 92.1387 430.736 92.1387ZM1205.55 92.1387C1203.71 92.1387 1201.86 92.1387 1199.31 92.1387C1200.02 90.1531 1200.16 88.8765 1200.87 87.7418C1213.78 66.1838 1226.82 44.6258 1239.73 23.0677C1241.43 20.2311 1243.42 18.9546 1246.68 18.9546C1271.22 19.0965 1295.75 18.9548 1320.29 19.0966C1321.42 19.0966 1322.7 19.3801 1324.83 19.6637C1323.55 22.2167 1322.7 23.9188 1321.85 25.4789C1309.51 46.0441 1297.03 66.4674 1284.97 87.0327C1282.7 91.0039 1280.01 92.4223 1275.47 92.2805C1252.21 91.9968 1228.95 92.1387 1205.55 92.1387ZM1404.39 18.9546C1406.24 18.9546 1408.08 19.0965 1410.63 19.2384C1409.64 21.5076 1409.07 23.0677 1408.22 24.6278C1395.6 45.6185 1382.84 66.6092 1370.35 87.7418C1368.65 90.7202 1366.67 92.1387 1362.98 92.1387C1338.58 91.9968 1314.33 91.9967 1289.94 91.9967C1288.52 91.9967 1287.24 91.7132 1285.12 91.4295C1286.39 89.0184 1287.24 87.3164 1288.24 85.4726C1300.43 65.191 1312.77 44.9094 1324.83 24.486C1327.24 20.5148 1329.79 18.671 1334.61 18.671C1357.87 19.0965 1381.13 18.9546 1404.39 18.9546ZM762.758 -56.2149C764.176 -56.2149 765.594 -55.9312 767.864 -55.6475C766.871 -53.6619 766.304 -51.9599 765.453 -50.3997C752.83 -29.409 740.207 -8.41826 727.584 12.7143C725.882 15.6927 723.755 17.111 720.067 17.111C695.673 16.9691 671.42 17.111 647.025 16.9692C645.607 16.9692 644.33 16.6855 642.203 16.26C643.479 13.9908 644.33 12.1468 645.323 10.4449C657.804 -10.2622 670.285 -30.8274 682.483 -51.5344C684.326 -54.6547 686.454 -56.2149 690.425 -56.2149C714.536 -56.073 738.647 -56.2149 762.758 -56.2149ZM676.526 -56.2149C678.086 -56.2149 679.788 -56.073 681.915 -55.9311C681.206 -54.2292 680.781 -52.9527 680.071 -51.6763C667.307 -30.4018 654.542 -9.2694 641.919 11.8632C640.076 14.8416 638.374 16.9692 634.261 16.9692C609.724 16.8273 585.188 16.8272 560.651 16.8272C559.517 16.8272 558.24 16.5437 556.113 16.26C557.389 13.7071 558.24 12.1468 559.233 10.4449C571.572 -9.97853 583.911 -30.4018 596.109 -50.9671C598.378 -54.7965 600.931 -56.4985 605.469 -56.3567C629.155 -56.073 652.84 -56.2149 676.526 -56.2149ZM475.554 16.9692C473.994 16.9692 472.433 16.6855 470.164 16.4018C471.157 14.4162 471.724 12.8561 472.433 11.5796C484.914 -9.2693 497.537 -30.1182 509.876 -50.9671C512.146 -54.7965 514.84 -56.3567 519.379 -56.3567C542.923 -56.2149 566.324 -56.2149 589.868 -56.2149C591.712 -56.2149 593.414 -55.9312 595.967 -55.7893C594.69 -53.3782 593.839 -51.5345 592.846 -49.8326C580.507 -29.4091 568.168 -8.98567 555.971 11.5796C553.702 15.409 551.149 17.111 546.61 16.9692C523.066 16.8274 499.381 16.9692 475.554 16.9692ZM803.747 17.111C780.912 16.8273 758.078 16.9692 735.101 16.9692C733.116 16.9692 731.13 16.8272 728.435 16.6854C729.286 14.6998 729.57 13.4233 730.279 12.2887C743.044 -9.12749 755.95 -30.4018 768.857 -51.818C770.417 -54.5128 772.26 -56.0729 775.664 -56.0729C800.626 -55.9311 825.588 -55.9311 850.55 -55.9311C851.401 -55.9311 852.11 -55.6474 853.954 -55.3638C852.82 -53.0945 852.11 -51.3927 851.118 -49.8326C838.92 -29.551 826.581 -9.2694 814.526 11.154C811.973 15.4089 808.994 17.111 803.747 17.111ZM905.438 16.9691C904.02 16.9691 902.602 16.6855 900.616 16.4018C901.467 14.558 901.892 12.9978 902.743 11.7214C915.508 -9.55304 928.273 -30.6856 940.895 -51.96C942.597 -54.6548 944.299 -56.2149 947.845 -56.2149C972.807 -56.0731 997.769 -56.0729 1022.73 -56.0729C1023.58 -56.0729 1024.29 -55.9312 1026.13 -55.6476C1025.14 -53.5201 1024.57 -51.96 1023.72 -50.6835C1011.1 -29.6928 998.336 -8.70206 985.855 12.4305C984.012 15.6926 981.742 17.111 977.913 17.111C953.66 16.9691 929.549 16.9691 905.438 16.9691ZM989.968 16.9691C988.976 16.9691 987.983 16.6854 986.139 16.5436C987.132 14.558 987.557 13.4233 988.266 12.4305C1001.17 -8.98572 1014.08 -30.26 1026.7 -51.6763C1028.69 -54.9383 1030.96 -56.2149 1034.64 -56.2149C1058.76 -56.0731 1082.87 -56.2148 1106.98 -56.0729C1108.4 -56.0729 1109.81 -55.7894 1111.8 -55.6476C1110.95 -53.8038 1110.52 -52.2436 1109.67 -50.9671C1096.91 -29.6927 1084.14 -8.56013 1071.52 12.7143C1069.82 15.6927 1067.83 17.2527 1064.15 17.2527C1039.47 16.9691 1014.79 16.9691 989.968 16.9691ZM1280.01 -56.2149C1281 -56.2149 1281.99 -56.073 1283.7 -55.9311C1283.13 -54.371 1282.85 -52.9528 1282.28 -51.96C1269.37 -30.402 1256.32 -8.84379 1243.42 12.7143C1241.86 15.409 1240.01 16.9691 1236.61 16.9691C1211.51 16.8273 1186.26 16.969 1161.16 16.8272C1160.59 16.8272 1159.88 16.5437 1158.32 16.26C1159.45 14.1326 1160.16 12.4305 1161.01 10.8704C1173.5 -9.97849 1186.12 -30.8274 1198.6 -51.6763C1200.44 -54.7965 1202.57 -56.3567 1206.4 -56.3567C1230.94 -56.073 1255.47 -56.2149 1280.01 -56.2149ZM1194.06 -56.2149C1195.05 -56.2149 1196.05 -56.073 1197.75 -55.9311C1197.18 -54.371 1197.04 -52.9527 1196.33 -51.8181C1183.28 -30.1182 1170.23 -8.41828 1157.19 13.4234C1155.77 15.8345 1154.06 17.111 1151.23 17.111C1125.7 16.9691 1100.17 16.9691 1074.5 16.9691C1074.07 16.9691 1073.65 16.6855 1072.23 16.26C1073.51 13.9907 1074.36 12.2888 1075.35 10.5868C1087.69 -10.1202 1100.17 -30.6856 1112.51 -51.3927C1114.35 -54.5129 1116.48 -56.0729 1120.31 -56.0729C1144.99 -56.0729 1169.52 -56.2149 1194.06 -56.2149ZM1366.38 -56.2149C1367.38 -56.2149 1368.37 -56.073 1369.93 -55.9311C1369.22 -54.371 1368.94 -52.9527 1368.23 -51.8181C1355.46 -30.4018 1342.56 -9.12752 1329.65 12.2887C1327.95 15.1253 1326.1 16.9691 1322.27 16.9691C1297.6 16.8273 1272.78 16.8272 1248.1 16.8272C1247.1 16.8272 1246.11 16.5437 1244.13 16.26C1245.26 13.9907 1245.97 12.4305 1246.82 11.154C1259.3 -9.6949 1271.93 -30.5438 1284.41 -51.3927C1286.25 -54.5129 1288.09 -56.4985 1292.06 -56.3567C1316.88 -56.073 1341.56 -56.2149 1366.38 -56.2149ZM932.669 -56.2149C934.797 -56.2149 937.066 -56.2149 940.186 -56.2149C938.768 -53.5201 938.201 -51.8181 937.208 -50.258C924.727 -29.4091 912.104 -8.56018 899.623 12.2887C897.779 15.409 895.652 17.111 891.681 17.111C867.57 16.9691 843.459 17.111 819.348 16.9692C817.929 16.9692 816.511 16.6855 813.958 16.4018C815.377 13.707 816.228 11.8632 817.362 10.1613C829.418 -9.97848 841.615 -29.9764 853.67 -50.258C856.223 -54.5128 858.918 -56.3567 864.024 -56.2149C887 -56.0731 909.835 -56.2149 932.669 -56.2149Z" fill="#FF1A2D" fill-opacity="0.08"/>
<path d="M896.361 440.613C913.522 469.121 930.684 497.629 947.845 526.136C968.694 560.743 989.401 595.207 1010.25 629.813C1013.65 635.487 1014.22 635.628 1019.75 633.501C1017.48 627.261 901.041 434.373 897.637 430.969C893.099 435.082 893.099 435.082 896.361 440.613Z" fill="#FF1A2D" fill-opacity="0.08"/>
<path d="M261.25 435.791C262.668 433.238 263.802 431.253 264.937 429.267C282.098 400.759 299.26 372.251 316.421 343.744C317.556 341.9 318.407 339.914 319.4 338.071C318.974 337.787 318.69 337.362 318.265 337.078C317.13 337.645 315.712 337.787 314.861 338.638C313.585 340.056 312.734 341.758 311.883 343.318C294.296 372.535 276.567 401.752 259.264 431.111C256.853 435.224 254.016 436.784 249.336 436.642C229.338 436.358 209.34 436.5 189.484 436.5C187.64 436.5 185.655 436.358 183.953 436.642C182.818 436.926 181.967 437.918 180.974 438.628C181.116 439.053 181.258 439.62 181.258 440.046C183.385 440.188 185.513 440.471 187.64 440.471C206.929 440.471 226.36 440.471 245.648 440.471C247.776 440.471 250.187 439.904 252.173 441.748C251.463 443.166 250.896 444.584 250.187 445.719C218.275 498.905 186.222 551.949 154.452 605.135C152.325 608.681 149.914 609.816 145.942 609.816C125.519 609.674 105.096 609.674 84.814 609.816C82.9702 609.816 80.9846 609.674 79.2826 610.099C78.148 610.383 77.4388 611.659 76.446 612.51C76.5879 612.936 76.7297 613.361 76.8715 613.787C78.999 613.929 81.2682 614.07 83.3957 614.07C102.684 614.07 122.115 614.07 141.404 614.07C143.531 614.07 145.659 614.212 148.637 614.496C147.077 617.191 146.226 618.893 145.091 620.736C124.101 655.626 102.968 690.658 81.9774 725.548C80.4173 728.243 79.2826 731.08 78.0062 733.916C79.7081 733.916 81.2682 733.916 82.9702 733.916C83.8212 731.789 84.5303 729.661 85.6649 727.676C107.365 691.509 129.207 655.343 150.906 619.034C153.176 615.347 155.729 614.07 159.842 614.07C221.679 614.212 283.375 614.212 345.213 614.212C347.056 614.212 348.758 614.496 351.453 614.78C349.893 617.616 348.758 619.744 347.482 621.871C326.207 657.187 305.075 692.502 283.8 727.818C282.666 729.661 282.24 731.931 281.389 734.058C282.666 734.058 283.942 734.058 285.077 734.058C285.502 733.207 286.07 732.214 286.495 731.363C309.046 693.779 331.739 656.194 354.29 618.467C356.275 615.063 358.828 614.354 362.516 614.354C394.144 614.496 425.772 614.354 457.399 614.354C459.527 614.354 461.513 614.354 463.64 614.212C465.484 613.929 466.76 613.078 465.909 610.099C431.161 610.099 396.129 610.099 359.963 610.099C361.523 607.263 362.374 605.419 363.367 603.717C394.711 551.524 426.339 499.331 457.541 446.996C460.378 442.173 463.64 440.613 469.029 440.755C500.09 441.039 531.009 440.897 562.07 440.897C564.197 440.897 566.324 441.039 568.31 440.613C569.445 440.33 570.154 439.053 571.147 438.344C571.005 437.919 570.863 437.493 570.721 437.068C568.31 436.926 565.899 436.784 563.488 436.784C532.853 436.784 502.359 436.784 471.724 436.784C469.597 436.784 467.469 436.642 464.349 436.5C469.029 428.7 473.001 421.892 477.114 415.226C491.297 391.682 505.48 368.139 519.521 344.595C520.655 342.609 522.783 340.766 522.074 338.213C519.804 336.936 518.67 338.071 517.677 339.631C516.259 341.9 514.84 344.169 513.422 346.58C496.403 374.946 479.241 403.312 462.364 431.678C460.236 435.082 458.109 437.209 453.57 437.068C391.307 436.926 329.186 436.926 266.923 436.926C265.079 436.5 263.519 436.075 261.25 435.791ZM337.412 440.613C374.288 440.613 411.021 440.613 447.897 440.613C450.166 440.613 452.294 440.613 455.556 440.613C454.137 443.45 453.286 445.294 452.294 446.996C420.524 499.756 388.754 552.517 357.126 605.277C354.999 608.823 352.729 610.099 348.616 610.099C286.353 609.957 224.232 609.957 161.969 609.957C160.551 609.957 159.133 609.816 156.721 609.674C157.714 607.688 158.423 605.986 159.274 604.568C187.782 557.197 216.29 509.684 244.797 462.313C247.918 457.207 251.18 452.101 254.016 446.712C256.427 442.173 259.548 440.33 264.795 440.471C289.19 440.755 313.301 440.613 337.412 440.613Z" fill="#FF1A2D" fill-opacity="0.08"/>
<path d="M1276.18 726.967C1274.76 729.236 1273.63 731.789 1272.49 734.058C1274.62 734.058 1276.61 734.058 1278.73 734.058C1279.87 731.931 1281 729.661 1282.28 727.534C1323.55 659.03 1364.68 590.527 1405.95 522.023C1416.73 504.011 1427.65 486.14 1438.57 468.27L1438.57 458.342C1437.01 460.611 1435.45 462.739 1434.04 465.008C1381.42 552.233 1328.8 639.6 1276.18 726.967Z" fill="#FF1A2D" fill-opacity="0.08"/>
<path d="M33.0463 672.646C34.0391 674.206 34.4645 676.334 37.7266 676.759C36.7338 674.773 36.3083 673.497 35.5992 672.362C24.962 654.634 14.183 636.763 3.54576 619.034C2.69479 617.616 1.41832 616.623 0.283689 615.347L0.283689 619.034C1.56015 620.878 3.12028 622.58 4.25491 624.566C13.7575 640.734 23.4019 656.761 33.0463 672.646Z" fill="#FF1A2D" fill-opacity="0.08"/>
<path d="M1388.37 728.385C1387.37 730.087 1386.81 732.072 1385.96 734.058C1388.51 734.058 1390.92 734.058 1393.47 734.058C1408.51 709.096 1423.4 684.134 1438.43 659.172L1438.43 646.691C1437.16 648.251 1435.74 649.811 1434.6 651.513C1419.29 677.185 1403.83 702.714 1388.37 728.385Z" fill="#FF1A2D" fill-opacity="0.08"/>
</svg>
