<svg width="241" height="259" viewBox="0 0 241 259" fill="none" xmlns="http://www.w3.org/2000/svg">
<g filter="url(#filter0_d_64_149)">
<path d="M111.208 122.546L92.1553 133.954L85.9893 167.138L91.5402 179.169L106.764 174.535L120.404 137.519L111.208 122.546Z" stroke="#121212" stroke-width="2.76488" stroke-miterlimit="10" shape-rendering="crispEdges"/>
</g>
<path d="M111.5 122.871L117.22 145.063L100.074 176.569" stroke="#121212" stroke-width="2.76488" stroke-miterlimit="10"/>
<path d="M92.1545 133.953L96.1989 139.241L117.574 145.168" stroke="#121212" stroke-width="2.76488" stroke-miterlimit="10"/>
<path d="M110.776 122.679L96.1985 139.241L89.1249 173.925" stroke="#121212" stroke-width="2.76488" stroke-miterlimit="10"/>
<g filter="url(#filter1_d_64_149)">
<path d="M131.782 80.1967L118.296 99.3883L146.037 141.41L161.783 148.689L167.473 133.033L155.663 84.757L131.782 80.1967Z" stroke="#121212" stroke-width="2.76488" stroke-miterlimit="10" shape-rendering="crispEdges"/>
</g>
<path d="M132.291 80.3005L146.731 93.3422L163.968 142.658" stroke="#121212" stroke-width="2.76488" stroke-miterlimit="10"/>
<path d="M118.296 99.3879L131.028 99.4918L146.729 93.3422L155.663 84.7567" stroke="#121212" stroke-width="2.76488" stroke-miterlimit="10"/>
<path d="M131.491 80.6122L131.029 99.4916L155.726 145.896" stroke="#121212" stroke-width="2.76488" stroke-miterlimit="10"/>
<path d="M110.5 81.0729C105.241 82.9742 101.043 87.0144 99.0744 92.0945C97.0907 87.0144 92.9085 82.9742 87.6494 81.0729C92.9085 79.1567 97.0907 75.1462 99.0744 70.0661C101.043 75.1462 105.241 79.1716 110.5 81.0729Z" fill="#121212"/>
<path d="M120.48 20.8845V56.95" stroke="#121212" stroke-width="2.76488" stroke-miterlimit="10" stroke-linecap="round"/>
<path d="M159.003 40.9661L150.268 61.1825" stroke="#121212" stroke-width="2.76488" stroke-miterlimit="10" stroke-linecap="round"/>
<path d="M127.999 7.27849C124.524 8.52624 121.756 11.2 120.448 14.5422C119.141 11.2 116.374 8.52624 112.898 7.27849C116.389 6.0159 119.141 3.35702 120.448 2.86102e-06C121.756 3.35702 124.524 6.0159 127.999 7.27849Z" fill="#121212"/>
<path d="M215.806 48.2303C212.423 46.7449 208.517 46.745 205.134 48.2155C206.672 44.9476 206.672 41.1894 205.134 37.9216C208.517 39.407 212.407 39.4069 215.79 37.9363C214.252 41.2042 214.268 44.9773 215.806 48.2303Z" fill="#121212"/>
<path d="M219.297 130.299H182.376" stroke="#121212" stroke-width="2.76488" stroke-miterlimit="10" stroke-linecap="round"/>
<path d="M233.382 137.564C232.09 134.206 229.322 131.533 225.862 130.27C229.322 129.007 232.09 126.334 233.382 122.977C234.689 126.334 237.442 129.007 240.917 130.27C237.442 131.533 234.689 134.206 233.382 137.564Z" fill="#121212"/>
<path d="M212.285 93.935L191.31 102.253" stroke="#121212" stroke-width="2.76488" stroke-miterlimit="10" stroke-linecap="round"/>
<path d="M201.152 52.0622L174.118 78.1906L201.152 52.0622Z" fill="#121212"/>
<path d="M201.152 52.0622L174.118 78.1906" stroke="#121212" stroke-width="2.76488" stroke-miterlimit="10" stroke-linecap="round"/>
<path d="M81.8987 39.1099L90.6488 59.3263" stroke="#121212" stroke-width="2.76488" stroke-miterlimit="10" stroke-linecap="round"/>
<path d="M25.1093 46.3741C28.4769 44.8887 32.3829 44.8739 35.766 46.3593C34.2436 43.0915 34.2438 39.3184 35.7816 36.0654C32.3985 37.5359 28.4925 37.5508 25.1249 36.0654C26.6472 39.3333 26.647 43.1063 25.1093 46.3741Z" fill="#121212"/>
<path d="M21.6042 128.428H58.5252" stroke="#121212" stroke-width="2.76488" stroke-miterlimit="10" stroke-linecap="round"/>
<path d="M7.51935 135.69C8.82644 132.333 11.579 129.66 15.0543 128.397C11.579 127.135 8.82644 124.461 7.51935 121.119C6.21226 124.476 3.45993 127.135 0 128.397C3.45993 129.66 6.21226 132.333 7.51935 135.69Z" fill="#121212"/>
<path d="M28.6165 92.0801L49.6067 100.398" stroke="#121212" stroke-width="2.76488" stroke-miterlimit="10" stroke-linecap="round"/>
<path d="M39.7487 50.2062L66.7974 76.3197L39.7487 50.2062Z" fill="#121212"/>
<path d="M39.7487 50.2062L66.7974 76.3197" stroke="#121212" stroke-width="2.76488" stroke-miterlimit="10" stroke-linecap="round"/>
<path d="M120.496 237.471V201.391" stroke="#121212" stroke-width="2.76488" stroke-miterlimit="10" stroke-linecap="round"/>
<path d="M159.032 217.374L150.282 197.158" stroke="#121212" stroke-width="2.76488" stroke-miterlimit="10" stroke-linecap="round"/>
<path d="M128.015 251.063C124.54 249.815 121.772 247.156 120.465 243.799C119.158 247.156 116.405 249.815 112.93 251.063C116.405 252.34 119.158 254.984 120.465 258.341C121.772 254.984 124.54 252.325 128.015 251.063Z" fill="#121212"/>
<path d="M215.822 210.11C212.454 211.595 208.548 211.595 205.165 210.125C206.688 213.393 206.688 217.151 205.15 220.418C208.533 218.933 212.423 218.933 215.806 220.418C214.284 217.151 214.284 213.378 215.822 210.11Z" fill="#121212"/>
<path d="M212.314 164.404L191.324 156.085" stroke="#121212" stroke-width="2.76488" stroke-miterlimit="10" stroke-linecap="round"/>
<path d="M201.181 206.278L174.132 180.164L201.181 206.278Z" fill="#121212"/>
<path d="M201.181 206.278L174.132 180.164" stroke="#121212" stroke-width="2.76488" stroke-miterlimit="10" stroke-linecap="round"/>
<path d="M81.9302 219.245L90.6647 199.028" stroke="#121212" stroke-width="2.76488" stroke-miterlimit="10" stroke-linecap="round"/>
<path d="M25.1251 211.982C28.5082 213.467 32.4142 213.467 35.7818 211.996C34.2595 215.264 34.2591 219.022 35.7969 222.29C32.4138 220.805 28.5238 220.805 25.1407 222.275C26.6785 219.007 26.6629 215.235 25.1251 211.982Z" fill="#121212"/>
<path d="M28.6459 166.274L49.6211 157.956" stroke="#121212" stroke-width="2.76488" stroke-miterlimit="10" stroke-linecap="round"/>
<path d="M39.7803 208.149L66.814 182.02L39.7803 208.149Z" fill="#121212"/>
<path d="M39.7803 208.149L66.814 182.02" stroke="#121212" stroke-width="2.76488" stroke-miterlimit="10" stroke-linecap="round"/>
<path d="M77.6086 114.969L73.4567 117.643L74.8101 113.008L70.9038 110.023L75.8865 109.83L77.6086 105.314L79.3308 109.83L84.3129 110.023L80.4072 113.008L81.7606 117.643L77.6086 114.969Z" fill="#121212"/>
<defs>
<filter id="filter0_d_64_149" x="80.5497" y="120.657" width="45.3837" height="68.1857" filterUnits="userSpaceOnUse" color-interpolation-filters="sRGB">
<feFlood flood-opacity="0" result="BackgroundImageFix"/>
<feColorMatrix in="SourceAlpha" type="matrix" values="0 0 0 0 0 0 0 0 0 0 0 0 0 0 0 0 0 0 127 0" result="hardAlpha"/>
<feOffset dy="4"/>
<feGaussianBlur stdDeviation="2"/>
<feComposite in2="hardAlpha" operator="out"/>
<feColorMatrix type="matrix" values="0 0 0 0 0.988235 0 0 0 0 0.831373 0 0 0 0 0.0823529 0 0 0 1 0"/>
<feBlend mode="normal" in2="BackgroundImageFix" result="effect1_dropShadow_64_149"/>
<feBlend mode="normal" in="SourceGraphic" in2="effect1_dropShadow_64_149" result="shape"/>
</filter>
<filter id="filter1_d_64_149" x="112.623" y="78.6713" width="60.2924" height="79.9035" filterUnits="userSpaceOnUse" color-interpolation-filters="sRGB">
<feFlood flood-opacity="0" result="BackgroundImageFix"/>
<feColorMatrix in="SourceAlpha" type="matrix" values="0 0 0 0 0 0 0 0 0 0 0 0 0 0 0 0 0 0 127 0" result="hardAlpha"/>
<feOffset dy="4"/>
<feGaussianBlur stdDeviation="2"/>
<feComposite in2="hardAlpha" operator="out"/>
<feColorMatrix type="matrix" values="0 0 0 0 0.988235 0 0 0 0 0.831373 0 0 0 0 0.0823529 0 0 0 1 0"/>
<feBlend mode="normal" in2="BackgroundImageFix" result="effect1_dropShadow_64_149"/>
<feBlend mode="normal" in="SourceGraphic" in2="effect1_dropShadow_64_149" result="shape"/>
</filter>
</defs>
</svg>
