<svg width="1440" height="1817" viewBox="0 0 1440 1817" fill="none" xmlns="http://www.w3.org/2000/svg">
<path d="M1437.99 67.9046C1414.52 45.5171 1390.85 23.1295 1367.38 0.741943H1363.17C1387.24 23.6668 1411.31 46.5917 1435.19 69.5165C1436.39 70.5911 1437.59 71.8448 1438.6 72.9194V68.8001C1438.6 68.4419 1438.19 68.2628 1437.99 67.9046Z" fill="#FF1A2D" fill-opacity="0.08"/>
<path d="M1359.76 323.302C1359.76 310.228 1359.76 297.332 1359.76 284.258C1359.76 281.93 1360.16 279.78 1360.36 276.915C1364.17 277.81 1365.77 280.139 1367.78 281.93C1382.22 295.541 1396.67 309.332 1411.11 323.123C1420.34 331.899 1429.57 340.854 1439 349.63V345.51C1414.52 322.227 1390.05 299.123 1365.77 275.84C1358.35 268.855 1359.76 268.855 1349.12 272.258C1313.81 283.362 1278.51 294.646 1243.2 305.929C1211.9 315.959 1180.41 325.809 1149.11 335.839C1145.9 336.913 1142.09 337.272 1139.48 340.137C1140.69 343.003 1143.29 344.973 1145.3 346.943C1197.86 396.912 1250.22 446.881 1302.78 496.85C1329.26 522.103 1355.74 547.177 1382.02 572.431C1384.03 574.222 1386.64 575.833 1387.04 578.878C1384.83 581.385 1381.42 581.744 1378.41 582.639C1314.02 603.057 1249.62 623.474 1185.22 643.892C1172.98 647.832 1175.39 648.19 1166.36 639.772C1101.97 578.52 1037.77 517.447 973.575 456.194C958.529 441.866 943.283 427.717 928.437 413.031C924.024 408.733 920.011 407.837 914.394 410.345C913.592 410.703 912.789 410.882 911.786 411.061C882.898 420.195 854.21 429.329 825.322 438.643C788.008 450.463 750.894 462.284 713.58 474.104C710.571 475 707.562 476.791 702.748 475.537C700.942 473.925 698.535 471.239 695.726 468.731C672.656 446.881 649.785 425.031 626.715 403.002C613.274 390.285 599.833 377.39 586.592 364.674C584.987 363.241 582.781 361.988 583.182 359.122C585.589 357.331 588.799 356.794 591.808 355.898C639.354 340.854 687.1 325.63 734.645 310.586C878.484 264.915 1022.52 219.244 1166.36 173.574C1186.02 167.305 1205.68 161.216 1225.14 154.947C1227.75 154.052 1231.16 154.052 1232.77 150.828C1231.56 148.142 1228.96 146.351 1226.75 144.201C1176.6 96.5606 1126.64 48.9199 1076.49 1.1001H1072.28C1094.95 22.7713 1117.61 44.2633 1140.28 65.9345C1167.37 91.7249 1194.45 117.336 1221.33 143.127C1223.54 145.276 1226.15 147.067 1227.35 149.933C1222.13 153.156 1197.86 161.216 1184.02 164.44C1180.61 163.544 1179 161.037 1176.8 158.888C1146.9 130.411 1117.01 101.934 1087.12 73.4567C1061.84 49.2781 1036.37 25.2787 1011.09 1.1001H1006.88C1024.53 17.9355 1042.39 34.9501 1060.04 51.7855C1097.75 87.6056 1135.27 123.426 1172.98 159.246C1174.99 161.216 1177.6 162.649 1178 165.873C1175.79 168.201 1172.38 168.559 1169.37 169.634C1139.48 179.126 1109.39 188.618 1079.5 198.111C944.286 241.095 808.872 283.9 673.659 326.884C644.169 336.197 614.879 345.51 585.389 355.003C582.38 355.898 578.969 356.256 576.762 359.122C576.762 360.734 576.562 362.704 576.562 364.495C576.562 381.509 576.763 398.524 576.361 415.539C576.361 420.195 577.966 423.419 581.577 426.822C597.827 442.045 613.876 457.448 629.925 472.672C635.743 478.224 641.761 483.955 647.579 489.507C648.783 490.582 650.388 491.656 649.184 494.164C647.178 494.88 644.77 495.955 642.363 496.671C617.086 504.731 592.009 512.611 566.732 520.67C541.455 528.73 516.378 536.61 491.101 544.67C484.28 546.819 484.28 546.998 484.28 553.088C484.28 570.281 484.28 587.654 484.079 604.848C484.079 608.967 485.283 612.012 488.694 614.698C489.496 615.415 490.298 616.31 491.101 617.027C528.816 652.847 566.331 688.667 604.046 724.487C611.669 731.83 610.064 731.83 621.499 728.069C663.427 714.815 705.556 701.383 747.484 688.129C772.16 680.249 796.835 672.548 821.51 664.667C824.72 663.593 828.532 663.234 830.739 660.369C830.939 659.473 831.14 658.757 831.14 658.041C831.14 639.414 831.14 620.788 831.34 602.34C831.34 599.116 830.137 596.788 827.73 594.46C819.906 587.117 812.282 579.774 804.458 572.431C790.014 558.64 775.57 544.849 761.126 531.058C759.521 529.626 757.314 528.372 757.916 525.327C759.922 524.611 761.928 523.715 764.135 522.999C814.288 507.059 864.441 491.119 914.595 475.358C916.801 474.642 919.008 474.283 921.416 473.746C923.823 475.895 926.03 477.686 928.036 479.656C981.8 530.7 1035.36 581.923 1089.13 633.146C1115.21 657.861 1141.29 682.756 1167.37 707.472C1169.37 709.442 1170.98 711.771 1174.59 712.308C1177.4 711.412 1180.61 710.517 1183.62 709.621C1247.41 689.383 1311.41 669.145 1375.2 648.906C1379.62 647.474 1384.03 645.862 1388.64 644.608C1392.05 643.713 1393.46 641.742 1393.26 638.698C1393.26 637.086 1393.26 635.474 1393.26 633.862C1393.26 618.638 1393.26 603.594 1393.26 588.37C1393.26 578.878 1394.46 580.49 1386.44 572.968C1385.43 572.072 1384.43 570.998 1383.43 570.102C1322.64 512.253 1261.86 454.224 1200.87 396.375C1199.06 394.584 1197.06 392.972 1195.45 391.002C1194.65 390.106 1194.25 388.853 1193.25 387.062C1248.21 369.689 1302.38 352.316 1356.95 335.122C1359.55 337.451 1361.76 339.421 1363.97 341.391C1388.84 365.032 1413.52 388.494 1438.4 412.136V408.195C1414.32 385.271 1390.45 362.346 1366.38 339.421C1358.75 331.54 1359.76 334.227 1359.76 323.302ZM583.784 423.956C581.176 421.449 579.772 418.941 579.772 415.539C579.972 399.957 579.772 384.196 579.972 368.614C579.972 367.361 580.373 366.286 580.574 365.032C581.778 365.032 582.58 365.032 582.781 365.211C620.496 400.852 658.211 436.672 695.726 472.313C697.13 473.567 698.133 475.179 699.136 476.254C698.936 476.97 698.936 477.328 698.936 477.507C698.735 477.686 698.535 477.865 698.334 478.045C696.93 478.582 695.726 479.298 694.322 479.656C681.683 483.597 669.245 487.537 656.406 491.656C654.801 490.582 653.196 489.865 651.992 488.791C629.323 467.299 606.654 445.627 583.784 423.956ZM610.466 720.547C610.466 721.263 609.863 721.979 609.663 722.696C606.854 723.591 605.851 721.621 604.447 720.367C595.42 711.95 586.592 703.353 577.565 694.935C549.88 668.607 522.397 642.28 494.712 615.952C493.508 614.877 492.304 613.624 491.101 612.549C488.693 610.4 487.49 607.892 487.49 604.669C487.69 589.087 487.49 573.326 487.69 557.744C487.69 556.67 488.091 555.774 488.292 554.341C492.104 554.162 493.107 556.311 494.712 557.744C505.946 568.311 517.18 579.057 528.214 589.624C553.291 613.445 578.167 637.265 603.243 661.085C604.848 662.697 606.453 664.309 608.058 665.742C609.864 667.354 610.666 669.145 610.666 671.473C610.465 687.592 610.466 704.069 610.466 720.547ZM827.93 601.803C828.13 603.773 828.532 605.743 828.532 607.892C828.532 622.758 828.532 637.623 828.532 652.488C828.532 653.742 828.532 655.175 828.331 656.429C828.13 658.22 827.127 659.473 825.322 660.011C823.316 660.727 821.51 661.264 819.504 661.981C754.506 682.577 689.507 703.174 624.709 723.77C621.7 724.666 618.49 725.561 614.879 726.457C614.277 724.845 613.675 723.591 613.675 722.517C613.675 705.502 613.675 688.488 613.675 671.473C613.675 670.398 614.076 669.324 614.277 668.428C621.098 665.025 743.873 625.623 818.902 602.519C821.109 601.803 823.517 601.266 825.723 600.908C826.325 601.087 826.927 601.624 827.93 601.803ZM824.921 595.714C825.322 596.072 825.121 596.788 825.121 597.146C818.902 600.191 622.502 662.697 612.271 664.846C610.666 663.414 608.66 661.981 606.854 660.19C554.494 611.295 494.712 553.625 491.101 548.789C491.703 546.103 494.511 546.103 496.517 545.386C509.156 541.267 521.795 537.327 534.233 533.387C586.593 516.73 638.953 500.074 691.313 483.418C695.124 482.164 699.137 481.089 703.349 479.836C705.556 481.627 707.562 483.238 709.167 484.85C747.885 521.924 786.403 558.819 824.921 595.714ZM920.212 469.806C917.804 470.701 915.798 471.776 913.591 472.492C862.636 488.612 811.68 504.91 760.925 521.029C758.719 521.745 756.512 522.282 754.506 522.641C748.889 518.879 722.608 494.701 710.972 482.343C710.17 481.447 709.568 480.194 708.565 478.761C710.17 477.865 711.374 477.149 712.778 476.612C781.388 454.762 849.797 433.09 919.41 411.061C920.011 413.568 920.413 414.822 920.413 416.076C920.613 433.986 920.814 451.717 920.212 469.806ZM1172.18 700.846C1172.18 702.099 1171.58 703.353 1170.98 704.786C1167.17 703.711 1165.36 701.025 1163.15 699.055C1138.88 675.951 1114.81 653.026 1090.53 629.922C1037.57 579.595 984.609 529.267 931.847 478.761C922.619 469.806 923.823 473.388 923.622 460.672C923.622 448.135 923.622 435.777 923.622 423.24C923.622 420.732 923.021 417.867 925.027 415.539C928.437 416.613 930.243 419.121 932.449 421.27C964.347 451.717 996.445 481.985 1028.34 512.432C1073.68 555.595 1119.02 598.758 1164.56 642.101C1165.96 643.533 1167.37 644.787 1168.77 646.22C1170.98 648.19 1172.18 650.518 1172.18 653.384C1172.18 668.966 1172.18 684.906 1172.18 700.846ZM1390.45 587.654C1391.25 603.415 1390.65 634.22 1389.45 640.489C1388.04 641.205 1386.64 642.101 1385.03 642.638C1315.82 664.667 1246.81 686.518 1177.2 708.547C1176.6 706.756 1175.79 705.681 1175.79 704.428C1175.79 687.234 1175.79 669.861 1175.79 652.668C1175.79 651.951 1176.19 651.056 1176.39 650.339C1178.8 648.011 1182.01 647.653 1185.22 646.578C1234.77 630.817 1284.32 615.056 1333.88 599.296C1349.32 594.46 1364.77 589.445 1380.02 584.609C1382.83 583.714 1385.63 582.997 1389.45 581.923C1389.85 584.609 1390.25 586.042 1390.45 587.654ZM1356.55 328.675C1356.55 329.391 1356.14 330.287 1355.94 331.003C1353.54 333.69 1349.72 334.048 1346.51 335.122C1309.6 346.943 1272.69 358.585 1235.58 370.405C1223.34 374.345 1210.9 378.286 1198.66 382.047C1195.85 382.942 1193.05 383.659 1189.43 384.912C1174.79 370.943 1160.55 357.331 1146.3 343.719C1145.5 343.003 1145.1 341.928 1144.5 341.033C1145.3 340.316 1145.9 339.6 1146.7 339.421C1214.91 317.75 1283.32 295.899 1351.53 274.228C1352.53 273.87 1353.74 274.049 1355.34 273.87C1355.74 275.303 1356.34 276.557 1356.34 277.631C1356.75 294.646 1356.75 311.66 1356.55 328.675Z" fill="#FF1A2D" fill-opacity="0.08"/>
<path d="M347.663 1797.12C325.996 1776.34 304.13 1755.75 282.463 1734.97C278.852 1731.57 275.442 1730.32 270.828 1732.46C270.226 1732.64 269.624 1732.82 269.223 1733C242.541 1741.42 216.06 1749.84 189.379 1758.43C149.056 1771.15 108.732 1784.05 68.4092 1796.76C64.7982 1797.84 60.9867 1798.37 57.7769 1801.24C57.5762 1806.43 57.5761 1811.81 57.3755 1817H60.5852C60.5852 1813.96 60.5854 1810.91 60.7861 1807.87C61.9897 1807.69 62.7921 1807.51 63.1933 1807.69C66.8043 1810.73 70.616 1813.6 74.0265 1817H77.8382C74.0265 1813.24 70.0141 1809.48 66.4031 1805.54C65.4 1804.46 64.7981 1803.03 63.5944 1801.24C67.8073 1799.81 71.4185 1798.55 75.0295 1797.48C97.8994 1790.13 120.769 1782.97 143.84 1775.63C185.166 1762.55 226.492 1749.3 268.019 1736.23C271.028 1735.33 273.837 1733.72 277.448 1734.26C278.451 1735.15 279.655 1735.87 280.658 1736.94C308.744 1763.63 336.629 1790.31 364.715 1817H368.727C361.706 1810.37 354.684 1803.75 347.663 1797.12Z" fill="#FF1A2D" fill-opacity="0.08"/>
<path d="M77.0354 1052.24C79.2422 1054.39 81.0475 1056.9 84.6586 1057.79C88.069 1056.72 91.8807 1055.64 95.4917 1054.57C233.513 1010.69 371.535 966.81 509.758 923.109C520.792 919.706 518.986 919.527 526.408 926.691C563.923 962.332 601.237 997.973 638.752 1033.61C646.174 1040.6 644.77 1040.06 654.801 1037.02C741.265 1009.61 827.93 982.033 914.394 954.631C967.556 937.795 1020.72 920.781 1074.08 903.945C1077.09 903.05 1080.5 902.513 1082.71 900.184C1082.91 899.647 1083.31 899.11 1083.31 898.572C1083.31 879.23 1083.51 859.887 1083.51 840.365C1083.51 838.036 1082.71 836.246 1080.9 834.634C1077.49 831.41 1074.08 828.007 1070.47 824.783C1034.76 790.754 998.852 756.546 962.942 722.517C960.736 720.367 958.93 717.86 955.119 716.785C952.711 717.502 949.903 718.218 947.094 719.114C857.42 747.591 767.746 775.889 678.273 804.366C628.721 820.126 579.17 835.887 529.618 851.469C526.609 852.365 523.6 853.976 519.387 853.26C517.18 851.111 514.372 848.783 511.764 846.275C474.851 811.171 438.139 776.068 401.226 741.143C399.019 738.994 397.214 736.487 393.201 735.233C321.583 757.979 249.362 780.903 177.141 803.828C174.935 802.037 173.129 800.784 171.524 799.172C166.709 794.694 162.095 790.217 157.481 785.739C123.979 753.859 90.2759 721.8 56.7736 689.92C54.7674 687.95 52.5606 686.338 50.3538 684.189C33.7029 689.562 17.052 694.756 0.401128 699.95V702.816C13.0397 698.696 25.879 694.756 38.5176 690.637C42.1286 689.562 45.7399 688.488 49.7521 687.413C58.5791 695.293 66.8042 703.353 75.0293 711.233C83.455 719.114 91.6802 727.173 100.106 735.054C108.532 742.934 116.757 750.994 125.183 758.874C133.608 766.754 141.833 774.814 150.259 782.694C158.685 790.575 166.709 798.634 175.536 806.694C190.582 802.575 205.027 797.56 219.471 793.082C233.714 788.605 247.958 783.948 262.402 779.471C277.047 774.814 291.491 770.157 306.135 765.68C320.379 761.202 334.622 756.725 349.067 752.068C363.711 747.412 378.156 742.755 392.399 738.278C396.411 739.71 398.417 742.397 400.825 744.725C426.303 768.904 451.781 793.082 477.058 817.44C488.091 827.828 499.125 838.395 509.958 848.783C511.964 850.753 514.572 852.185 514.973 855.23C514.372 855.767 513.77 856.305 512.967 856.663C371.535 901.617 230.103 946.571 88.6708 991.526C87.2665 991.884 85.8623 992.063 84.6586 992.242C81.6494 990.272 45.3385 956.243 0.200564 913.438V917.02C24.4747 940.124 48.749 963.228 73.0232 986.511C84.2575 997.257 82.0507 992.958 82.2513 1007.47C82.4519 1019.11 82.2513 1030.75 82.2513 1042.57C82.2513 1045.26 82.0508 1047.76 81.8502 1050.99C77.2361 1050.09 75.8318 1047.58 73.8257 1045.61C49.7521 1022.87 25.8791 999.943 1.80557 977.018C1.20373 976.481 0.601839 975.944 0 975.407V979.347C0.601839 979.884 1.00316 980.421 1.605 980.959C26.8822 1004.6 51.9588 1028.42 77.0354 1052.24ZM1079.3 840.902C1079.7 841.977 1080.1 842.872 1080.3 843.947C1080.9 851.111 1080.3 893.199 1079.7 898.214C1076.89 900.543 1073.08 901.259 1069.47 902.334C1029.55 915.05 989.423 927.766 949.3 940.482C852.404 971.287 755.509 1001.91 658.612 1032.72C655.403 1033.79 652.193 1035.58 648.381 1034.69C647.98 1033.79 647.579 1033.08 647.579 1032.36C647.579 1015.17 647.579 997.794 647.579 980.6C647.579 979.526 647.98 978.63 648.181 977.377C649.585 976.66 650.789 975.944 652.193 975.407C793.625 930.631 935.057 885.677 1076.49 840.902C1077.09 840.723 1078.09 840.902 1079.3 840.902ZM535.436 852.723C605.65 830.335 676.066 808.127 746.28 785.739C812.683 764.605 878.885 743.651 945.288 722.517C956.723 718.935 954.717 718.756 962.741 726.278C999.654 761.202 1036.37 796.306 1073.28 831.41C1074.68 832.663 1075.89 834.275 1077.09 835.35C1076.69 838.216 1074.28 838.395 1072.48 838.932C1054.22 844.663 1036.17 850.574 1017.91 856.305C898.144 894.274 778.178 932.423 658.412 970.392C654.801 971.466 651.19 972.541 647.579 973.616C643.567 972.72 641.761 969.854 639.353 967.526C616.484 945.855 593.815 924.184 570.945 902.513C557.303 889.617 543.661 876.543 530.019 863.648C528.013 861.678 526.208 859.708 523.199 856.663C528.214 855.051 531.825 853.797 535.436 852.723ZM521.193 870.812C521.193 868.125 521.393 865.618 521.594 862.394C526.208 863.111 527.612 865.618 529.618 867.588C554.093 890.692 578.367 913.975 602.842 937.258C614.678 948.542 626.314 959.825 638.35 970.929C642.563 974.869 644.57 978.81 644.57 984.362C644.168 997.973 644.369 1011.41 644.369 1025.02C644.369 1027.35 644.77 1029.67 643.567 1031.64C640.357 1032.36 639.354 1030.39 638.15 1029.14C627.116 1018.75 616.082 1008.18 605.249 997.794C579.571 973.436 553.892 949.079 528.414 924.542C520.59 917.02 521.594 919.348 521.594 909.139C521.193 896.244 521.193 883.528 521.193 870.812ZM85.6616 998.152C85.6616 997.615 85.8624 997.078 86.063 996.361C88.0691 994.033 91.4795 993.496 94.4887 992.6C120.167 984.362 146.046 976.123 171.725 968.063C278.451 934.213 385.177 900.363 491.703 866.513C498.323 864.364 505.143 862.215 511.964 860.245C513.569 859.708 515.375 859.708 517.381 859.349C517.782 860.961 518.183 862.215 518.183 863.469C518.986 875.469 518.384 911.11 517.381 917.02C514.773 919.169 511.162 919.706 507.952 920.781C466.024 934.213 423.895 947.467 381.967 960.72C286.676 990.988 191.585 1021.08 96.2942 1051.35C93.285 1052.24 90.2758 1053.67 86.4641 1053.67C86.0629 1052.42 85.4611 1051.17 85.4611 1049.91C85.4611 1032.72 85.6616 1015.35 85.6616 998.152Z" fill="#FF1A2D" fill-opacity="0.08"/>
<path d="M579.37 39.9649C620.496 26.8906 661.622 13.8163 702.747 0.741943H693.72C619.694 24.2041 545.668 47.6663 471.641 71.3075C426.905 85.4565 381.967 99.7845 337.23 113.933C333.419 115.187 329.206 115.904 325.796 118.411C325.595 119.486 325.194 120.56 325.194 121.635C325.194 140.261 325.194 158.888 324.993 177.335C324.993 180.559 325.996 183.066 328.604 185.215C330.008 186.29 331.011 187.544 332.215 188.618C368.526 223.364 405.038 257.93 441.549 292.676C443.756 294.825 446.163 296.795 448.169 299.123C450.577 301.631 453.586 302.168 456.996 300.914C460.407 299.84 463.617 298.765 467.027 297.691C585.188 260.259 703.349 222.647 821.51 185.215C840.769 179.126 860.228 173.037 879.487 166.768C890.32 163.365 889.919 164.261 889.919 154.052C889.919 147.425 889.919 140.799 889.919 134.172C889.919 124.679 889.719 115.008 889.919 105.516C889.919 101.576 888.716 98.3517 885.305 95.6652C883.901 94.5906 882.898 93.3369 881.694 92.2623C849.797 61.8152 817.698 31.3681 785.801 0.921044H781.588C797.437 16.1446 813.485 31.3681 829.334 46.4126C845.583 61.9943 861.833 77.3969 878.083 92.9787C880.089 94.7697 882.496 96.3816 883.098 99.0681C882.496 99.7845 882.296 100.322 881.895 100.501C740.463 145.455 599.031 190.409 457.598 235.364C455.994 235.901 454.188 236.08 452.382 236.617C450.176 234.647 447.969 232.856 445.963 230.886C409.652 196.499 373.541 161.932 337.23 127.366C335.625 125.754 333.82 124.321 332.416 122.709C331.613 121.814 331.212 120.56 330.61 119.127C334.422 117.874 337.632 116.62 341.042 115.545C420.685 90.2922 500.128 65.039 579.37 39.9649ZM453.987 242.528C453.987 241.811 454.389 240.916 454.589 240.02C455.592 239.483 456.395 238.766 457.398 238.408C599.03 193.454 740.663 148.5 882.496 103.546C883.299 103.367 884.302 103.546 885.706 103.546C887.111 109.814 887.512 151.545 886.107 160.32C884.101 163.007 880.691 163.365 877.682 164.261C849.195 173.395 820.507 182.35 792.02 191.484C683.689 225.871 575.358 260.259 466.826 294.646C463.215 295.72 459.604 296.795 455.391 298.049C454.79 296.616 453.786 295.362 453.786 294.288C453.987 277.094 453.987 259.9 453.987 242.528ZM336.428 130.052C352.678 145.455 368.927 161.037 385.177 176.439C405.038 195.424 424.898 214.409 444.96 233.214C449.173 237.155 450.978 241.274 450.777 246.647C450.376 260.259 450.778 273.691 450.577 287.303C450.577 289.631 451.178 291.959 449.172 294.467C445.962 293.392 444.157 290.885 441.951 288.915C426.303 274.049 410.655 259.184 395.007 244.319C374.745 224.976 354.483 205.454 334.021 186.29C329.808 182.35 328.002 178.23 328.203 172.857C328.604 159.425 328.203 145.813 328.403 132.202C328.403 129.873 328.002 127.545 329.607 125.038C332.817 125.933 334.422 128.261 336.428 130.052Z" fill="#FF1A2D" fill-opacity="0.08"/>
<path d="M0.401367 223.722C33.1013 213.334 65.6007 202.946 98.3006 192.738C101.31 191.842 104.52 190.947 107.93 189.872C114.55 194.887 119.967 200.976 125.985 206.528C131.803 211.901 137.42 217.274 143.037 222.826C148.855 228.379 154.873 234.11 160.691 239.662C166.509 245.214 172.527 250.945 178.345 256.497C184.163 262.049 190.181 267.781 195.999 273.333C201.616 278.706 207.434 284.079 213.051 289.631C218.668 295.362 225.489 300.198 230.304 307.362C226.492 308.795 223.282 310.048 220.073 311.123C175.336 325.272 130.399 339.421 85.6619 353.749C57.1748 362.704 28.8884 371.838 0.401367 380.793V383.659C74.0263 360.376 147.651 336.913 221.276 313.63C224.486 312.556 227.696 310.765 232.109 311.302C233.313 318.108 233.313 359.838 232.511 368.256C230.505 370.763 227.094 371.122 224.085 372.196C197.403 380.614 170.923 389.032 144.241 397.629C96.2945 412.852 48.5487 428.076 0.602176 443.12V445.986C29.8917 436.672 59.1811 427.359 88.27 418.046C134.01 403.539 179.549 389.211 225.289 374.525C228.9 373.45 232.912 372.913 235.72 370.226C235.921 368.793 236.122 367.54 236.122 366.286C236.122 355.361 236.122 344.436 236.122 333.69C236.122 326.526 236.122 319.362 236.122 312.198C236.122 309.153 235.52 306.466 232.912 304.317C231.909 303.422 230.906 302.347 229.903 301.452C192.187 265.631 154.673 229.811 116.958 193.991C108.532 186.111 110.739 186.29 98.9025 190.051C66.2026 200.439 33.3021 210.827 0.602176 221.215V223.722H0.401367Z" fill="#FF1A2D" fill-opacity="0.08"/>
<path d="M989.423 1028.96C991.028 1030.39 993.034 1031.82 994.84 1033.61C1005.27 1043.47 1015.7 1053.32 1025.93 1063.17C1095.15 1129.08 1164.36 1194.98 1233.57 1260.71C1241.59 1268.42 1239.79 1268.06 1251.02 1264.47C1313.01 1244.77 1374.8 1225.25 1436.79 1205.55C1437.59 1205.37 1438.19 1205.19 1439 1204.83V1201.79C1416.13 1208.95 1393.26 1216.3 1370.39 1223.46C1330.67 1236 1290.94 1248.71 1251.02 1261.25C1248.01 1262.15 1245 1263.58 1240.39 1263.4C1238.79 1261.79 1236.78 1259.46 1234.57 1257.31C1177 1202.51 1119.42 1147.7 1061.84 1092.9C1039.98 1072.12 1018.31 1051.52 996.445 1030.75C994.238 1028.6 992.433 1026.09 988.621 1025.2C986.414 1025.91 983.806 1026.63 981.399 1027.35C943.082 1039.52 904.564 1051.7 866.247 1063.88C837.158 1073.2 808.069 1082.33 778.779 1091.64C775.77 1092.54 772.36 1093.08 770.153 1095.94C770.153 1097.02 769.953 1098.45 769.953 1099.7C769.953 1117.43 769.953 1135.34 769.953 1153.07C769.953 1156.48 770.755 1159.34 773.564 1161.67C774.567 1162.57 775.57 1163.64 776.573 1164.54C836.958 1222.03 897.342 1279.52 957.927 1337.19C961.137 1340.23 964.547 1343.46 967.557 1346.5C968.56 1347.4 969.763 1348.47 968.76 1350.44C967.356 1350.98 965.55 1351.88 963.544 1352.59C913.19 1368.53 862.836 1384.65 812.282 1400.59C810.075 1401.31 807.868 1401.67 805.26 1402.2C798.239 1395.58 791.218 1388.95 784.397 1382.32C777.375 1375.7 770.554 1369.07 763.734 1362.62C756.913 1356 749.891 1349.55 742.87 1342.92C735.648 1336.12 728.626 1329.31 721.605 1322.5C714.784 1315.88 707.762 1309.25 700.942 1302.8C693.92 1296.35 687.501 1289.55 680.078 1283.28C676.868 1284.18 674.06 1284.89 671.251 1285.79C645.974 1293.85 620.897 1301.73 595.62 1309.79C554.093 1322.86 512.767 1336.12 471.24 1349.19C468.23 1350.09 465.422 1351.7 461.41 1351.34C456.395 1346.5 450.978 1341.49 445.762 1336.47C411.858 1304.06 377.754 1271.82 343.851 1239.4C341.443 1237.07 339.437 1234.39 335.425 1232.95C332.416 1233.85 329.005 1234.74 325.595 1235.64C289.685 1247.1 253.976 1258.39 218.066 1269.85C187.172 1279.7 156.478 1289.37 125.584 1299.22C122.574 1300.12 119.164 1300.47 116.556 1303.88C116.556 1305.67 116.556 1308 116.556 1310.32C116.556 1326.44 116.757 1342.74 116.355 1358.86C116.355 1364.05 117.96 1367.82 121.973 1371.58C138.222 1386.8 154.271 1402.02 170.32 1417.43C192.588 1438.56 214.656 1459.69 236.924 1480.83C239.131 1482.98 240.936 1485.48 244.748 1486.38C254.778 1483.16 265.21 1479.93 275.442 1476.71C285.874 1473.49 296.105 1470.08 306.537 1466.86C316.969 1463.63 327.2 1460.23 337.632 1457.01C347.662 1453.78 357.894 1450.56 367.924 1447.34C378.356 1444.11 388.587 1440.71 399.019 1437.49C409.451 1434.26 419.682 1430.86 430.114 1427.64C440.345 1424.41 450.577 1420.83 461.611 1417.96C467.83 1423.87 473.647 1429.43 479.465 1434.98C485.483 1440.71 491.703 1446.62 497.721 1452.35C503.539 1457.9 509.557 1463.63 515.375 1469.19C521.192 1474.74 527.211 1480.47 533.029 1486.02C538.846 1491.57 544.865 1497.31 550.683 1502.86C556.701 1508.59 562.92 1514.5 568.939 1520.23C574.957 1525.78 580.373 1531.69 587.194 1536.89C590.805 1535.81 594.216 1535.1 597.426 1534.02C655.202 1515.75 712.778 1497.31 770.555 1479.04C780.385 1475.99 790.215 1472.95 800.045 1469.72C803.656 1468.47 806.264 1469.19 808.671 1471.69C812.483 1475.46 816.294 1479.04 820.306 1482.8C837.96 1499.63 855.815 1516.47 873.469 1533.3C875.074 1534.92 877.682 1536.35 877.481 1539.57C874.271 1540.65 870.861 1541.9 867.651 1542.98C819.303 1558.38 770.755 1573.78 722.408 1589.18C720.201 1589.9 717.994 1590.62 715.787 1591.33C713.58 1592.05 712.377 1593.48 712.176 1595.45C711.975 1597.24 711.975 1599.21 711.975 1601C711.975 1610.32 711.975 1619.63 711.975 1628.94C711.975 1636.11 712.176 1643.27 711.975 1650.44C711.775 1654.38 713.179 1657.6 716.589 1660.29C719.398 1662.62 721.805 1665.3 724.614 1667.81C743.271 1685.72 762.129 1703.45 780.786 1721.36C782.792 1723.15 785.199 1724.76 786.002 1727.99C783.594 1729.6 780.786 1730.32 777.977 1731.21C755.107 1738.55 732.037 1745.72 709.167 1753.06C682.485 1761.48 656.004 1769.9 629.323 1778.49C626.314 1779.39 622.903 1779.93 620.295 1782.97C620.295 1793.9 620.295 1805.36 620.295 1816.64H623.906C623.906 1807.87 623.706 1799.27 623.706 1790.49C623.706 1789.96 624.107 1789.6 624.307 1789.06C625.912 1788.34 627.116 1789.24 628.119 1790.13C637.348 1798.91 646.575 1807.69 655.804 1816.46H660.218C649.184 1805.9 638.15 1795.51 627.317 1784.94C626.915 1784.58 626.915 1784.05 626.715 1783.51C627.718 1780.64 630.928 1780.64 633.135 1779.93C648.983 1774.73 665.032 1769.9 680.88 1764.7C729.83 1749.12 778.78 1733.54 827.729 1718.14C831.34 1717.06 834.951 1715.99 838.763 1714.91C840.569 1716.35 842.173 1717.24 843.578 1718.67C877.882 1751.27 912.187 1783.87 946.492 1816.64H950.705C937.464 1803.93 924.224 1791.39 910.984 1778.85C905.968 1774.02 900.752 1769.18 895.737 1764.34C894.734 1763.27 894.132 1761.84 893.33 1760.23C896.339 1759.15 898.746 1758.08 901.354 1757.36C909.78 1754.67 918.205 1751.99 926.631 1749.3C967.155 1736.4 1007.88 1723.51 1048.4 1710.61C1052.01 1709.54 1056.03 1709 1059.24 1705.78C1059.24 1703.27 1059.24 1700.41 1059.24 1697.54C1059.24 1682.67 1059.24 1667.81 1059.24 1652.94C1059.24 1641.66 1060.64 1644.71 1051.81 1636.29C1030.95 1616.23 1009.89 1596.35 989.022 1576.29C987.618 1575.04 986.815 1573.42 985.612 1571.99C988.821 1569.3 992.433 1568.77 995.642 1567.87C1113 1530.62 1230.36 1493.37 1347.72 1456.11C1378.41 1446.44 1409.11 1436.77 1439.8 1426.92V1423.87C1439.2 1424.05 1438.4 1424.41 1437.79 1424.59C1289.14 1471.69 1140.48 1518.98 991.83 1566.08C989.624 1566.8 987.417 1567.51 985.01 1568.23C982.803 1568.77 980.998 1568.59 979.192 1566.98C978.39 1566.26 977.587 1565.54 976.784 1564.65C964.547 1553.01 952.31 1541.36 940.273 1529.72C938.869 1528.29 936.261 1527.04 937.665 1523.81C940.273 1522.92 943.282 1521.84 946.492 1520.95C1101.57 1471.69 1256.64 1422.44 1411.71 1373.37C1421.14 1370.32 1430.57 1367.46 1440 1364.59V1361.91C1336.68 1394.68 1233.57 1427.46 1130.25 1460.23C1067.26 1480.29 1004.27 1500.17 941.276 1520.23C938.467 1521.13 935.659 1521.84 932.85 1522.56C930.644 1520.59 928.638 1518.98 926.832 1517.19C892.527 1484.41 858.022 1451.64 823.717 1419.04C820.106 1415.64 816.294 1412.05 812.884 1408.47C812.081 1407.58 811.881 1406.32 811.078 1404.89C815.291 1403.46 818.701 1402.2 822.312 1400.95C844.179 1393.96 866.046 1387.16 887.913 1380.17C930.443 1366.74 973.174 1353.13 1015.7 1339.7C1018.91 1338.62 1022.73 1338.26 1025.33 1335.58C1024.33 1332.53 1021.52 1330.74 1019.52 1328.77C943.683 1256.42 867.651 1184.24 791.819 1112.06C787.807 1108.12 783.594 1104.36 779.582 1100.42C778.579 1099.52 778.178 1098.27 777.174 1096.84C778.98 1095.94 780.184 1095.23 781.388 1094.87C803.254 1086.27 981.198 1030.39 989.423 1028.96ZM241.538 1477.25C241.538 1477.78 241.137 1478.14 240.936 1478.68C238.328 1479.57 237.325 1477.6 235.921 1476.35C224.486 1465.6 213.051 1454.68 201.616 1443.75C176.539 1419.93 151.463 1396.11 126.587 1372.29C117.76 1363.88 119.164 1366.74 119.164 1355.46C119.164 1342.92 119.164 1330.56 119.164 1318.03C119.164 1315.34 119.365 1312.83 119.565 1309.25C124.179 1310.86 125.985 1313.37 128.192 1315.52C159.889 1345.79 191.786 1375.88 223.483 1406.14C228.498 1410.98 233.714 1415.81 238.729 1420.65C240.736 1422.44 241.739 1424.41 241.739 1427.1C241.739 1443.75 241.739 1460.41 241.538 1477.25ZM243.544 1420.65C241.739 1419.04 239.532 1417.43 237.526 1415.46C200.613 1380.35 163.901 1345.43 127.189 1310.32C125.383 1308.53 123.778 1306.74 121.973 1304.95C123.979 1301.73 127.59 1301.55 130.599 1300.65C158.484 1291.7 186.57 1282.92 214.455 1273.97C251.368 1262.33 288.281 1250.51 325.194 1238.86C328.203 1237.97 331.413 1237.07 334.823 1236.18C337.23 1238.15 339.437 1239.94 341.443 1241.91C378.356 1277.01 415.068 1311.94 451.78 1347.04C453.586 1348.83 455.191 1350.62 457.598 1353.31C454.589 1354.56 452.784 1355.46 450.978 1356C393.202 1375.16 252.973 1419.22 243.544 1420.65ZM459.003 1414.74C456.395 1417.07 452.382 1417.61 448.771 1418.86C407.044 1432.11 365.316 1445.37 323.589 1458.62C300.92 1465.78 278.25 1472.95 255.581 1480.11C252.572 1481.01 249.763 1482.44 245.951 1482.26C245.55 1481.19 244.948 1480.11 244.948 1479.22C244.347 1472.77 244.748 1429.96 245.751 1424.95C247.958 1422.8 251.167 1422.26 254.176 1421.37C284.469 1411.7 314.561 1402.2 344.854 1392.53C378.958 1381.61 413.062 1370.86 447.367 1359.94C450.978 1358.86 454.388 1357.07 458.802 1357.43C459.203 1358.5 459.604 1359.4 459.805 1360.29C460.206 1367.1 459.805 1409.55 459.003 1414.74ZM585.79 1525.07C585.79 1526.32 585.589 1527.75 585.389 1529.9C583.583 1529.36 582.58 1529.36 582.179 1528.83C580.373 1527.39 578.768 1525.96 577.163 1524.35C541.254 1490.14 505.344 1455.93 469.234 1421.73C468.23 1420.83 467.227 1419.76 466.224 1418.86C464.018 1416.89 463.015 1414.56 463.015 1411.7C463.015 1395.76 463.015 1379.82 463.215 1364.05C463.215 1362.98 464.018 1361.73 464.62 1360.29C468.231 1361.73 470.237 1364.23 472.243 1366.2C500.329 1392.89 528.415 1419.58 556.3 1446.26C564.926 1454.32 573.352 1462.56 581.978 1470.62C584.787 1473.31 586.191 1476.17 586.191 1479.75C585.79 1494.8 585.79 1509.84 585.79 1525.07ZM581.778 1466.5C545.065 1431.4 508.153 1396.47 471.44 1361.37C469.434 1359.58 466.826 1357.97 466.425 1355.28C466.826 1354.74 467.027 1354.03 467.428 1353.85C536.238 1331.82 605.049 1309.97 673.859 1287.94C675.464 1287.4 677.27 1287.22 678.674 1287.04C684.291 1291.16 786.804 1387.88 798.44 1400.05C799.443 1400.95 800.044 1402.2 800.847 1403.28C798.239 1406.14 794.427 1406.5 791.217 1407.58C752.7 1419.93 713.982 1432.11 675.263 1444.47C648.983 1452.89 622.703 1461.31 596.422 1469.54C587.796 1472.23 588.598 1472.95 581.778 1466.5ZM803.656 1464.89C800.245 1467.75 796.233 1468.29 792.822 1469.54C744.274 1485.13 695.525 1500.53 646.776 1515.93C630.928 1520.95 614.879 1525.96 598.83 1530.98C596.021 1531.87 593.213 1532.59 589.802 1533.48C588.398 1525.78 588.398 1482.08 589.601 1475.1C591.206 1474.38 593.012 1473.49 595.018 1472.77C663.628 1451.1 732.037 1429.43 800.647 1407.93C801.048 1407.76 801.85 1408.11 802.653 1408.29C802.853 1409.37 803.455 1410.62 803.455 1411.87C803.856 1429.61 803.856 1447.34 803.656 1464.89ZM790.014 1726.55C788.008 1724.76 785.6 1722.79 783.394 1720.82C762.329 1700.76 741.265 1680.53 720 1660.47C716.188 1656.88 714.583 1653.3 714.583 1648.47C714.784 1634.5 714.584 1620.35 714.784 1606.38C714.784 1604.41 715.386 1602.44 715.586 1600.65C716.589 1600.47 716.991 1600.29 716.991 1600.29C718.997 1601.72 721.203 1603.15 723.009 1604.95C781.588 1659.93 830.739 1707.21 834.751 1712.58C827.128 1716.17 797.637 1725.48 790.014 1726.55ZM1054.62 1704.88C1048.6 1708.11 906.971 1753.42 889.117 1757.9C888.314 1757.36 886.91 1756.82 885.907 1755.75C872.466 1743.03 859.025 1730.14 845.584 1717.42C844.781 1716.7 844.38 1715.63 843.176 1714.2C848.593 1711.51 1039.78 1650.26 1050.01 1647.75C1051.41 1647.39 1052.82 1647.57 1054.22 1647.39C1055.83 1653.84 1055.83 1697.54 1054.62 1704.88ZM929.039 1526.5C933.452 1527.57 935.057 1530.26 937.264 1532.23C964.748 1558.38 992.232 1584.53 1019.72 1610.68C1029.14 1619.63 1038.37 1628.41 1047.8 1637.36C1049.61 1638.97 1051.81 1640.59 1052.42 1643.09C1051.61 1643.81 1051.21 1644.53 1050.41 1644.71C980.396 1666.91 910.582 1689.3 840.368 1711.51C838.361 1709.9 836.355 1708.64 834.951 1707.21C797.236 1671.39 759.721 1635.57 722.006 1599.75C720.401 1598.32 719.197 1596.53 717.593 1594.56C718.997 1593.66 719.799 1592.95 720.803 1592.59C790.415 1570.56 860.028 1548.53 929.039 1526.5ZM811.479 1412.77C814.087 1415.28 816.896 1417.78 819.504 1420.29C853.006 1452.17 886.509 1484.05 920.011 1516.11C922.419 1518.44 925.227 1520.23 926.431 1523.45C921.014 1526.68 896.339 1534.92 882.697 1537.96C881.293 1536.71 879.287 1535.45 877.682 1534.02C855.815 1513.07 833.747 1492.29 811.881 1471.34C808.47 1468.11 806.665 1464.71 806.665 1460.05C806.866 1446.08 806.665 1431.93 806.865 1417.96C806.865 1415.99 807.266 1413.84 807.266 1412.05C809.473 1410.8 810.476 1411.7 811.479 1412.77ZM777.776 1103.82C779.783 1105.43 781.588 1107.22 783.394 1109.02C859.627 1181.55 935.86 1254.27 1012.29 1326.98C1014.7 1329.31 1017.71 1331.1 1018.71 1334.5C1017.91 1335.22 1017.31 1335.94 1016.51 1336.12C1002.86 1340.59 989.223 1344.89 973.976 1349.73C971.769 1347.22 969.964 1345.07 967.958 1343.1C905.166 1283.28 842.173 1223.46 779.381 1163.64C778.178 1162.57 776.974 1161.31 775.77 1160.06C773.764 1158.27 772.962 1156.12 772.962 1153.61C772.962 1137.49 772.962 1121.19 773.162 1105.08C773.162 1104.36 773.564 1103.64 773.764 1102.93C775.57 1101.85 776.773 1102.93 777.776 1103.82Z" fill="#FF1A2D" fill-opacity="0.08"/>
</svg>
