<svg width="206" height="248" viewBox="0 0 206 248" fill="none" xmlns="http://www.w3.org/2000/svg">
<path d="M55.7932 192.316C23.7971 175.367 2 141.741 2 103.009C2 47.2296 47.2208 2.00019 103.003 2.00019C158.786 2.00019 204.006 47.2296 204.006 103.009C204.006 141.755 182.188 175.41 150.166 192.344" stroke="#121212" stroke-width="2.76488" stroke-miterlimit="10"/>
<path d="M177.973 246.062H28.0347C23.3127 246.062 19.4851 242.223 19.4851 237.502C19.4851 232.782 23.3127 228.957 28.0347 228.957H177.973C182.695 228.957 186.522 232.782 186.522 237.502C186.522 242.223 182.695 246.062 177.973 246.062V246.062Z" stroke="#121212" stroke-width="2.76488" stroke-miterlimit="10"/>
<path d="M170.647 27.9204L141.89 56.6772" stroke="#121212" stroke-width="2.76488" stroke-miterlimit="10" stroke-linecap="round"/>
<path d="M62.0607 134.093L26.8291 169.325" stroke="#121212" stroke-width="2.76488" stroke-miterlimit="10" stroke-linecap="round"/>
<path d="M179.302 169.325L154.733 144.755" stroke="#121212" stroke-width="2.76488" stroke-miterlimit="10" stroke-linecap="round"/>
<path d="M63.46 54.2868H63.4586L35.9407 27.6847" stroke="#121212" stroke-width="2.76488" stroke-miterlimit="10" stroke-linecap="round"/>
<path d="M164.826 216.985L133.913 170.633H72.0906L41.1794 216.985" stroke="#121212" stroke-width="2.76488" stroke-miterlimit="10"/>
<path d="M115.35 185.803L111.864 188.135L113 184.097L109.708 181.495L113.897 181.338L115.35 177.4L116.803 181.338L120.992 181.495L117.7 184.097L118.836 188.135L115.35 185.803Z" fill="#121212"/>
<path d="M167.662 228.815H38.3442C34.9019 228.815 32.1108 226.014 32.1108 222.573C32.1108 219.132 34.9019 216.346 38.3442 216.346H167.662C171.106 216.346 173.896 219.132 173.896 222.573C173.896 226.014 171.106 228.815 167.662 228.815Z" stroke="#121212" stroke-width="2.76488" stroke-miterlimit="10"/>
<path d="M96.6833 203.137L89.51 207.928L91.8476 199.625L85.0767 194.293L93.6945 193.951L96.6833 185.861L99.672 193.951L108.29 194.293L101.519 199.625L103.857 207.928L96.6833 203.137Z" fill="#121212"/>
<g filter="url(#filter0_d_64_230)">
<path d="M94.8606 89.8884V83.141C94.8606 80.3079 93.1236 77.809 90.7516 76.4673L90.7416 76.4616L90.7316 76.4562L78.2834 69.7126L78.2721 69.7065L78.2607 69.7006C75.6768 68.3687 72.5778 68.3406 70.1341 69.7178L57.7062 76.4504C55.0509 77.8244 53.572 80.3675 53.572 83.141V96.8211C53.572 99.6582 55.3077 102.158 57.6764 103.495L57.6833 103.499L57.6902 103.503L70.3486 110.439L70.3625 110.447L70.3766 110.454C72.9621 111.787 76.0593 111.815 78.4996 110.433C78.501 110.432 78.5024 110.431 78.5038 110.431L94.4137 101.58L105.22 95.8062L105.23 95.8011L105.239 95.7958L121.149 86.9399C123.044 85.9721 125.244 86.0002 126.89 86.9265L126.897 86.9307L126.904 86.9347L150.584 99.8483L150.603 99.8587L150.622 99.8684C151.475 100.296 152.182 100.941 152.671 101.727C153.159 102.514 153.411 103.412 153.401 104.324H153.401V104.337V129.96C153.401 131.751 152.286 133.483 150.577 134.452L127.119 147.155C125.216 148.132 123.02 148.103 121.381 147.174L121.37 147.168L121.36 147.162L97.8795 134.446L97.8672 134.44L97.8549 134.434C96.0285 133.496 95.0653 131.805 95.0653 129.96V121.836L103.381 117.241V123.988C103.381 126.821 105.118 129.32 107.49 130.662L107.501 130.668L107.511 130.673L119.964 137.417L119.975 137.423L119.986 137.428C122.568 138.762 125.671 138.788 128.115 137.407C128.116 137.407 128.117 137.406 128.118 137.406L140.542 130.483C143.201 129.107 144.67 126.565 144.67 123.795V110.115C144.67 107.279 142.941 104.778 140.564 103.44L140.555 103.435L140.546 103.43L128.093 96.6868L128.081 96.6807L128.07 96.6749C125.487 95.3431 122.392 95.3144 119.953 96.6931L104.034 105.356L104.027 105.36L93.2175 111.328L93.2112 111.331L77.3028 119.994C75.4058 120.965 73.2039 120.936 71.5638 120.01L71.5543 120.005L71.5446 120L48.0645 107.285L48.0533 107.279L48.042 107.273C46.2129 106.33 45.2503 104.642 45.2503 102.793V77.1693H45.2504L45.2503 77.1563C45.2408 76.2451 45.4923 75.3465 45.9807 74.5602C46.4692 73.7735 47.1769 73.1283 48.0293 72.7011L48.0471 72.6922L48.0646 72.6827L71.4189 60.0326L71.5221 59.9795C73.4275 58.9973 75.6283 59.0243 77.2705 59.9557L77.2771 59.9595L77.2838 59.9632L100.354 72.6784L100.376 72.6902L100.398 72.7011C101.25 73.1283 101.958 73.7735 102.446 74.5602C102.935 75.3465 103.186 76.2451 103.177 77.1563L103.177 77.1563V77.1693V85.2929L94.8606 89.8884Z" stroke="#121212" stroke-width="2.5" shape-rendering="crispEdges"/>
</g>
<defs>
<filter id="filter0_d_64_230" x="40" y="58" width="118.651" height="99.1293" filterUnits="userSpaceOnUse" color-interpolation-filters="sRGB">
<feFlood flood-opacity="0" result="BackgroundImageFix"/>
<feColorMatrix in="SourceAlpha" type="matrix" values="0 0 0 0 0 0 0 0 0 0 0 0 0 0 0 0 0 0 127 0" result="hardAlpha"/>
<feOffset dy="4"/>
<feGaussianBlur stdDeviation="2"/>
<feComposite in2="hardAlpha" operator="out"/>
<feColorMatrix type="matrix" values="0 0 0 0 0.988235 0 0 0 0 0.831373 0 0 0 0 0.0823529 0 0 0 1 0"/>
<feBlend mode="normal" in2="BackgroundImageFix" result="effect1_dropShadow_64_230"/>
<feBlend mode="normal" in="SourceGraphic" in2="effect1_dropShadow_64_230" result="shape"/>
</filter>
</defs>
</svg>
