<svg width="40" height="40" viewBox="0 0 40 40" fill="none" xmlns="http://www.w3.org/2000/svg">
<path d="M20 3.75C16.7861 3.75 13.6443 4.70305 10.972 6.48862C8.29969 8.27419 6.21689 10.8121 4.98696 13.7814C3.75704 16.7507 3.43524 20.018 4.06225 23.1702C4.68926 26.3224 6.23692 29.2179 8.50952 31.4905C10.7821 33.7631 13.6776 35.3107 16.8298 35.9378C19.982 36.5648 23.2493 36.243 26.2186 35.013C29.1879 33.7831 31.7258 31.7003 33.5114 29.028C35.297 26.3557 36.25 23.2139 36.25 20C36.2455 15.6916 34.5319 11.561 31.4855 8.51454C28.439 5.46806 24.3084 3.75455 20 3.75ZM9.43751 11.2063L12.1047 13.8734C11.0004 15.2862 10.2986 16.9711 10.0734 18.75H6.30782C6.55904 15.9755 7.65089 13.3437 9.43751 11.2063ZM6.30782 21.25H10.0813C10.3064 23.0289 11.0083 24.7138 12.1125 26.1266L9.43751 28.7938C7.65089 26.6563 6.55904 24.0245 6.30782 21.25ZM18.75 33.6922C15.976 33.4423 13.3443 32.3521 11.2063 30.5672L13.8734 27.9C15.2875 28.9998 16.9724 29.6972 18.75 29.9187V33.6922ZM18.75 10.0812C16.9711 10.3064 15.2862 11.0083 13.8734 12.1125L11.2063 9.4375C13.3443 7.65258 15.976 6.56239 18.75 6.3125V10.0812ZM33.6922 18.75H29.9188C29.6959 16.9719 28.9968 15.287 27.8953 13.8734L30.5625 11.2063C32.3491 13.3437 33.441 15.9755 33.6922 18.75ZM21.25 6.30781C24.024 6.5577 26.6557 7.64789 28.7938 9.43281L26.1266 12.1047C24.7138 11.0004 23.0289 10.2986 21.25 10.0734V6.30781ZM21.25 33.6922V29.9187C23.0281 29.6959 24.713 28.9968 26.1266 27.8953L28.7938 30.5625C26.6563 32.3491 24.0245 33.441 21.25 33.6922ZM30.5625 28.7938L27.8953 26.1266C28.9968 24.713 29.6959 23.0281 29.9188 21.25H33.6922C33.441 24.0245 32.3491 26.6563 30.5625 28.7938Z" fill="#FF1A2D"/>
</svg>
