<svg width="156" height="289" viewBox="0 0 156 289" fill="none" xmlns="http://www.w3.org/2000/svg">
<path d="M24.8136 154.377C24.8136 154.377 41.7943 141.256 44.3771 140.959C46.9583 140.662 50.8318 140.266 52.6191 143.039C54.4065 145.828 61.6664 156.621 63.4768 161.341C64.6437 164.361 64.7015 167.613 64.4374 168.735C64.1717 169.857 63.1138 171.838 61.5245 172.63" stroke="#121212" stroke-width="2.76488" stroke-miterlimit="10" stroke-linecap="round"/>
<path d="M22.6958 170.864C22.6958 170.864 40.4059 163.239 44.2464 162.447C48.0851 161.638 52.8201 160.466 55.0382 160.912C56.2578 161.159 60.4001 163.635 60.4662 169.923C60.5322 176.211 64.14 187.681 60.2022 192.368C58.8439 193.969 56.8915 194.101 56.8915 194.101" stroke="#121212" stroke-width="2.76488" stroke-miterlimit="10" stroke-linecap="round"/>
<path d="M19.2848 187.731C19.2848 187.731 39.7808 180.898 42.8257 180.122C46.1314 179.281 49.442 178.01 51.1634 180.469C52.8847 182.911 56.8902 191.378 56.8902 196.263C56.8902 201.165 55.9709 201.594 55.2348 202.567C54.0103 204.168 49.7392 206.05 43.4496 206.858C39.8171 207.337 36.4982 207.188 36.4982 207.188C36.4982 207.188 37.259 201.049 41.961 198.739" stroke="#121212" stroke-width="2.76488" stroke-miterlimit="10" stroke-linecap="round"/>
<path d="M50.3361 201.098C50.3361 201.098 47.2582 202.187 44.7876 200.537C43.7577 199.843 42.6157 197.599 42.6157 197.599C42.6157 197.599 38.4221 201.989 30.6736 201.114" stroke="#121212" stroke-width="2.76488" stroke-miterlimit="10" stroke-linecap="round"/>
<path d="M64.4384 168.734C64.4384 168.734 68.8086 173.801 68.6089 177.596C68.4108 181.376 68.4108 181.376 68.4108 181.376C68.4108 181.376 72.2611 192.351 72.979 197.599C73.7728 203.392 73.3768 206.197 71.9855 209.977C70.5959 213.756 66.8215 224.681 67.0196 228.84C67.2193 233.016 65.828 235.392 64.4384 237.785C63.0488 240.162 56.8912 266.782 57.487 282.676C57.5629 284.705 57.4309 287.049 57.4309 287.049" stroke="#121212" stroke-width="2.76488" stroke-miterlimit="10" stroke-linecap="round"/>
<path d="M52.0665 206.181C52.0665 206.181 53.2152 211.511 61.4258 213.244" stroke="#121212" stroke-width="2.76488" stroke-miterlimit="10" stroke-linecap="round"/>
<path d="M21.9334 287.049C21.9334 287.049 22.6299 283.666 23.2257 277.114C23.8215 270.545 23.8215 253.877 24.6153 251.285C25.4108 248.711 27.5942 238.38 26.6023 235.392C25.6088 232.422 16.7645 215.34 12.599 211.066C8.82626 207.204 7.43494 201.23 7.13788 199.645C6.83916 198.061 6.86555 195.552 7.53395 194.084C7.93169 193.209 8.46148 192.516 8.46148 192.516C8.46148 192.516 6.79961 188.489 6.61641 186.74C6.39196 184.611 7.16264 183.884 7.68416 183.307C8.20568 182.746 8.75198 182.25 8.75198 182.25C8.75198 182.25 5.48255 177.778 6.14435 173.487C6.80615 169.18 11.4404 164.839 12.698 162.958C13.9572 161.06 16.3734 157.594 17.2662 151.24C18.1607 144.886 19.5503 136.04 20.6429 132.673C21.7354 129.29 22.7075 126.27 23.1266 125.362C23.8545 123.794 25.0461 121.781 30.3421 121.847C35.6398 121.913 39.7443 120.791 41.1999 120.461C42.6572 120.131 49.2108 119.272 51.1319 120.065C53.0512 120.857 59.4068 125.296 61.2601 127.211C63.1151 129.142 69.6028 136.222 70.5963 137.278C71.5882 138.334 68.4772 139.06 67.3517 139.275C66.2261 139.473 52.9522 142.196 48.3839 136.634C46.684 134.571 45.4381 133.169 45.4381 133.169C45.4381 133.169 42.7397 135.132 40.6371 135.908C39.3795 136.37 36.1679 136.288 36.1679 136.288C36.1679 136.288 38.9158 141.074 37.4965 144.985" stroke="#121212" stroke-width="2.76488" stroke-miterlimit="10" stroke-linecap="round"/>
<path d="M69.4401 136.023C69.4401 136.023 66.8738 137.327 65.4066 136.931C63.9411 136.535 61.9986 134.323 61.0612 132.623C60.4324 131.468 59.9355 130.247 59.9355 130.247L62.2213 128.233L69.4401 136.023Z" fill="#121212"/>
<g filter="url(#filter0_d_64_192)">
<path d="M42.9009 119.735C39.8857 103.116 44.708 85.4569 57.4159 72.749C65.9186 64.2496 76.6377 59.2821 87.7777 57.8298C87.3354 58.2259 86.9064 58.6385 86.4822 59.0676C69.8861 75.6538 70.1171 102.786 86.9988 119.669C103.877 136.552 131.009 136.783 147.604 120.181C148.021 119.768 148.439 119.322 148.845 118.877C147.396 130.033 142.422 140.744 133.916 149.26C113.151 170.022 79.1892 169.725 58.0678 148.6C57.2393 147.775 52.6463 143.022 51.8822 142.164" stroke="#121212" stroke-width="2.76488" stroke-miterlimit="10" shape-rendering="crispEdges"/>
</g>
<path d="M156 71.775C147.449 74.9602 140.648 81.7431 137.428 90.2921C134.208 81.7431 127.419 74.9602 118.88 71.775C127.43 68.5568 134.208 61.7901 137.428 53.2412C140.648 61.7901 147.449 68.5568 156 71.775Z" fill="#121212"/>
<path d="M26.4785 47.217C20.3788 49.5111 15.5283 54.3302 13.231 60.4366C10.9337 54.3302 6.09152 49.5111 0 47.217C6.09977 44.923 10.9337 40.104 13.231 34.0141C15.5283 40.104 20.3788 44.9395 26.4785 47.217Z" fill="#121212"/>
<path d="M73.0631 7.37719C69.6634 8.64797 66.9567 11.338 65.676 14.7378C64.3953 11.338 61.6953 8.64797 58.2988 7.37719C61.7002 6.0899 64.3953 3.39976 65.676 -2.86102e-06C66.9567 3.39976 69.6634 6.0899 73.0631 7.37719Z" fill="#121212"/>
<path d="M122.964 188.736C118.655 190.354 115.229 193.77 113.606 198.061C111.982 193.77 108.561 190.354 104.259 188.736C108.568 187.119 111.982 183.703 113.606 179.412C115.229 183.703 118.655 187.119 122.964 188.736Z" fill="#121212"/>
<defs>
<filter id="filter0_d_64_192" x="36.6489" y="55.8819" width="118.133" height="118.14" filterUnits="userSpaceOnUse" color-interpolation-filters="sRGB">
<feFlood flood-opacity="0" result="BackgroundImageFix"/>
<feColorMatrix in="SourceAlpha" type="matrix" values="0 0 0 0 0 0 0 0 0 0 0 0 0 0 0 0 0 0 127 0" result="hardAlpha"/>
<feOffset dy="4"/>
<feGaussianBlur stdDeviation="2"/>
<feComposite in2="hardAlpha" operator="out"/>
<feColorMatrix type="matrix" values="0 0 0 0 0.988235 0 0 0 0 0.831373 0 0 0 0 0.0823529 0 0 0 1 0"/>
<feBlend mode="normal" in2="BackgroundImageFix" result="effect1_dropShadow_64_192"/>
<feBlend mode="normal" in="SourceGraphic" in2="effect1_dropShadow_64_192" result="shape"/>
</filter>
</defs>
</svg>
